<svg width="818" height="880" viewBox="0 0 818 880" fill="none" xmlns="http://www.w3.org/2000/svg">
<path d="M377.638 648.366C377.834 638.734 381.528 629.567 387.93 622.829C394.331 616.09 402.931 612.317 411.888 612.317C420.844 612.317 429.444 616.09 435.845 622.829C442.247 629.567 445.942 638.734 446.137 648.366L451.863 646.184V613.694L431.56 599.491L400.902 589.846L377.638 605.07L367.397 625.592V645.691L377.638 648.366Z" fill="#263238"/>
<path d="M316.746 736.472H507.029C508.784 736.472 510.522 736.844 512.144 737.566C513.766 738.289 515.239 739.348 516.48 740.683C517.722 742.019 518.706 743.604 519.378 745.348C520.05 747.093 520.395 748.963 520.395 750.851V762.802H303.38V750.851C303.38 748.963 303.726 747.093 304.397 745.348C305.069 743.604 306.053 742.019 307.295 740.683C308.536 739.348 310.009 738.289 311.631 737.566C313.253 736.844 314.991 736.472 316.746 736.472Z" fill="#999999" stroke="#263238" stroke-linecap="round" stroke-linejoin="round"/>
<path d="M454.808 560.278H369.033L350.693 736.472H473.082L454.808 560.278ZM411.945 679.008C405.169 679.008 398.544 676.846 392.91 672.796C387.276 668.745 382.885 662.988 380.293 656.253C377.701 649.518 377.023 642.107 378.346 634.957C379.67 627.808 382.934 621.241 387.727 616.087C392.519 610.934 398.625 607.425 405.271 606.005C411.918 604.585 418.806 605.317 425.066 608.11C431.326 610.902 436.675 615.628 440.437 621.691C444.199 627.754 446.206 634.881 446.203 642.171C446.203 647.016 445.314 651.813 443.588 656.288C441.862 660.763 439.333 664.828 436.145 668.25C432.956 671.672 429.172 674.383 425.008 676.229C420.844 678.075 416.383 679.019 411.879 679.008H411.945Z" fill="#757575" stroke="#263238" stroke-linecap="round" stroke-linejoin="round"/>
<path d="M714.425 125.91H109.334C93.6936 125.91 81.0147 139.55 81.0147 156.376V550.51C81.0147 567.336 93.6936 580.976 109.334 580.976H714.425C730.065 580.976 742.744 567.336 742.744 550.51V156.376C742.744 139.55 730.065 125.91 714.425 125.91Z" fill="#999999" stroke="#263238" stroke-width="0.75" stroke-linecap="round" stroke-linejoin="round"/>
<path d="M81.0965 552.147C81.4777 559.928 84.6186 567.255 89.8721 572.618C95.1255 577.982 102.091 580.973 109.334 580.976H714.441C721.694 580.987 728.674 578.002 733.94 572.638C739.207 567.273 742.358 559.939 742.744 552.147H81.0965Z" fill="#263238" stroke="#263238" stroke-width="0.75" stroke-linecap="round" stroke-linejoin="round"/>
<path d="M714.441 156.376H109.334V550.528H714.441V156.376Z" fill="#FF9F1C"/>
<path opacity="0.8" d="M714.441 156.376H109.334V550.528H714.441V156.376Z" fill="white"/>
<path d="M714.441 156.376H109.334V550.528H714.441V156.376Z" stroke="#263238" stroke-linecap="round" stroke-linejoin="round"/>
<path d="M714.441 156.376H109.334V192.562H714.441V156.376Z" fill="#FF9F1C" stroke="#263238" stroke-width="0.75" stroke-linecap="round" stroke-linejoin="round"/>
<path d="M140.843 174.469C140.843 176.209 140.363 177.911 139.465 179.358C138.566 180.805 137.288 181.933 135.794 182.599C134.299 183.265 132.654 183.439 131.067 183.1C129.481 182.76 128.023 181.922 126.879 180.691C125.735 179.461 124.956 177.893 124.64 176.186C124.325 174.479 124.487 172.709 125.106 171.101C125.725 169.493 126.773 168.119 128.119 167.152C129.464 166.185 131.045 165.669 132.663 165.669C134.833 165.669 136.913 166.596 138.447 168.246C139.981 169.897 140.843 172.135 140.843 174.469Z" fill="white"/>
<path d="M165.465 174.469C165.465 176.209 164.985 177.911 164.086 179.358C163.188 180.805 161.91 181.933 160.415 182.599C158.921 183.265 157.276 183.439 155.689 183.1C154.102 182.76 152.645 181.922 151.501 180.691C150.357 179.461 149.578 177.893 149.262 176.186C148.947 174.479 149.109 172.709 149.728 171.101C150.347 169.493 151.395 168.119 152.74 167.152C154.086 166.185 155.667 165.669 157.285 165.669C159.455 165.669 161.535 166.596 163.069 168.246C164.603 169.897 165.465 172.135 165.465 174.469Z" fill="white"/>
<path d="M190.087 174.469C190.087 176.209 189.607 177.911 188.708 179.358C187.809 180.805 186.532 181.933 185.037 182.599C183.542 183.265 181.898 183.439 180.311 183.1C178.724 182.76 177.267 181.922 176.123 180.691C174.979 179.461 174.2 177.893 173.884 176.186C173.568 174.479 173.73 172.709 174.349 171.101C174.969 169.493 176.017 168.119 177.362 167.152C178.707 166.185 180.289 165.669 181.907 165.669C184.076 165.669 186.157 166.596 187.691 168.246C189.225 169.897 190.087 172.135 190.087 174.469Z" fill="white"/>
<path d="M302.758 550.51V192.562" stroke="#263238" stroke-width="0.75" stroke-linecap="round" stroke-linejoin="round"/>
<path d="M292.517 523.741C290.795 523.741 289.143 523.011 287.918 521.71C286.693 520.409 285.994 518.641 285.973 516.789V332.376C285.994 330.524 286.693 328.756 287.918 327.455C289.143 326.153 290.795 325.424 292.517 325.424C294.224 325.447 295.855 326.187 297.063 327.485C298.27 328.784 298.958 330.539 298.979 332.376V516.789C298.958 518.625 298.27 520.38 297.063 521.679C295.855 522.978 294.224 523.718 292.517 523.741Z" fill="#FF9F1C"/>
<path opacity="0.3" d="M292.517 523.741C290.795 523.741 289.143 523.011 287.918 521.71C286.693 520.409 285.994 518.641 285.973 516.789V332.376C285.994 330.524 286.693 328.756 287.918 327.455C289.143 326.153 290.795 325.424 292.517 325.424C294.224 325.447 295.855 326.187 297.063 327.485C298.27 328.784 298.958 330.539 298.979 332.376V516.789C298.958 518.625 298.27 520.38 297.063 521.679C295.855 522.978 294.224 523.718 292.517 523.741Z" fill="white"/>
<path d="M269.727 250.642H124.434V270.952H269.727V250.642Z" fill="#FF9F1C"/>
<path d="M269.727 283.642H149.056V303.952H269.727V283.642Z" fill="#FF9F1C"/>
<path d="M269.727 316.624H149.056V336.934H269.727V316.624Z" fill="#FF9F1C"/>
<path d="M269.711 349.624H160.017V369.934H269.711V349.624Z" fill="#FF9F1C"/>
<path d="M138.078 299.746V287.848L143.608 293.797L138.078 299.746Z" fill="#263238" stroke="#263238" stroke-width="0.75" stroke-linecap="round" stroke-linejoin="round"/>
<path d="M138.078 332.728V320.83L143.608 326.779L138.078 332.728Z" fill="#263238" stroke="#263238" stroke-width="0.75" stroke-linecap="round" stroke-linejoin="round"/>
<path d="M149.056 365.728V353.83L154.586 359.779L149.056 365.728Z" fill="#263238" stroke="#263238" stroke-width="0.75" stroke-linecap="round" stroke-linejoin="round"/>
<path d="M269.727 396.827H124.434V417.138H269.727V396.827Z" fill="#FF9F1C"/>
<path d="M269.727 429.827H149.056V450.138H269.727V429.827Z" fill="#FF9F1C"/>
<path d="M269.727 462.827H160.066V483.138H269.727V462.827Z" fill="#FF9F1C"/>
<path d="M269.727 495.827H160.066V516.138H269.727V495.827Z" fill="#FF9F1C"/>
<path d="M138.078 445.931V434.034L143.608 439.982L138.078 445.931Z" fill="#263238" stroke="#263238" stroke-width="0.75" stroke-linecap="round" stroke-linejoin="round"/>
<path d="M149.089 478.931V467.034L154.618 472.982L149.089 478.931Z" fill="#263238" stroke="#263238" stroke-width="0.75" stroke-linecap="round" stroke-linejoin="round"/>
<path d="M149.089 511.914V500.034L154.618 505.982L149.089 511.914Z" fill="#263238" stroke="#263238" stroke-width="0.75" stroke-linecap="round" stroke-linejoin="round"/>
<path d="M501.238 293.779H692.502V221.866L501.238 221.866V293.779Z" fill="white" stroke="#263238" stroke-width="0.75" stroke-linecap="round" stroke-linejoin="round"/>
<path d="M322.57 375.848H484.894V221.866L322.57 221.866V375.848Z" fill="white" stroke="#263238" stroke-width="0.75" stroke-linecap="round" stroke-linejoin="round"/>
<path d="M484.894 375.848L322.57 221.883" stroke="#263238" stroke-width="0.5" stroke-linecap="round" stroke-linejoin="round"/>
<path d="M322.57 375.848L484.894 221.883" stroke="#263238" stroke-width="0.5" stroke-linecap="round" stroke-linejoin="round"/>
<path d="M591.218 303.934H501.254V375.848H591.218V303.934Z" fill="#FF9F1C" stroke="#263238" stroke-width="0.75" stroke-miterlimit="10"/>
<path d="M692.502 303.934H602.539V375.848H692.502V303.934Z" fill="white" stroke="#263238" stroke-width="0.75" stroke-linecap="round" stroke-linejoin="round"/>
<path d="M692.502 375.848L602.539 303.934" stroke="#263238" stroke-width="0.5" stroke-linecap="round" stroke-linejoin="round"/>
<path d="M602.539 375.848L692.502 303.934" stroke="#263238" stroke-width="0.5" stroke-linecap="round" stroke-linejoin="round"/>
<path d="M692.519 386.003H501.254V521.118H692.519V386.003Z" fill="white" stroke="#263238" stroke-width="0.75" stroke-linecap="round" stroke-linejoin="round"/>
<path d="M483.782 386.003H403.732V448.483H483.782V386.003Z" fill="white" stroke="#263238" stroke-width="0.75" stroke-linecap="round" stroke-linejoin="round"/>
<path d="M483.782 458.638H403.732V521.118H483.782V458.638Z" stroke="#263238" stroke-width="0.75" stroke-linecap="round" stroke-linejoin="round"/>
<path d="M698.49 290.822H608.527V362.736H698.49V290.822Z" fill="#FF9F1C" stroke="#263238" stroke-width="0.75" stroke-linecap="round" stroke-linejoin="round"/>
<path d="M623.774 295.486H614.351V303.019H623.774V295.486Z" fill="#263238" stroke="#263238" stroke-linecap="round" stroke-linejoin="round"/>
<path d="M623.152 347.09L644.486 312.048L665.803 347.09H623.152Z" fill="#999999" stroke="#263238" stroke-width="0.75" stroke-linecap="round" stroke-linejoin="round"/>
<path d="M651.324 347.09L667.603 320.338L683.897 347.09H651.324Z" fill="#757575" stroke="#263238" stroke-width="0.75" stroke-linecap="round" stroke-linejoin="round"/>
<path d="M665.672 312.048C665.675 313.209 665.358 314.344 664.761 315.311C664.163 316.277 663.313 317.031 662.316 317.477C661.32 317.923 660.224 318.04 659.165 317.815C658.107 317.589 657.135 317.03 656.372 316.21C655.609 315.389 655.09 314.343 654.88 313.205C654.67 312.066 654.78 310.886 655.194 309.815C655.608 308.743 656.309 307.828 657.208 307.185C658.106 306.542 659.162 306.201 660.24 306.205C661.68 306.209 663.059 306.827 664.076 307.921C665.094 309.016 665.668 310.5 665.672 312.048Z" fill="white" stroke="#263238" stroke-width="0.75" stroke-linecap="round" stroke-linejoin="round"/>
<path d="M469.548 391.09H389.499V453.57H469.548V391.09Z" fill="#FF9F1C" stroke="#263238" stroke-width="0.75" stroke-linecap="round" stroke-linejoin="round"/>
<path d="M418.554 405.627L443.323 422.33L418.554 439.014L423.184 422.33L418.554 405.627Z" fill="#263238" stroke="#263238" stroke-width="0.75" stroke-linecap="round" stroke-linejoin="round"/>
<path d="M423.184 422.33L418.554 405.627L443.323 422.33H423.184Z" fill="white" stroke="#263238" stroke-width="0.75" stroke-linecap="round" stroke-linejoin="round"/>
<path d="M684.453 202.541H648.772V275.141H698.899V218.099L684.453 202.541Z" fill="#FF9F1C" stroke="#263238" stroke-width="0.75" stroke-linecap="round" stroke-linejoin="round"/>
<path d="M698.899 218.099H684.453V202.541L698.899 218.099Z" fill="#FF9F1C" stroke="#263238" stroke-width="0.75" stroke-linecap="round" stroke-linejoin="round"/>
<path d="M670.596 224.611H676.797L681.525 255.886H676.96L676.126 249.674H670.94L670.106 255.798H665.852L670.596 224.611ZM675.668 245.52L673.639 230.05L671.643 245.52H675.668Z" fill="#263238"/>
<path d="M618.948 209.229H583.267V281.811H633.41V224.787L618.948 209.229Z" fill="#FF9F1C" stroke="#263238" stroke-width="0.75" stroke-linecap="round" stroke-linejoin="round"/>
<path d="M633.41 224.787H618.948V209.229L633.41 224.787Z" fill="#FF9F1C" stroke="#263238" stroke-width="0.75" stroke-linecap="round" stroke-linejoin="round"/>
<path d="M603.684 255.939L602.293 262.557H600.657L606.727 232.637H609.394L615.578 262.557H613.762L612.371 255.939H603.684ZM603.962 254.179H612.06L607.97 234.819L603.962 254.179Z" fill="#263238"/>
<path d="M552.51 197.754H509.696V284.856H569.868V216.427L552.51 197.754Z" fill="#FF9F1C" stroke="#263238" stroke-width="0.75" stroke-linecap="round" stroke-linejoin="round"/>
<path d="M569.868 216.427H552.51V197.754L569.868 216.427Z" fill="#FF9F1C" stroke="#263238" stroke-width="0.75" stroke-linecap="round" stroke-linejoin="round"/>
<path d="M534.203 254.848L532.289 263.12H531.356L539.226 227.92H540.682L548.731 263.12H547.7L545.802 254.848H534.203ZM534.383 253.845H545.606L539.88 229.293L534.383 253.845Z" fill="#263238"/>
<path d="M496.215 465.907H416.166V528.387H496.215V465.907Z" fill="white" stroke="#263238" stroke-width="0.75" stroke-linecap="round" stroke-linejoin="round"/>
<path d="M467.602 481.254C464.564 477.987 460.445 476.151 456.15 476.151C451.854 476.151 447.735 477.987 444.698 481.254C441.66 484.522 439.954 488.953 439.954 493.574C439.954 498.195 441.66 502.627 444.698 505.894L456.15 518.214L467.602 505.894C469.111 504.28 470.309 502.36 471.127 500.246C471.944 498.132 472.365 495.864 472.365 493.574C472.365 491.284 471.944 489.017 471.127 486.903C470.309 484.788 469.111 482.869 467.602 481.254ZM461.499 499.259C460.449 500.389 459.111 501.159 457.654 501.471C456.198 501.783 454.688 501.623 453.315 501.012C451.943 500.4 450.77 499.365 449.945 498.036C449.12 496.708 448.679 495.146 448.679 493.548C448.679 491.95 449.12 490.388 449.945 489.06C450.77 487.731 451.943 486.696 453.315 486.084C454.688 485.473 456.198 485.313 457.654 485.625C459.111 485.937 460.449 486.707 461.499 487.837C462.907 489.352 463.698 491.406 463.698 493.548C463.698 495.69 462.907 497.744 461.499 499.259Z" fill="#FF9F1C" stroke="#263238" stroke-linecap="round" stroke-linejoin="round"/>
<path d="M312.509 364.83H474.833V210.848L312.509 210.848V364.83Z" fill="#FF9F1C" stroke="#263238" stroke-width="0.75" stroke-linecap="round" stroke-linejoin="round"/>
<path d="M319.969 231.352H334.104V217.941H319.969V231.352Z" fill="#263238" stroke="#263238" stroke-linecap="round" stroke-linejoin="round"/>
<path d="M331.797 328.733L375.478 256.978L419.143 328.733H331.797Z" fill="#999999" stroke="#263238" stroke-width="0.75" stroke-linecap="round" stroke-linejoin="round"/>
<path d="M407.74 268.963C413.893 268.963 418.881 263.597 418.881 256.978C418.881 250.358 413.893 244.992 407.74 244.992C401.587 244.992 396.599 250.358 396.599 256.978C396.599 263.597 401.587 268.963 407.74 268.963Z" fill="white" stroke="#263238" stroke-width="0.75" stroke-linecap="round" stroke-linejoin="round"/>
<path d="M389.499 328.733L422.841 273.944L456.182 328.733H389.499Z" fill="#999999" stroke="#263238" stroke-width="0.75" stroke-linecap="round" stroke-linejoin="round"/>
<path d="M573.123 449.662C573.841 454.044 573.334 458.556 571.668 462.627C570.001 466.699 567.25 470.148 563.762 472.537C560.273 474.927 556.205 476.15 552.07 476.051C547.936 475.953 543.921 474.538 540.535 471.985C537.148 469.432 534.541 465.856 533.043 461.709C531.546 457.562 531.225 453.03 532.122 448.687C533.018 444.344 535.092 440.385 538.08 437.31C541.069 434.235 544.838 432.182 548.911 431.411C551.615 430.897 554.386 430.962 557.067 431.601C559.748 432.24 562.285 433.442 564.534 435.137C566.783 436.832 568.699 438.987 570.173 441.48C571.647 443.972 572.649 446.753 573.123 449.662Z" fill="#FF9F1C" stroke="#263238" stroke-linecap="round" stroke-linejoin="round"/>
<path d="M542.53 446.019L562.539 461.102" stroke="#263238" stroke-width="1.5" stroke-linecap="round" stroke-linejoin="round"/>
<path d="M559.545 442.798L545.541 464.323" stroke="#263238" stroke-width="1.5" stroke-linecap="round" stroke-linejoin="round"/>
<path d="M617.459 476.326C618.176 480.707 617.669 485.218 616.003 489.289C614.337 493.36 611.586 496.808 608.098 499.197C604.611 501.587 600.543 502.81 596.41 502.712C592.276 502.615 588.262 501.201 584.875 498.65C581.488 496.099 578.88 492.525 577.382 488.379C575.883 484.234 575.56 479.703 576.454 475.36C577.348 471.018 579.419 467.058 582.405 463.981C585.391 460.904 589.158 458.849 593.23 458.075C595.935 457.561 598.707 457.625 601.389 458.265C604.071 458.904 606.61 460.105 608.86 461.8C611.11 463.495 613.027 465.65 614.503 468.143C615.978 470.635 616.983 473.416 617.459 476.326Z" fill="white" stroke="#263238" stroke-linecap="round" stroke-linejoin="round"/>
<path d="M586.866 472.701L606.874 487.766" stroke="#263238" stroke-width="3" stroke-linecap="round" stroke-linejoin="round"/>
<path d="M603.88 469.462L589.86 490.987" stroke="#263238" stroke-width="3" stroke-linecap="round" stroke-linejoin="round"/>
<path d="M658.179 442.112C658.899 446.493 658.395 451.005 656.731 455.077C655.068 459.15 652.319 462.6 648.832 464.992C645.345 467.384 641.278 468.61 637.144 468.515C633.009 468.42 628.994 467.008 625.606 464.459C622.217 461.909 619.608 458.335 618.107 454.189C616.607 450.044 616.283 445.513 617.176 441.169C618.069 436.826 620.139 432.865 623.125 429.787C626.111 426.709 629.878 424.653 633.95 423.878C639.41 422.845 645.028 424.184 649.571 427.603C654.114 431.021 657.21 436.24 658.179 442.112Z" fill="#999999" stroke="#263238" stroke-width="0.75" stroke-linecap="round" stroke-linejoin="round"/>
<path d="M647.594 456.614C647.007 456.617 646.435 456.42 645.958 456.051L625.95 440.986C625.334 440.519 624.915 439.808 624.786 439.009C624.658 438.21 624.829 437.389 625.263 436.726C625.697 436.064 626.358 435.613 627.1 435.475C627.843 435.336 628.606 435.52 629.222 435.987L649.23 451.07C649.726 451.442 650.099 451.974 650.293 452.59C650.488 453.205 650.494 453.871 650.311 454.491C650.128 455.111 649.766 455.651 649.277 456.033C648.788 456.415 648.198 456.619 647.594 456.614Z" fill="white"/>
<path d="M630.58 459.835C629.995 459.842 629.423 459.651 628.944 459.29C628.637 459.062 628.375 458.772 628.173 458.435C627.971 458.098 627.834 457.722 627.768 457.327C627.703 456.932 627.711 456.528 627.792 456.137C627.873 455.745 628.025 455.375 628.24 455.048L642.261 433.523C642.476 433.196 642.748 432.918 643.063 432.704C643.378 432.49 643.729 432.346 644.096 432.278C644.463 432.21 644.838 432.22 645.201 432.309C645.564 432.397 645.908 432.562 646.212 432.793C646.516 433.024 646.775 433.317 646.973 433.656C647.172 433.995 647.307 434.372 647.37 434.767C647.433 435.161 647.423 435.566 647.341 435.956C647.258 436.347 647.106 436.716 646.891 437.043L632.887 458.568C632.622 458.959 632.275 459.278 631.874 459.498C631.473 459.718 631.03 459.834 630.58 459.835Z" fill="white"/>
<path d="M216.296 762.784H110.954L99.6324 717.253H227.617L216.296 762.784Z" fill="#263238" stroke="#263238" stroke-width="0.75" stroke-linecap="round" stroke-linejoin="round"/>
<path d="M149.056 727.408C149.056 727.408 140.876 681.648 109.334 655.776C84.7284 635.536 58.896 589.846 58.896 589.846" stroke="#263238" stroke-width="0.75" stroke-linecap="round" stroke-linejoin="round"/>
<path d="M114.144 668.519C114.144 668.519 81.5873 661.479 92.8757 682.739C104.164 704 130.144 694.919 130.144 694.919C130.144 694.919 152.328 679.166 141.007 660.141C129.686 641.115 114.144 668.519 114.144 668.519Z" fill="#FF9F1C"/>
<path opacity="0.1" d="M141.04 660.141C129.702 641.115 114.144 668.519 114.144 668.519C114.144 668.519 111.772 682.229 130.177 694.919C130.177 694.919 152.361 679.166 141.04 660.141Z" fill="black"/>
<path d="M60.1721 589.987C60.1721 589.987 39.5258 569.518 39.035 590.269C38.5442 611.019 61.0392 616.669 61.0392 616.669C61.0392 616.669 83.436 615.683 83.027 596.64C82.618 577.597 60.1721 589.987 60.1721 589.987Z" fill="#FF9F1C"/>
<path opacity="0.1" d="M83.027 596.64C82.5853 577.544 60.123 590.022 60.123 590.022C60.123 590.022 52.8428 598.822 60.9901 616.669C61.0392 616.634 83.436 615.683 83.027 596.64Z" fill="black"/>
<path d="M86.2827 628.654C86.2827 628.654 78.1027 599.738 95.7387 608.326C113.375 616.915 108.205 641.115 108.205 641.115C108.205 641.115 97.6201 662.429 81.8 653.664C65.9799 644.899 86.2827 628.654 86.2827 628.654Z" fill="#FF9F1C"/>
<path opacity="0.1" d="M81.8 653.664C66.0126 644.864 86.2336 628.654 86.2336 628.654C86.2336 628.654 96.7694 625.451 108.156 641.115C108.205 641.115 97.6201 662.429 81.8 653.664Z" fill="black"/>
<path d="M175.952 727.408C175.952 727.408 189.171 686.928 222.185 664.506C255.2 642.083 269.727 614.715 269.727 614.715" stroke="#263238" stroke-width="0.75" stroke-linecap="round" stroke-linejoin="round"/>
<path d="M149.089 609.136C149.089 609.136 162.324 627.405 164.892 660.176C167.461 692.947 169.8 727.443 169.8 727.443" stroke="#263238" stroke-width="0.75" stroke-linecap="round" stroke-linejoin="round"/>
<path d="M162.177 636.346C162.177 636.346 152.688 613.941 175.805 619.749C198.921 625.557 190.921 644.97 190.921 644.97C190.921 644.97 175.739 662.411 155.027 656.357C134.316 650.302 162.177 636.346 162.177 636.346Z" fill="#FF9F1C"/>
<path opacity="0.1" d="M155.027 656.357C134.316 650.32 162.177 636.346 162.177 636.346C162.177 636.346 176.443 633.23 190.921 644.97C190.921 644.97 175.739 662.411 155.027 656.357Z" fill="black"/>
<path d="M252.451 640.218C252.451 640.218 242.962 617.83 266.079 623.621C289.196 629.411 281.196 648.842 281.196 648.842C281.196 648.842 266.014 666.283 245.302 660.246C224.59 654.21 252.451 640.218 252.451 640.218Z" fill="#FF9F1C"/>
<path opacity="0.1" d="M245.302 660.247C224.59 654.192 252.451 640.218 252.451 640.218C252.451 640.218 266.717 637.103 281.196 648.842C281.196 648.842 266.014 666.283 245.302 660.247Z" fill="black"/>
<path d="M200.426 688.301C200.426 688.301 195.796 664.189 217.146 675.365C238.496 686.541 226.684 703.525 226.684 703.525C226.684 703.525 208.295 716.901 189.334 706.077C170.373 695.253 200.426 688.301 200.426 688.301Z" fill="#FF9F1C"/>
<path opacity="0.1" d="M189.334 706.112C170.389 695.288 200.426 688.301 200.426 688.301C200.426 688.301 214.987 688.653 226.602 703.56C226.684 703.56 208.296 716.936 189.334 706.112Z" fill="black"/>
<path d="M164.614 674.96C164.614 674.96 158.07 659.683 173.907 663.626C189.743 667.568 184.197 680.821 184.197 680.821C184.197 680.821 173.858 692.718 159.657 688.6C145.457 684.482 164.614 674.96 164.614 674.96Z" fill="#FF9F1C"/>
<path opacity="0.1" d="M159.739 688.6C145.62 684.482 164.647 674.96 164.647 674.96C168.117 674.476 171.643 674.745 175.015 675.751C178.387 676.758 181.537 678.482 184.279 680.821C184.279 680.821 173.858 692.718 159.739 688.6Z" fill="black"/>
<path d="M150.512 607.834C150.512 607.834 158.61 584.479 139.829 590.991C121.048 597.503 127.117 617.391 127.117 617.391C127.117 617.391 139.044 634.991 155.894 628.338C172.745 621.685 150.512 607.834 150.512 607.834Z" fill="#FF9F1C"/>
<path opacity="0.1" d="M155.96 628.32C172.794 621.614 150.577 607.834 150.577 607.834C150.577 607.834 139.125 604.93 127.183 617.373C127.183 617.373 139.06 635.043 155.96 628.32Z" fill="black"/>
<path d="M268.468 605.915C268.468 605.915 259.257 591.36 273.212 592.416C287.167 593.472 286.071 608.256 286.071 608.256C286.071 608.256 280.639 622.547 268.075 620.981C255.51 619.414 268.468 605.915 268.468 605.915Z" fill="#FF9F1C"/>
<path opacity="0.1" d="M267.977 620.981C255.363 619.414 268.468 605.915 268.468 605.915C268.468 605.915 275.895 601.85 286.038 608.256C286.038 608.256 280.607 622.547 267.977 620.981Z" fill="black"/>
<path d="M227.126 656.762C227.126 656.762 260.042 651.922 242.831 635.818C225.621 619.714 203.895 637.578 203.895 637.578C203.895 637.578 187.78 660.299 204.304 674.256C220.827 688.213 227.126 656.762 227.126 656.762Z" fill="#FF9F1C"/>
<path opacity="0.1" d="M204.304 674.203C220.827 688.16 227.208 656.762 227.208 656.762C227.208 656.762 225.244 642.981 203.976 637.525C203.895 637.525 187.78 660.246 204.304 674.203Z" fill="black"/>
<path d="M142.986 697.083C142.986 697.083 134.806 668.167 152.426 676.738C170.046 685.309 164.892 709.527 164.892 709.527C164.892 709.527 154.324 730.84 138.536 722.093C122.749 713.346 142.986 697.083 142.986 697.083Z" fill="#FF9F1C"/>
<path opacity="0.1" d="M138.537 722.093C122.765 713.293 142.986 697.083 142.986 697.083C142.986 697.083 153.522 693.863 164.892 709.527C164.892 709.527 154.324 730.84 138.537 722.093Z" fill="black"/>
<path d="M597.369 668.466C597.369 668.466 539.389 589.266 602.179 658.821C602.179 658.821 590.252 581.698 613.5 661.883C613.5 661.883 629.189 587.33 623.545 672.866C623.545 672.866 652.306 601.11 627.488 689.709C627.488 689.709 531.52 721.178 603.602 689.286C603.602 689.286 505.311 683.514 595.946 679.941C595.946 679.941 497.344 630.731 597.369 668.466Z" fill="#FF9F1C"/>
<path opacity="0.1" d="M597.369 668.466C597.369 668.466 539.389 589.266 602.179 658.821C602.179 658.821 590.252 581.698 613.5 661.883C613.5 661.883 629.189 587.33 623.545 672.866C623.545 672.866 652.306 601.11 627.488 689.709C627.488 689.709 531.52 721.178 603.602 689.286C603.602 689.286 505.311 683.514 595.946 679.941C595.946 679.941 497.344 630.731 597.369 668.466Z" fill="black"/>
<path d="M605.222 669.539C605.222 669.539 638.236 690.853 647.202 721.318" stroke="#263238" stroke-width="0.75" stroke-linecap="round" stroke-linejoin="round"/>
<path d="M711.889 713.803H603.913C603.44 713.707 602.953 713.724 602.487 713.853C602.021 713.982 601.587 714.22 601.217 714.551C600.846 714.881 600.547 715.295 600.343 715.764C600.138 716.232 600.032 716.744 600.032 717.262C600.032 717.779 600.138 718.291 600.343 718.759C600.547 719.228 600.846 719.642 601.217 719.972C601.587 720.303 602.021 720.541 602.487 720.67C602.953 720.799 603.44 720.816 603.913 720.72H606.236L613.713 750.746C614.567 754.203 616.46 757.259 619.096 759.439C621.732 761.619 624.964 762.801 628.289 762.802H687.464C690.789 762.801 694.021 761.619 696.657 759.439C699.293 757.259 701.186 754.203 702.04 750.746L709.517 720.72H711.84C712.313 720.816 712.8 720.799 713.266 720.67C713.732 720.541 714.166 720.303 714.536 719.972C714.907 719.642 715.206 719.228 715.41 718.759C715.615 718.291 715.721 717.779 715.721 717.262C715.721 716.744 715.615 716.232 715.41 715.764C715.206 715.295 714.907 714.881 714.536 714.551C714.166 714.22 713.732 713.982 713.266 713.853C712.8 713.724 712.313 713.707 711.84 713.803H711.889Z" fill="#263238" stroke="#263238" stroke-width="0.75" stroke-linecap="round" stroke-linejoin="round"/>
<path d="M631.725 646.008C631.725 646.008 596.747 532.787 640.674 637.349C640.674 637.349 656.183 546.357 652.126 645.656C652.126 645.656 697.427 569.43 659.226 662.218C659.226 662.218 718.024 594.757 657.312 682.651C657.312 682.651 538.751 676.245 630.891 671.88C630.891 671.88 523.635 623.005 625.852 658.152C625.852 658.24 534.465 560.789 631.725 646.008Z" fill="#FF9F1C"/>
<path d="M639.185 648.507C639.185 648.507 662.776 684.253 671.267 721.318" stroke="#263238" stroke-width="0.75" stroke-linecap="round" stroke-linejoin="round"/>
<path d="M690.13 651.306C690.13 651.306 772.634 581.398 700.175 657.078C700.175 657.078 780.503 642.699 696.903 670.736C696.903 670.736 774.564 689.656 685.451 682.862C685.451 682.862 760.2 717.534 667.913 687.597C667.913 687.597 635.193 571.912 668.339 658.803C668.339 658.803 674.359 540.32 678.155 649.581C678.187 649.581 729.443 530.693 690.13 651.306Z" fill="#FF9F1C"/>
<path opacity="0.3" d="M690.13 651.306C690.13 651.306 772.634 581.398 700.175 657.078C700.175 657.078 780.503 642.699 696.903 670.736C696.903 670.736 774.564 689.656 685.451 682.862C685.451 682.862 760.2 717.534 667.913 687.597C667.913 687.597 635.193 571.912 668.339 658.803C668.339 658.803 674.359 540.32 678.155 649.581C678.187 649.581 729.443 530.693 690.13 651.306Z" fill="white"/>
<path d="M651.128 726.387C665.967 673.094 692.028 660.141 692.028 660.141" stroke="#263238" stroke-width="0.75" stroke-linecap="round" stroke-linejoin="round"/>
<path d="M377.049 832.515C450.317 832.515 509.712 820.105 509.712 804.795C509.712 789.486 450.317 777.075 377.049 777.075C303.781 777.075 244.386 789.486 244.386 804.795C244.386 820.105 303.781 832.515 377.049 832.515Z" fill="#FF9F1C"/>
<path opacity="0.7" d="M377.049 832.515C450.317 832.515 509.712 820.105 509.712 804.795C509.712 789.486 450.317 777.075 377.049 777.075C303.781 777.075 244.386 789.486 244.386 804.795C244.386 820.105 303.781 832.515 377.049 832.515Z" fill="white"/>
<path d="M42.9123 762.802H778.965" stroke="#263238" stroke-linecap="round" stroke-linejoin="round"/>
<path d="M350.104 330.158L349.482 315.603C349.482 315.603 330.914 303.072 329.654 287.179C329.654 287.179 319.92 262.645 350.415 252.666C374.726 244.71 373.319 240.821 373.319 240.821C373.319 240.821 378.521 244.534 373.711 251.381C373.711 251.381 382.448 252.384 385.9 249.005C385.362 251.281 384.178 253.32 382.513 254.837C380.847 256.355 378.782 257.275 376.607 257.47C376.607 257.47 382.759 263.894 388.059 261.87C388.059 261.87 386.129 266.939 378.44 264.229C378.44 264.229 385.573 270.283 388.059 278.309L389.352 284.662L395.683 289.203C396.004 289.433 396.278 289.732 396.487 290.08C396.696 290.429 396.836 290.82 396.899 291.229C396.962 291.638 396.946 292.057 396.852 292.459C396.759 292.862 396.589 293.239 396.354 293.568L393.72 297.229L394.652 302.808L393.605 304.198L396.076 306.099L397.024 311.379C397.024 311.379 399.135 317.346 397.254 320.39C395.372 323.435 385.572 323.91 385.572 323.91L384.509 336.6L350.104 330.158Z" fill="white" stroke="#263238" stroke-linecap="round" stroke-linejoin="round"/>
<path d="M356.354 314.494C356.239 308.035 363.437 302.702 363.437 302.702C363.437 302.702 359.887 303.582 356.893 298.514C353.9 293.445 354.292 285.067 360.787 286.07C362.579 286.279 364.252 287.133 365.536 288.494C366.819 289.855 367.636 291.644 367.855 293.568L373.172 290.048C370.57 286.757 371.159 282.304 372.812 277.235C374.464 272.166 371.29 271.515 372.223 268.435C372.943 266.112 377.589 265.39 379.765 265.179C379.012 264.44 378.538 264.035 378.538 264.035C386.227 266.746 388.157 261.677 388.157 261.677C382.808 263.701 376.705 257.277 376.705 257.277C378.881 257.082 380.945 256.161 382.611 254.644C384.277 253.126 385.461 251.087 385.998 248.811C382.546 252.19 373.81 251.187 373.81 251.187C378.619 244.411 373.417 240.627 373.417 240.627C373.417 240.627 374.759 244.517 350.513 252.472C320.018 262.451 329.752 286.986 329.752 286.986C331.012 302.826 349.58 315.41 349.58 315.41C350.598 314.785 351.72 314.383 352.882 314.226C354.044 314.069 355.224 314.16 356.354 314.494Z" fill="#263238" stroke="#263238" stroke-linecap="round" stroke-linejoin="round"/>
<path d="M385.54 278.203C385.54 278.203 382.268 278.203 381.139 284.469" stroke="#263238" stroke-linecap="round" stroke-linejoin="round"/>
<path d="M390.104 304.48C388.811 304.424 387.543 304.083 386.378 303.477C385.213 302.872 384.176 302.015 383.331 300.96" stroke="#263238" stroke-width="0.75" stroke-linecap="round" stroke-linejoin="round"/>
<path d="M365.09 304.85C365.859 325.6 385.605 323.84 385.605 323.84C385.605 323.84 392.558 323.47 395.863 321.534C366.873 324.016 365.09 304.85 365.09 304.85Z" fill="#263238" stroke="#263238" stroke-linecap="round" stroke-linejoin="round"/>
<path d="M387.307 286.018C387.847 287.232 387.781 288.482 387.159 288.816C386.538 289.15 385.523 288.394 385.033 287.179C384.542 285.965 384.558 284.698 385.196 284.381C385.834 284.064 386.767 284.786 387.307 286.018Z" fill="#263238"/>
<path d="M400.984 764.192L405.074 791.754C403.976 795.08 403.053 798.471 402.309 801.909C402.233 803.439 402.233 804.972 402.309 806.502C402.311 807.994 402.845 809.428 403.801 810.508C404.757 811.589 406.061 812.234 407.446 812.31C412.763 812.592 420.779 812.838 424.198 811.976C430.624 809.908 436.652 806.617 441.998 802.261C442.76 801.421 443.435 800.494 444.01 799.498C444.62 798.511 444.97 797.365 445.025 796.182C445.08 794.999 444.837 793.821 444.321 792.774C443.79 791.666 442.974 790.745 441.971 790.121C440.967 789.498 439.818 789.197 438.661 789.254L424.738 789.994L422.693 761.059L400.984 764.192Z" fill="#263238" stroke="#263238" stroke-linecap="round" stroke-linejoin="round"/>
<path d="M318.218 763.365L314.537 788.163C315.524 791.156 316.354 794.205 317.024 797.298C317.1 798.675 317.1 800.056 317.024 801.434C317.026 802.781 316.55 804.078 315.692 805.059C314.835 806.041 313.661 806.633 312.411 806.714C307.617 806.96 300.402 807.189 297.327 806.397C291.54 804.521 286.115 801.54 281.31 797.597C280.625 796.835 280.016 795.997 279.494 795.098C278.946 794.209 278.631 793.177 278.582 792.111C278.533 791.046 278.752 789.986 279.216 789.043C279.706 788.059 280.446 787.245 281.35 786.696C282.254 786.147 283.284 785.887 284.32 785.946L296.852 786.614L298.685 760.566L318.218 763.365Z" fill="#263238" stroke="#263238" stroke-linecap="round" stroke-linejoin="round"/>
<path d="M313.539 506.123C313.539 506.123 312.689 523.037 311.642 551.478C310.856 572.792 305.098 638.827 303.462 661.126C301.351 690.606 294.66 778.888 294.66 778.888C294.66 778.888 303.462 787.019 317.302 782.267C317.302 782.267 334.022 695.429 338.701 666.107C341.973 645.568 349.891 583.528 355.683 563.622C357.581 557.11 366.382 538.982 366.382 538.982V506.123H313.539Z" fill="#FF9F1C"/>
<path opacity="0.2" d="M306.21 514.008C306.21 514.008 327.38 527.718 345.785 526.698C345.785 526.698 352.869 544.984 348.141 572.898C343.413 600.811 330.472 668.8 330.472 668.8C330.472 668.8 319.314 769.63 314.112 768.962C308.91 768.293 293.122 763.981 293.122 763.981L294.611 778.853L314.586 782.514L326.153 777.04L352.934 685.52L358.284 612.744L367.249 552.147L359.92 511.227L321.474 500.298H307.306L306.21 514.008Z" fill="black"/>
<path d="M313.539 506.123C313.539 506.123 312.689 523.037 311.642 551.478C310.856 572.792 305.098 638.827 303.462 661.126C301.351 690.606 294.66 778.888 294.66 778.888C294.66 778.888 303.462 787.019 317.302 782.267C317.302 782.267 334.022 695.429 338.701 666.107C341.973 645.568 349.891 583.528 355.683 563.622C357.581 557.11 366.382 538.982 366.382 538.982V506.123H313.539Z" stroke="#263238" stroke-linecap="round" stroke-linejoin="round"/>
<path d="M332.681 543.488C338.832 547.827 345.74 550.773 352.983 552.147" stroke="#263238" stroke-linecap="round" stroke-linejoin="round"/>
<path d="M328.525 539.898C329.13 540.514 329.785 541.13 330.521 541.763" stroke="#263238" stroke-linecap="round" stroke-linejoin="round"/>
<path d="M326.104 670.666C323.437 673.763 318.955 675.946 311.642 672.126" stroke="#263238" stroke-linecap="round" stroke-linejoin="round"/>
<path d="M444.043 370.568C444.043 370.568 454.743 347.688 457.507 339.768C458.342 337.374 460.125 329.93 460.125 329.93C460.125 329.93 458.489 320.232 458.325 316.958C458.325 315.814 458.587 312.4 458.587 312.4L458.015 303.6C458 303.26 458.064 302.921 458.201 302.614C458.338 302.306 458.544 302.041 458.8 301.84C459.041 301.655 459.319 301.533 459.611 301.482C459.904 301.431 460.203 301.453 460.486 301.547C460.769 301.641 461.028 301.803 461.244 302.022C461.459 302.24 461.625 302.509 461.728 302.808L462.759 305.818C462.759 305.818 464.477 310.781 465.818 311.643C467.16 312.506 470.235 311.643 471.626 311.256C474.51 309.986 477.253 308.374 479.806 306.451C481.229 305.448 485.189 302.016 485.189 302.016C485.453 303.166 485.558 304.353 485.499 305.536C484.557 307.204 483.394 308.716 482.047 310.024C482.329 311.171 482.434 312.36 482.358 313.544C481.998 314.688 479.283 317.064 479.283 317.064C479.382 318.682 479.3 320.307 479.037 321.904C477.876 325.002 470.857 332.006 470.857 332.006C470.857 332.006 468.567 341.581 468.207 344.854C466.963 356.277 467.831 373.366 456.248 389.03L444.992 381.198L444.043 370.568Z" fill="white" stroke="#263238" stroke-linecap="round" stroke-linejoin="round"/>
<path d="M439.675 360.941C439.675 360.941 463.004 355.978 461.074 377.186C459.176 397.83 451.258 392.163 451.258 392.163C451.258 392.163 440.575 397.162 439.626 390.738C438.677 384.314 439.675 360.941 439.675 360.941Z" fill="#757575" stroke="#263238" stroke-linecap="round" stroke-linejoin="round"/>
<path d="M343.969 336.582L347.977 326.938C347.977 326.938 358.595 325.424 367.609 325.178C373.686 325.153 379.739 326.005 385.605 327.712L390.088 338.624L343.969 336.582Z" fill="#757575" stroke="#263238" stroke-linecap="round" stroke-linejoin="round"/>
<path d="M355.012 506.123H407.364L410.849 544.65C410.849 544.65 416.297 619.714 418.047 644.97C420.55 680.592 426.227 787.776 426.227 787.776L402.391 789.8C402.391 789.8 385.671 683.126 379.045 648.014C374.644 624.8 360.722 556.16 360.722 556.16C360.722 556.16 348.141 536.589 355.012 506.123Z" fill="#FF9F1C"/>
<path opacity="0.2" d="M360.722 556.16C360.722 556.16 361.671 557.762 370.799 556.16C379.928 554.558 378.341 589.424 381.482 618.182C384.624 646.941 395.912 663.186 395.912 663.186C395.912 663.186 393.278 681.859 395.912 711.638C398.546 741.417 401.065 775.597 406.726 775.262C412.387 774.928 428.125 772.218 428.125 772.218L438.513 778.395L428.125 800.642L392.264 793.179L380.861 774.928L364.19 644.934L355.372 584.056L357.891 569.518L360.722 556.16Z" fill="black"/>
<path d="M355.012 506.123H407.364L410.849 544.65C410.849 544.65 416.297 619.714 418.047 644.97C420.55 680.592 426.227 787.776 426.227 787.776L402.391 789.8C402.391 789.8 385.671 683.126 379.045 648.014C374.644 624.8 360.722 556.16 360.722 556.16C360.722 556.16 348.141 536.589 355.012 506.123Z" stroke="#263238" stroke-linecap="round" stroke-linejoin="round"/>
<path d="M309.76 509.52C309.76 509.52 346.57 532.523 412.305 514.923L408.526 447.92C408.526 447.92 422.055 394.786 421.401 356.664C421.237 347.125 414.055 340.454 405.286 339.064C396.517 337.674 379.928 333.784 371.257 333.432C361.54 332.957 342.284 335.509 332.582 336.195C323.388 336.846 315.601 343.534 315.257 353.443C314.685 369.072 314.979 395.683 319.2 435.987L309.76 509.52Z" fill="#263238" stroke="#263238" stroke-linecap="round" stroke-linejoin="round"/>
<path d="M328.525 336.582C328.525 336.582 310.235 338.114 307.404 353.338C304.574 368.562 298.439 422.4 298.439 422.4L294.66 430.936L314.472 447.779C314.472 447.779 322.112 436.832 323.437 432.555C328.394 416.592 328.525 336.582 328.525 336.582Z" fill="#263238" stroke="#263238" stroke-linecap="round" stroke-linejoin="round"/>
<path d="M314.472 447.744C310.908 454.733 305.905 460.753 299.846 465.344C289.948 472.701 271.772 475.992 271.772 475.992C270.85 477.041 269.824 477.98 268.713 478.79C265.392 480.092 261.832 480.527 258.324 480.058C256.433 479.185 254.858 477.671 253.842 475.746C253.515 474.936 253.924 473.07 253.842 472.226C253.662 470.131 252.206 466.066 252.435 463.971C252.549 462.845 253.874 460.909 254.071 459.782C254.267 458.656 253.269 455.805 254.071 454.96C254.872 454.115 257.261 454.802 258.308 454.96C259.416 455.234 260.508 455.575 261.58 455.981L266.063 454.96C266.063 454.96 266.603 452.619 267.241 452.426C268.32 452.109 271.02 454.96 271.02 454.96L271.969 457.494C271.969 457.494 286.594 448.87 294.611 435.424L314.472 447.744Z" fill="white" stroke="#263238" stroke-linecap="round" stroke-linejoin="round"/>
<path d="M408.198 339.68C408.198 339.68 419.536 340.93 434.374 354.464L446.644 363.598C446.644 363.598 454.203 366.643 453.565 379.174C452.927 391.706 437.843 396.598 429.663 392.11C421.483 387.622 416.215 385.598 413.303 381.55C409.065 375.637 403.585 360.923 403.863 353.39C403.961 349.87 408.198 339.68 408.198 339.68Z" fill="#263238" stroke="#263238" stroke-linecap="round" stroke-linejoin="round"/>
<path d="M405.057 655.776C403.307 659.12 399.429 662.939 390.922 664.576" stroke="#263238" stroke-linecap="round" stroke-linejoin="round"/>
<path d="M387.192 464.13C388.21 463.955 389.168 463.5 389.973 462.81" stroke="#7F7F7F" stroke-width="0.75" stroke-linecap="round" stroke-linejoin="round"/>
<path d="M366.971 364.003C366.971 364.003 370.423 452.478 383.986 463.109" stroke="#7F7F7F" stroke-width="0.75" stroke-linecap="round" stroke-linejoin="round"/>
<path d="M355.143 476.96C366.914 479.767 379.226 478.087 389.973 472.208" stroke="#7F7F7F" stroke-width="0.75" stroke-linecap="round" stroke-linejoin="round"/>
<path d="M323.437 457.776C331.144 466.116 340.614 472.324 351.037 475.869" stroke="#7F7F7F" stroke-width="0.75" stroke-linecap="round" stroke-linejoin="round"/>
<path d="M297.049 425.586C303.524 433.128 310.96 439.646 319.135 444.946C318.869 446.057 318.474 447.128 317.957 448.131C317.319 448.941 315.175 449.486 314.685 450.349C314.194 451.211 314.39 453.27 313.801 453.869C312.899 454.379 311.917 454.707 310.905 454.837C303.112 449.773 296.111 443.418 290.161 436.005C290.343 434.6 290.712 433.231 291.257 431.939C291.633 431.429 293.024 431.147 293.368 430.619C293.907 429.774 293.368 427.31 294.022 426.536C294.676 425.762 297.049 425.586 297.049 425.586Z" fill="#757575" stroke="#263238" stroke-linecap="round" stroke-linejoin="round"/>
<path d="M320.411 423.386C320.525 424.723 320.656 426.096 320.787 427.469" stroke="#7F7F7F" stroke-width="0.75" stroke-linecap="round" stroke-linejoin="round"/>
<path d="M317.499 368.861C317.499 381.533 318.218 398.147 320.034 419.214" stroke="#7F7F7F" stroke-width="0.75" stroke-linecap="round" stroke-linejoin="round"/>
<path d="M317.695 353.443C317.586 356.529 317.515 360.049 317.482 364.003" stroke="#7F7F7F" stroke-width="0.75" stroke-linecap="round" stroke-linejoin="round"/>
<path d="M403.716 366.766C406.088 372.293 410.423 378.717 417.949 385.792" stroke="#7F7F7F" stroke-width="0.75" stroke-linecap="round" stroke-linejoin="round"/>
<path d="M293.253 768.997C302.267 772.337 311.674 774.293 321.196 774.805C321.445 775.923 321.566 777.07 321.556 778.219C321.343 779.258 319.707 780.824 319.56 781.862C319.413 782.901 320.591 784.59 320.362 785.488C320.133 786.386 318.235 787.794 318.235 787.794C309.143 787.29 300.182 785.247 291.682 781.739C291.228 780.404 290.952 779.005 290.864 777.586C290.963 776.952 292.075 776.002 292.141 775.35C292.255 774.33 290.701 772.429 290.93 771.426C291.159 770.422 293.253 768.997 293.253 768.997Z" fill="#FF9F1C"/>
<path opacity="0.5" d="M293.253 768.997C302.267 772.337 311.674 774.293 321.196 774.805C321.445 775.923 321.566 777.07 321.556 778.219C321.343 779.258 319.707 780.824 319.56 781.862C319.413 782.901 320.591 784.59 320.362 785.488C320.133 786.386 318.235 787.794 318.235 787.794C309.143 787.29 300.182 785.247 291.682 781.739C291.228 780.404 290.952 779.005 290.864 777.586C290.963 776.952 292.075 776.002 292.141 775.35C292.255 774.33 290.701 772.429 290.93 771.426C291.159 770.422 293.253 768.997 293.253 768.997Z" fill="white"/>
<path d="M293.253 768.997C302.267 772.337 311.674 774.293 321.196 774.805C321.445 775.923 321.566 777.07 321.556 778.219C321.343 779.258 319.707 780.824 319.56 781.862C319.413 782.901 320.591 784.59 320.362 785.488C320.133 786.386 318.235 787.794 318.235 787.794C309.143 787.29 300.182 785.247 291.682 781.739C291.228 780.404 290.952 779.005 290.864 777.586C290.963 776.952 292.075 776.002 292.141 775.35C292.255 774.33 290.701 772.429 290.93 771.426C291.159 770.422 293.253 768.997 293.253 768.997Z" stroke="#263238" stroke-linecap="round" stroke-linejoin="round"/>
<path d="M399.413 780.138C408.934 780.554 418.462 779.523 427.716 777.075C428.255 778.072 428.678 779.136 428.976 780.243C429.057 781.299 427.896 783.306 428.043 784.362C428.19 785.418 429.679 786.65 429.761 787.582C429.843 788.515 428.354 790.451 428.354 790.451C419.506 792.764 410.374 793.566 401.294 792.827C400.504 791.687 399.87 790.43 399.413 789.096C399.413 788.445 400.149 787.213 400.035 786.562C399.871 785.541 397.892 784.203 397.842 783.182C397.793 782.162 399.413 780.138 399.413 780.138Z" fill="#FF9F1C"/>
<path opacity="0.5" d="M399.413 780.138C408.934 780.554 418.462 779.523 427.716 777.075C428.255 778.072 428.678 779.136 428.976 780.243C429.057 781.299 427.896 783.306 428.043 784.362C428.19 785.418 429.679 786.65 429.761 787.582C429.843 788.515 428.354 790.451 428.354 790.451C419.506 792.764 410.374 793.566 401.294 792.827C400.504 791.687 399.87 790.43 399.413 789.096C399.413 788.445 400.149 787.213 400.035 786.562C399.871 785.541 397.892 784.203 397.842 783.182C397.793 782.162 399.413 780.138 399.413 780.138Z" fill="white"/>
<path d="M399.413 780.138C408.934 780.554 418.462 779.523 427.716 777.075C428.255 778.072 428.678 779.136 428.976 780.243C429.057 781.299 427.896 783.306 428.043 784.362C428.19 785.418 429.679 786.65 429.761 787.582C429.843 788.515 428.354 790.451 428.354 790.451C419.506 792.764 410.374 793.566 401.294 792.827C400.504 791.687 399.87 790.43 399.413 789.096C399.413 788.445 400.149 787.213 400.035 786.562C399.871 785.541 397.892 784.203 397.842 783.182C397.793 782.162 399.413 780.138 399.413 780.138Z" stroke="#263238" stroke-linecap="round" stroke-linejoin="round"/>
<path d="M397.99 521.558C397.99 521.558 397.532 544.438 406.333 544.808" stroke="#263238" stroke-linecap="round" stroke-linejoin="round"/>
<path d="M329.572 287.179C330.832 303.019 349.401 315.603 349.401 315.603C350.429 314.92 351.576 314.47 352.771 314.279C353.966 314.088 355.185 314.162 356.354 314.494C356.239 308.035 363.437 302.702 363.437 302.702C363.437 302.702 359.887 303.582 356.893 298.514C353.9 293.445 354.292 285.067 360.787 286.07C362.579 286.279 364.252 287.133 365.536 288.494C366.819 289.855 367.636 291.644 367.855 293.568L373.172 290.048C370.57 286.757 371.159 282.304 372.812 277.235C374.464 272.166 371.29 271.515 372.223 268.435C372.157 268.558 361.965 279.294 329.572 287.179Z" fill="#757575" stroke="#263238" stroke-linecap="round" stroke-linejoin="round"/>
</svg>
