<svg width="821" height="934" viewBox="0 0 821 934" fill="none" xmlns="http://www.w3.org/2000/svg">
<path d="M569.417 51.6931H234.45C224.022 51.6931 215.569 60.1461 215.569 70.5734V201.509C215.569 211.936 224.022 220.389 234.45 220.389H569.417C579.844 220.389 588.297 211.936 588.297 201.509V70.5734C588.297 60.1461 579.844 51.6931 569.417 51.6931Z" fill="#FF9F1C"/>
<path d="M215.569 190.728V251.618L249.537 212.517" fill="#FF9F1C"/>
<path d="M569.446 51.6931H234.364C231.886 51.6931 229.432 52.1817 227.143 53.1308C224.854 54.08 222.775 55.4712 221.024 57.2247C219.273 58.9783 217.885 61.0599 216.939 63.3504C215.993 65.6409 215.509 68.0953 215.512 70.5734V251.618L242.663 220.389H569.446C571.924 220.389 574.377 219.9 576.666 218.951C578.955 218.002 581.035 216.611 582.786 214.857C584.537 213.104 585.925 211.022 586.87 208.732C587.816 206.441 588.301 203.987 588.297 201.509V70.5734C588.301 68.0953 587.816 65.6409 586.87 63.3504C585.925 61.0599 584.537 58.9783 582.786 57.2247C581.035 55.4712 578.955 54.08 576.666 53.1308C574.377 52.1817 571.924 51.6931 569.446 51.6931Z" fill="#FF9F1C"/>
<path opacity="0.1" d="M569.446 51.6931H234.364C231.886 51.6931 229.432 52.1817 227.143 53.1308C224.854 54.08 222.775 55.4712 221.024 57.2247C219.273 58.9783 217.885 61.0599 216.939 63.3504C215.993 65.6409 215.509 68.0953 215.512 70.5734V251.618L242.663 220.389H569.446C571.924 220.389 574.377 219.9 576.666 218.951C578.955 218.002 581.035 216.611 582.786 214.857C584.537 213.104 585.925 211.022 586.87 208.732C587.816 206.441 588.301 203.987 588.297 201.509V70.5734C588.301 68.0953 587.816 65.6409 586.87 63.3504C585.925 61.0599 584.537 58.9783 582.786 57.2247C581.035 55.4712 578.955 54.08 576.666 53.1308C574.377 52.1817 571.924 51.6931 569.446 51.6931Z" fill="#FF9F1C"/>
<path d="M502.452 144.241H261.772C259.987 144.241 258.275 143.531 257.012 142.269C255.75 141.007 255.041 139.295 255.041 137.51V137.51C255.049 135.73 255.761 134.025 257.022 132.769C258.284 131.513 259.992 130.808 261.772 130.808H502.452C504.232 130.808 505.94 131.513 507.201 132.769C508.463 134.025 509.175 135.73 509.183 137.51V137.51C509.183 138.394 509.009 139.269 508.67 140.086C508.332 140.902 507.836 141.644 507.211 142.269C506.586 142.894 505.844 143.39 505.028 143.728C504.211 144.066 503.336 144.241 502.452 144.241V144.241Z" fill="white"/>
<path d="M502.452 175.156H261.772C260.888 175.156 260.013 174.982 259.196 174.644C258.379 174.305 257.637 173.81 257.012 173.185C256.387 172.56 255.892 171.818 255.553 171.001C255.215 170.184 255.041 169.309 255.041 168.425V168.425C255.049 166.645 255.761 164.941 257.022 163.684C258.284 162.428 259.992 161.723 261.772 161.723H502.452C504.232 161.723 505.94 162.428 507.201 163.684C508.463 164.941 509.175 166.645 509.183 168.425V168.425C509.183 169.309 509.009 170.184 508.67 171.001C508.332 171.818 507.836 172.56 507.211 173.185C506.586 173.81 505.844 174.305 505.028 174.644C504.211 174.982 503.336 175.156 502.452 175.156V175.156Z" fill="white"/>
<path d="M275.205 113.325C288.562 113.325 299.39 102.497 299.39 89.1398C299.39 75.7828 288.562 64.9548 275.205 64.9548C261.848 64.9548 251.02 75.7828 251.02 89.1398C251.02 102.497 261.848 113.325 275.205 113.325Z" fill="white"/>
<path d="M569.417 279.996H234.45C224.022 279.996 215.569 288.449 215.569 298.876V429.811C215.569 440.238 224.022 448.691 234.45 448.691H569.417C579.844 448.691 588.297 440.238 588.297 429.811V298.876C588.297 288.449 579.844 279.996 569.417 279.996Z" fill="#FF9F1C"/>
<path d="M215.569 419.002V479.921L249.537 440.791" fill="#FF9F1C"/>
<path d="M569.445 279.996H234.364C229.364 279.996 224.569 281.982 221.034 285.517C217.498 289.053 215.512 293.848 215.512 298.847V479.921L242.663 448.549H569.445C574.445 448.549 579.24 446.563 582.776 443.027C586.311 439.492 588.297 434.697 588.297 429.697V298.847C588.297 293.848 586.311 289.053 582.776 285.517C579.24 281.982 574.445 279.996 569.445 279.996Z" fill="#FF9F1C"/>
<path opacity="0.1" d="M569.445 279.996H234.364C229.364 279.996 224.569 281.982 221.034 285.517C217.498 289.053 215.512 293.848 215.512 298.847V479.921L242.663 448.549H569.445C574.445 448.549 579.24 446.563 582.776 443.027C586.311 439.492 588.297 434.697 588.297 429.697V298.847C588.297 293.848 586.311 289.053 582.776 285.517C579.24 281.982 574.445 279.996 569.445 279.996Z" fill="#FF9F1C"/>
<path d="M502.452 372.514H261.772C259.992 372.514 258.284 371.809 257.022 370.553C255.761 369.297 255.049 367.592 255.041 365.812V365.812C255.041 364.027 255.75 362.315 257.012 361.053C258.275 359.791 259.987 359.082 261.772 359.082H502.452C503.336 359.082 504.211 359.256 505.028 359.594C505.844 359.932 506.586 360.428 507.211 361.053C507.836 361.678 508.332 362.42 508.67 363.237C509.009 364.053 509.183 364.928 509.183 365.812V365.812C509.175 367.592 508.463 369.297 507.201 370.553C505.94 371.809 504.232 372.514 502.452 372.514V372.514Z" fill="white"/>
<path d="M502.452 403.43H261.772C259.992 403.43 258.284 402.725 257.022 401.469C255.761 400.213 255.049 398.508 255.041 396.728V396.728C255.041 394.943 255.75 393.231 257.012 391.969C258.275 390.706 259.987 389.997 261.772 389.997H502.452C503.336 389.997 504.211 390.171 505.028 390.51C505.844 390.848 506.586 391.344 507.211 391.969C507.836 392.594 508.332 393.336 508.67 394.152C509.009 394.969 509.183 395.844 509.183 396.728V396.728C509.175 398.508 508.463 400.213 507.201 401.469C505.94 402.725 504.232 403.43 502.452 403.43V403.43Z" fill="white"/>
<path d="M275.205 341.599C288.562 341.599 299.39 330.771 299.39 317.414C299.39 304.057 288.562 293.229 275.205 293.229C261.848 293.229 251.02 304.057 251.02 317.414C251.02 330.771 261.848 341.599 275.205 341.599Z" fill="white"/>
<path d="M292.26 899.079C437.281 899.079 554.843 781.516 554.843 636.495C554.843 491.475 437.281 373.912 292.26 373.912C147.239 373.912 29.6759 491.475 29.6759 636.495C29.6759 781.516 147.239 899.079 292.26 899.079Z" fill="#FF9F1C"/>
<path d="M292.26 900.391C240.066 900.391 189.044 884.914 145.647 855.917C102.25 826.919 68.4255 785.705 48.4519 737.484C28.4782 689.263 23.2522 636.203 33.4347 585.012C43.6172 533.821 68.7508 486.8 105.657 449.893C142.564 412.987 189.585 387.853 240.776 377.671C291.967 367.488 345.027 372.714 393.248 392.688C441.469 412.661 482.683 446.486 511.681 489.883C540.678 533.28 556.155 584.302 556.155 636.495C556.072 706.459 528.242 773.534 478.77 823.006C429.298 872.478 362.224 900.308 292.26 900.391V900.391ZM292.26 375.195C240.579 375.195 190.06 390.52 147.089 419.232C104.118 447.944 70.6268 488.754 50.8496 536.5C31.0724 584.247 25.8978 636.785 35.9801 687.473C46.0625 738.16 70.9489 784.719 107.492 821.263C144.036 857.806 190.595 882.693 241.282 892.775C291.97 902.857 344.508 897.683 392.255 877.905C440.001 858.128 480.811 824.637 509.523 781.666C538.235 738.696 553.56 688.176 553.56 636.495C553.492 567.215 525.94 500.792 476.952 451.803C427.963 402.815 361.54 375.263 292.26 375.195V375.195Z" fill="#FFF7EB" stroke="#FFF7EB" stroke-width="8"/>
<path d="M222.699 809.184C200.486 800.988 180.126 788.453 162.807 772.308C145.336 755.514 131.798 735.06 123.164 712.416C113.374 687.025 108.525 659.998 108.876 632.788C108.689 609.554 112.788 586.486 120.968 564.739C128.364 544.791 139.441 526.41 153.624 510.551C181.651 479.82 217.893 457.76 258.064 446.98C277.774 441.693 298.091 439.008 318.498 438.995C335.43 438.933 352.307 440.944 368.75 444.984C384.64 448.917 399.849 455.214 413.869 463.664C427.724 472.005 440.138 482.531 450.631 494.837C461.61 508.058 469.982 523.243 475.301 539.585C481.46 558.189 484.496 577.684 484.285 597.281C484.072 634.98 470.569 671.397 446.154 700.124C435.6 712.177 423.06 722.334 409.078 730.155C397.045 737.134 383.428 740.924 369.52 741.164C359.974 741.279 350.651 738.275 342.968 732.608C339.089 729.759 335.932 726.041 333.748 721.752C331.564 717.463 330.414 712.722 330.391 707.91C314.115 730.84 292.098 742.305 264.338 742.305C241.732 742.305 223.669 734.576 210.15 719.118C196.632 703.66 189.901 684.647 189.958 662.078C190.02 644.909 193.01 627.875 198.8 611.712C204.464 595.369 212.581 579.983 222.87 566.08C233.083 552.37 246.127 541.018 261.116 532.797C276.063 524.353 292.946 519.931 310.113 519.963C322.04 519.842 333.808 522.715 344.337 528.319C354.597 533.761 362.917 542.251 368.151 552.618L370.376 545.374C371.393 542.331 373.115 539.572 375.401 537.32C377.687 535.069 380.472 533.39 383.531 532.42C386.589 531.449 389.833 531.215 392.999 531.737C396.165 532.258 399.162 533.521 401.748 535.421C403.398 536.767 404.707 538.484 405.569 540.431C406.431 542.379 406.822 544.502 406.71 546.629C406.713 548.667 406.375 550.691 405.712 552.618L370.319 670.263C366.326 683.725 364.33 692.956 364.33 697.956C364.33 706.436 368.655 710.667 377.306 710.648C388.6 710.648 399.694 705.457 410.589 695.076C422.328 683.363 431.386 669.245 437.141 653.693C443.917 636.68 447.383 618.53 447.351 600.218C447.517 584.084 445.16 568.024 440.364 552.618C436.387 539.334 430.039 526.879 421.626 515.856C413.639 505.812 403.993 497.208 393.106 490.416C382.236 483.571 370.375 478.444 357.941 475.215C345.202 471.894 332.091 470.217 318.926 470.224C302.187 470.245 285.533 472.597 269.444 477.211C252.925 481.939 237.179 489.038 222.699 498.288C208.097 507.509 194.874 518.753 183.427 531.685C171.621 545.301 162.418 560.972 156.276 577.915C149.447 596.388 146.026 615.946 146.18 635.64C145.81 658.969 150.045 682.142 158.643 703.831C165.982 722.64 177.637 739.463 192.668 752.943C207.158 765.552 223.897 775.315 242.007 781.719C261.098 788.477 281.221 791.855 301.472 791.701C323.119 791.74 344.645 788.46 365.299 781.976C367.384 781.272 369.574 780.934 371.773 780.978C373.864 780.893 375.949 781.262 377.884 782.059C379.819 782.857 381.558 784.064 382.982 785.598C385.717 788.44 387.241 792.234 387.231 796.179C387.502 799.353 386.614 802.516 384.731 805.086C382.849 807.655 380.1 809.455 376.993 810.154C351.216 818.04 324.434 822.152 297.479 822.36C271.958 822.551 246.617 818.086 222.699 809.184V809.184ZM312.822 696.017C323.576 688.258 331.57 677.266 335.638 664.645L358.454 584.39L356.943 581.138C355.492 578.493 353.741 576.024 351.724 573.78C348.996 570.647 346.031 567.729 342.854 565.053C338.772 561.766 334.136 559.236 329.164 557.581C316.252 553.01 302.088 553.499 289.522 558.95C282.689 561.894 276.41 565.984 270.955 571.042C265.262 576.346 260.199 582.289 255.868 588.753C251.347 595.446 247.524 602.584 244.46 610.058C241.39 617.505 239.013 625.219 237.359 633.102C235.725 640.598 234.884 648.245 234.849 655.918C234.819 660.837 235.114 665.753 235.733 670.634C236.263 674.957 237.218 679.218 238.585 683.354C239.792 687.099 241.51 690.659 243.69 693.935C245.702 696.967 248.231 699.621 251.162 701.778C254.281 704.057 257.789 705.748 261.515 706.769C265.896 707.988 270.429 708.573 274.976 708.509C288.628 708.655 301.941 704.261 312.822 696.017V696.017Z" fill="#FFF7EB"/>
<path d="M649.358 415.665C649.358 415.665 640.802 431.579 639.548 433.804C638.293 436.028 633.701 448.064 635.07 450.916C636.439 453.768 637.751 455.393 640.46 455.85C643.17 456.306 645.394 461.24 649.872 462.124C652.691 462.683 655.554 462.988 658.428 463.037C659.132 463.555 659.946 463.903 660.806 464.057C661.667 464.21 662.551 464.164 663.39 463.921C666.071 463.037 668.324 461.696 670.121 454.053C671.219 450.268 671.52 446.296 671.005 442.388L670.207 426.959L649.358 415.665Z" fill="white"/>
<path d="M661.793 465.575C660.438 465.557 659.115 465.162 657.972 464.434C655.155 464.358 652.35 464.043 649.587 463.493C647.024 462.795 644.729 461.344 642.999 459.329C642.229 458.409 641.251 457.686 640.147 457.219C638.681 456.891 637.322 456.196 636.199 455.198C635.077 454.2 634.227 452.932 633.73 451.515C631.876 447.836 637.266 434.745 638.264 433.091C639.576 430.895 647.961 415.152 648.047 414.981C648.234 414.652 648.54 414.407 648.902 414.296C649.25 414.157 649.638 414.157 649.986 414.296L670.806 425.562C671.019 425.684 671.198 425.858 671.328 426.067C671.457 426.276 671.533 426.514 671.547 426.759L672.346 442.16C672.868 446.203 672.547 450.311 671.405 454.224C669.636 461.839 667.326 463.949 663.733 465.147C663.113 465.391 662.458 465.535 661.793 465.575ZM649.958 417.604C647.904 421.426 641.915 432.634 640.774 434.545C639.205 437.141 635.441 448.463 636.325 450.231C637.751 453.083 638.835 454.11 640.689 454.424C642.377 454.923 643.877 455.916 644.995 457.276C646.342 458.899 648.137 460.09 650.157 460.698C652.875 461.224 655.632 461.52 658.399 461.582C658.73 461.582 659.051 461.693 659.312 461.896C659.824 462.267 660.412 462.519 661.034 462.633C661.656 462.746 662.296 462.719 662.906 462.552C664.873 461.896 666.927 461.211 668.61 453.711C669.645 450.119 669.946 446.356 669.494 442.645L668.724 427.815L649.958 417.604Z" fill="#2E353A"/>
<path d="M698.812 844.178C698.812 844.178 686.634 864 686.634 868.791C686.634 873.582 703.404 882.395 710.591 885.589C717.778 888.784 730.555 891.293 740.936 892.776C751.317 894.259 772.878 898.48 766.604 890.381C760.33 882.281 721.771 860.948 720.174 858.41C718.195 856.04 715.978 853.88 713.557 851.964L698.812 844.178Z" fill="white"/>
<path d="M761.414 896.598C755.327 896.351 749.266 895.674 743.275 894.573L740.708 894.174C726.22 891.949 715.896 889.496 710.021 886.873C708.994 886.416 685.208 875.778 685.208 868.791C685.208 863.743 696.331 845.49 697.586 843.408C697.78 843.105 698.08 842.884 698.428 842.789C698.776 842.694 699.146 842.732 699.468 842.895L714.213 850.709C716.86 852.734 719.262 855.06 721.371 857.64C722.056 858.438 728.33 862.374 734.405 866.196C747.353 874.267 763.438 884.334 767.602 889.525C769.114 891.407 769.485 893.033 768.686 894.373C767.888 895.714 765.378 896.598 761.414 896.598ZM699.24 846.06C694.62 853.704 687.975 865.768 687.975 868.876C687.975 871.985 700.181 879.514 711.076 884.363C716.78 886.873 726.819 889.24 741.079 891.436L743.617 891.835C748.865 892.662 764.836 895.2 766.148 892.976C766.148 892.976 766.148 892.405 765.292 891.35C761.442 886.53 744.9 876.178 732.808 868.534C723.083 862.459 719.603 860.235 718.89 859.18C716.998 856.922 714.876 854.867 712.559 853.048L699.24 846.06Z" fill="#2E353A"/>
<path d="M717.892 875.408L722.17 881.796C726.771 888.777 733.02 894.517 740.366 898.509C751.774 904.669 769.342 911.714 784.686 907.493C809.84 900.562 746.526 862.374 746.526 862.374C746.526 862.374 723.967 878.06 717.892 875.408Z" fill="white"/>
<path d="M774.704 910.202C762.041 910.202 749.036 904.897 739.681 899.764C732.142 895.672 725.719 889.797 720.972 882.652L716.694 876.235C716.516 875.99 716.42 875.696 716.42 875.393C716.42 875.091 716.516 874.796 716.694 874.552C716.895 874.314 717.167 874.147 717.47 874.075C717.773 874.003 718.091 874.03 718.377 874.153C722.056 875.75 736.516 867.564 745.614 861.262C745.841 861.107 746.109 861.024 746.384 861.024C746.658 861.024 746.926 861.107 747.154 861.262C751.916 864.114 793.67 889.782 791.873 902.787C791.474 905.639 789.021 907.806 784.971 908.947C781.62 909.823 778.167 910.246 774.704 910.202V910.202ZM720.687 877.005L723.339 881.026C727.824 887.794 733.894 893.365 741.022 897.254C752.658 903.528 769.542 910.173 784.315 906.123C788.764 904.869 789.049 902.929 789.135 902.302C790.418 892.976 759.56 872.014 746.555 864.085C742.02 867.108 728.387 876.092 720.687 877.005Z" fill="#2E353A"/>
<path d="M725.136 878.431C732.066 888.913 742.565 896.524 754.683 899.849C775.36 905.753 781.292 904.27 785.713 898.366" fill="white"/>
<path d="M774.419 905.04C767.578 904.653 760.818 903.368 754.312 901.218C741.812 897.842 730.99 889.985 723.91 879.144C723.813 878.983 723.75 878.805 723.724 878.62C723.697 878.435 723.708 878.246 723.756 878.065C723.804 877.884 723.888 877.715 724.002 877.567C724.117 877.419 724.26 877.296 724.423 877.204C724.753 877.016 725.144 876.964 725.512 877.06C725.88 877.156 726.195 877.392 726.391 877.718C733.171 887.84 743.347 895.205 755.082 898.48C775.246 904.184 780.75 902.758 784.572 897.51C784.803 897.214 785.14 897.019 785.513 896.966C785.885 896.913 786.263 897.006 786.568 897.225C786.871 897.452 787.071 897.79 787.124 898.164C787.178 898.539 787.08 898.919 786.853 899.222C785.457 901.18 783.578 902.744 781.4 903.763C779.221 904.782 776.817 905.222 774.419 905.04V905.04Z" fill="#2E353A"/>
<path d="M688.203 865.14C688.203 865.14 711.019 881.482 722.17 881.796Z" fill="white"/>
<path d="M722.056 883.222C710.648 882.908 688.26 866.965 687.319 866.309C687.018 866.082 686.817 865.747 686.758 865.375C686.7 865.002 686.788 864.622 687.005 864.313C687.11 864.16 687.245 864.029 687.402 863.929C687.559 863.828 687.734 863.76 687.917 863.728C688.1 863.696 688.288 863.701 688.469 863.743C688.651 863.785 688.822 863.862 688.973 863.971C689.201 864.142 711.589 880.085 722.142 880.37C722.522 880.385 722.882 880.548 723.143 880.826C723.405 881.103 723.547 881.472 723.539 881.853C723.532 882.04 723.488 882.224 723.409 882.394C723.33 882.565 723.219 882.718 723.081 882.845C722.944 882.972 722.782 883.071 722.606 883.135C722.43 883.2 722.243 883.229 722.056 883.222V883.222Z" fill="#2E353A"/>
<path d="M638.663 421.141C638.663 421.141 658.913 454.709 663.248 462.495C667.583 470.281 722.227 532.768 743.902 586.557C765.577 640.346 786.426 688.887 785.541 704.516C784.657 720.145 713.5 851.964 713.5 851.964L698.755 844.178C698.755 844.178 721.286 720.116 718.719 707.111C716.152 694.106 636.496 564.853 636.496 564.853C636.496 564.853 599.192 538.843 583.591 508.469" fill="#2E353A"/>
<path d="M641.544 505.018C641.544 505.018 630.279 529.289 630.279 532.768C630.279 536.248 693.593 722.74 711.817 765.235C723.353 792.456 733.481 820.252 742.162 848.513C742.162 848.513 749.121 857.069 743.902 865.853C738.683 874.637 717.892 880.598 713.557 872.784C709.222 864.969 666.699 824.3 648.503 783.459C630.307 742.618 604.268 673.286 589.495 647.276C570.034 613.972 552.661 579.491 537.474 544.034C518.366 498.943 498.716 450.06 498.716 450.06C524.47 452.212 550.397 449.306 575.035 441.504C614.963 428.499 632.075 403.601 632.075 403.601C632.075 403.601 642.228 429.554 644.824 434.574" fill="#2E353A"/>
<path d="M647.505 578.258C647.308 578.255 647.116 578.194 646.953 578.082C646.791 577.97 646.665 577.813 646.592 577.63L626.628 525.724C626.559 525.531 626.55 525.322 626.601 525.124C626.651 524.926 626.76 524.747 626.913 524.611L649.273 505.446C649.463 505.27 649.712 505.172 649.972 505.172C650.231 505.172 650.48 505.27 650.67 505.446C650.845 505.631 650.942 505.876 650.942 506.131C650.942 506.385 650.845 506.63 650.67 506.815L628.824 525.553L648.531 576.889C648.626 577.131 648.623 577.401 648.521 577.641C648.42 577.88 648.229 578.071 647.989 578.172L647.505 578.258Z" fill="white"/>
<path d="M627.512 526.323C627.269 526.325 627.033 526.233 626.856 526.066C626.757 525.975 626.679 525.865 626.625 525.742C626.571 525.62 626.543 525.487 626.542 525.353C626.542 525.21 626.542 509.553 619.527 499.685C617.787 497.147 616.389 495.15 615.22 493.525C611.569 488.334 610.457 486.765 609.801 484.17C609.349 481.135 609.349 478.05 609.801 475.015C609.85 474.763 609.991 474.539 610.197 474.386C610.403 474.233 610.658 474.162 610.914 474.188C611.041 474.206 611.165 474.248 611.276 474.314C611.387 474.38 611.484 474.467 611.561 474.57C611.638 474.674 611.694 474.792 611.724 474.917C611.755 475.043 611.761 475.173 611.741 475.3C611.338 478.09 611.338 480.924 611.741 483.714C612.311 485.938 613.281 487.307 616.874 492.412C618.015 494.038 619.441 496.034 621.181 498.573C627.512 507.671 628.396 520.733 628.539 524.469L669.066 522.9C669.324 522.899 669.573 522.996 669.763 523.17C669.953 523.345 670.071 523.584 670.093 523.841C670.1 523.97 670.082 524.098 670.038 524.219C669.994 524.34 669.926 524.451 669.838 524.544C669.75 524.638 669.643 524.712 669.525 524.763C669.407 524.814 669.28 524.84 669.151 524.84L627.626 526.437L627.512 526.323Z" fill="white"/>
<path d="M763.324 710.961C745.271 710.961 722.341 699.268 721.314 698.755C721.088 698.634 720.918 698.427 720.843 698.181C720.768 697.935 720.794 697.67 720.915 697.443C720.973 697.328 721.052 697.226 721.15 697.142C721.247 697.058 721.36 696.994 721.482 696.955C721.604 696.915 721.733 696.9 721.861 696.91C721.988 696.92 722.113 696.956 722.227 697.015C722.484 697.158 748.551 710.448 766.405 708.879C766.534 708.868 766.665 708.882 766.789 708.922C766.913 708.962 767.027 709.026 767.126 709.112C767.224 709.197 767.305 709.301 767.362 709.418C767.42 709.535 767.453 709.662 767.46 709.792C767.472 709.919 767.458 710.048 767.42 710.17C767.382 710.292 767.32 710.406 767.238 710.504C767.155 710.602 767.055 710.683 766.941 710.742C766.827 710.801 766.703 710.836 766.576 710.847C765.52 710.933 764.437 710.961 763.324 710.961Z" fill="white"/>
<path d="M760.9 726.02H760.672C744.672 721.999 726.705 707.282 725.935 706.655C725.76 706.47 725.663 706.225 725.663 705.97C725.663 705.716 725.76 705.471 725.935 705.286C726.015 705.186 726.114 705.103 726.226 705.042C726.339 704.981 726.462 704.943 726.589 704.93C726.717 704.916 726.845 704.928 726.968 704.965C727.09 705.002 727.205 705.062 727.304 705.143C727.475 705.286 745.699 720.23 761.271 724.109C761.395 724.142 761.511 724.199 761.613 724.278C761.715 724.356 761.8 724.454 761.863 724.565C761.927 724.676 761.968 724.799 761.984 724.927C762 725.054 761.99 725.183 761.955 725.307C761.901 725.536 761.762 725.737 761.567 725.869C761.371 726.001 761.133 726.055 760.9 726.02Z" fill="white"/>
<path d="M626.714 511.15C626.559 511.15 626.406 511.114 626.267 511.045C626.129 510.975 626.008 510.875 625.915 510.751C625.84 510.645 625.787 510.525 625.759 510.398C625.732 510.271 625.73 510.14 625.754 510.012C625.778 509.884 625.827 509.763 625.899 509.655C625.971 509.546 626.063 509.454 626.172 509.382C630.022 506.701 636.125 501.539 636.125 499.001C636.125 497.318 634.043 495.322 631.819 493.297C629.357 491.24 627.322 488.721 625.83 485.881C624.375 482.488 619.156 469.169 620.126 465.917C620.164 465.795 620.227 465.682 620.31 465.585C620.393 465.487 620.494 465.406 620.608 465.348C620.722 465.29 620.846 465.255 620.974 465.245C621.102 465.235 621.23 465.25 621.352 465.29C621.601 465.375 621.806 465.554 621.923 465.789C622.041 466.024 622.061 466.295 621.979 466.545C621.38 468.285 624.489 477.953 627.541 485.026C628.936 487.604 630.814 489.889 633.074 491.757C635.726 494.295 638.008 496.462 638.008 498.972C638.008 503.364 628.311 510.18 627.199 510.951C627.057 511.058 626.89 511.127 626.714 511.15V511.15Z" fill="white"/>
<path d="M531.685 516.74C531.479 516.748 531.276 516.691 531.105 516.576C530.934 516.461 530.804 516.294 530.734 516.1C530.664 515.906 530.657 515.695 530.716 515.497C530.774 515.299 530.894 515.125 531.058 515L539.043 508.612C546.715 502.508 551.449 486.908 551.506 486.737C551.585 486.49 551.758 486.283 551.986 486.16C552.215 486.038 552.483 486.009 552.733 486.081C552.98 486.16 553.187 486.332 553.309 486.561C553.432 486.79 553.46 487.058 553.389 487.307C553.189 487.963 548.398 503.649 540.27 510.123L532.284 516.512C532.117 516.656 531.905 516.736 531.685 516.74V516.74Z" fill="white"/>
<path d="M721.286 876.662C721.143 876.657 721.003 876.622 720.875 876.558C720.747 876.494 720.634 876.403 720.544 876.292C710.334 863.775 701.114 850.482 692.966 836.535C681.928 816.799 650.186 762.811 649.843 762.383C646.903 755.886 644.721 749.073 643.341 742.077C643.141 740.993 642.999 739.995 642.856 739.225C641.801 732.038 641.344 729.071 631.79 722.911C622.236 716.751 621.637 706.027 620.838 694.534C620.667 691.824 620.468 689.029 620.154 686.263C618.871 674.855 588.582 623.519 566.479 586.215C561.46 577.659 556.897 570.015 553.189 563.655C533.396 529.603 519.707 484.826 519.564 484.37C519.492 484.12 519.521 483.853 519.643 483.624C519.766 483.395 519.973 483.222 520.22 483.143C520.342 483.104 520.47 483.091 520.597 483.103C520.724 483.115 520.848 483.153 520.96 483.214C521.072 483.275 521.17 483.359 521.249 483.46C521.328 483.56 521.385 483.676 521.418 483.799C521.56 484.256 535.193 528.833 554.872 562.657C558.579 569.017 563.143 576.746 568.162 585.217C590.379 622.72 620.781 674.113 622.093 686.035C622.407 688.887 622.607 691.739 622.806 694.42C623.576 705.828 624.232 715.753 632.845 721.285C643.141 727.902 643.654 731.353 644.795 738.911C644.795 739.852 645.08 740.822 645.252 741.905C646.606 748.694 648.73 755.306 651.583 761.613C651.84 762.098 683.611 816.086 694.677 835.765C702.773 849.598 711.927 862.785 722.056 875.208C722.137 875.307 722.197 875.421 722.234 875.544C722.271 875.666 722.283 875.795 722.27 875.922C722.256 876.049 722.218 876.173 722.157 876.285C722.096 876.397 722.013 876.497 721.913 876.577C721.719 876.673 721.499 876.703 721.286 876.662V876.662Z" fill="white"/>
<path d="M498.716 450.06C498.716 450.06 500.541 470.252 508.527 476.641C516.512 483.029 540.469 488.619 573.21 482.345C605.951 476.07 641.886 448.121 645.081 438.424C648.275 428.727 632.018 403.63 632.018 403.63C632.018 403.63 613.138 430.438 560.433 439.223C507.728 448.007 498.716 450.06 498.716 450.06Z" fill="white"/>
<path d="M545.46 486.48C526.152 486.48 512.919 482.003 507.614 477.753C499.258 471.051 497.375 451.058 497.29 450.203C497.26 449.863 497.353 449.523 497.551 449.246C497.75 448.969 498.042 448.772 498.374 448.691C498.744 448.691 508.042 446.381 560.205 437.683C611.541 429.127 630.649 402.945 630.849 402.689C630.983 402.504 631.159 402.354 631.362 402.25C631.565 402.145 631.79 402.091 632.018 402.09V402.09C632.252 402.095 632.481 402.157 632.685 402.272C632.889 402.386 633.061 402.549 633.188 402.746C634.899 405.369 649.729 428.813 646.421 438.766C642.913 449.262 606.151 477.24 573.467 483.628C564.244 485.476 554.866 486.431 545.46 486.48V486.48ZM500.284 451.201C500.826 455.593 503.137 470.481 509.411 475.529C516.541 481.233 539.385 487.393 572.925 480.833C605.894 474.388 640.888 446.41 643.74 437.854C645.993 431.066 636.781 413.925 631.876 405.997C626.799 412.072 606.436 432.891 560.576 440.506C518.309 447.579 504.106 450.26 500.284 451.201V451.201Z" fill="#2E353A"/>
<path d="M709.222 254.328C696.188 245.772 594.714 166.714 585.16 163.235C575.606 159.755 556.64 163.235 556.64 163.235C556.64 163.235 497.832 170.422 485.511 175.384C484.342 175.84 457.847 191.07 456.991 191.869C447.437 199.683 405.655 218.906 394.418 243.205C381.67 270.698 493.696 436.228 498.915 450.089C504.135 463.95 531.485 467.372 556.64 463.892C581.795 460.413 603.869 455.336 622.093 434.488C625.397 430.336 628.167 425.784 630.336 420.941C632.94 415.53 633.604 409.387 632.218 403.544C625.715 376.45 609.117 298.334 598.165 246.684C616.418 258.463 654.378 282.391 676.452 290.833C705.942 302.241 728.501 294.313 728.501 284.758C728.501 275.204 722.227 262.998 709.222 254.328Z" fill="white"/>
<path d="M674 271.183C656.612 269.467 639.771 264.154 624.546 255.582C624.546 255.582 647.105 245.173 647.961 239.953C648.817 234.734 616.732 239.098 621.067 237.358C625.402 235.618 631.476 231.283 621.067 231.283C612.768 230.738 604.592 228.989 596.796 226.093L597.965 246.599C607.89 253.016 623.633 262.969 639.434 272.096C654.295 279.909 669.598 286.851 685.265 292.887C685.265 292.887 704.345 274.662 674 271.183Z" fill="#FF9F1C"/>
<g style="mix-blend-mode:multiply">
<path d="M556.44 463.864L559.663 463.408C566.622 460.042 578.401 457.932 589.866 455.08C607.206 450.745 588.126 450.745 559.492 436C530.858 421.255 519.564 399.58 493.554 368.35C467.543 337.121 457.134 321.492 462.353 318.041C467.572 314.59 451.943 314.562 445.868 311.082C439.794 307.603 454.424 307.631 466.688 295.482C478.951 283.332 443.244 298.077 439.793 297.222C436.343 296.366 443.244 285.072 443.244 285.072L418.09 311.082L478.809 415.18L482.288 417.776L486.281 423.48L497.689 448.007C498.145 448.862 498.459 449.575 498.659 450.06C503.907 463.949 531.286 467.372 556.44 463.864Z" fill="#FF9F1C"/>
</g>
<path d="M441.448 221.33C460.642 218.478 514.145 248.994 514.145 248.994C484.741 229.03 459.016 210.321 441.419 201.879L408.992 224.695L406.767 226.777C410.532 226.036 424.963 223.668 441.448 221.33Z" fill="#FF9F1C"/>
<path opacity="0.5" d="M674 271.183C656.612 269.467 639.771 264.154 624.546 255.582C624.546 255.582 647.105 245.173 647.961 239.953C648.817 234.734 616.732 239.098 621.067 237.358C625.402 235.618 631.476 231.283 621.067 231.283C612.768 230.738 604.592 228.989 596.796 226.093L597.965 246.599C607.89 253.016 623.633 262.969 639.434 272.096C654.295 279.909 669.598 286.851 685.265 292.887C685.265 292.887 704.345 274.662 674 271.183Z" fill="white"/>
<path opacity="0.5" d="M556.44 463.864L559.663 463.408C566.622 460.042 578.401 457.932 589.866 455.08C607.206 450.745 588.126 450.745 559.492 436C530.858 421.255 519.564 399.58 493.554 368.35C467.543 337.121 457.134 321.492 462.353 318.041C467.572 314.59 451.943 314.562 445.868 311.082C439.794 307.603 454.424 307.631 466.688 295.482C478.951 283.332 443.244 298.077 439.793 297.222C436.343 296.366 443.244 285.072 443.244 285.072L418.09 311.082L478.809 415.18L482.288 417.776L486.281 423.48L497.689 448.007C498.145 448.862 498.459 449.575 498.659 450.06C503.907 463.949 531.286 467.372 556.44 463.864Z" fill="white"/>
<path opacity="0.5" d="M441.448 221.33C460.642 218.478 514.145 248.994 514.145 248.994C484.741 229.03 459.016 210.321 441.419 201.879L408.992 224.695L406.767 226.777C410.532 226.036 424.963 223.668 441.448 221.33Z" fill="white"/>
<path d="M538.188 466.573C518.965 466.573 501.653 461.982 497.375 450.574C496.121 447.208 487.679 433.462 476.984 416.179C431.551 342.483 383.837 262.17 392.935 242.577C401.491 224.096 426.788 208.838 443.53 198.742C447.795 196.318 451.918 193.652 455.879 190.756C456.906 189.929 483.458 174.643 484.884 174.072C497.261 169.081 553.959 162.122 556.383 161.837C557.096 161.695 575.863 158.329 585.645 161.837C591.976 164.147 635.355 196.974 670.207 223.355C689.087 237.615 705.372 249.992 709.992 253.073C724.537 262.769 729.728 275.717 729.728 284.616C729.623 286.267 729.11 287.867 728.234 289.271C727.358 290.675 726.146 291.839 724.708 292.658C716.295 298.362 697.9 300.501 675.74 292.031C660.253 286.099 634.129 271.468 600.076 249.593C611.484 303.924 627.141 377.106 633.387 403.116C634.857 409.283 634.163 415.768 631.419 421.483C629.191 426.46 626.314 431.121 622.863 435.344C603.812 457.105 580.625 461.896 556.554 465.204C550.471 466.081 544.334 466.539 538.188 466.573V466.573ZM573.552 163.121C567.942 163.205 562.346 163.71 556.811 164.632C556.127 164.632 497.974 171.848 485.939 176.696C484.37 177.409 458.959 192.04 457.676 192.981C453.616 195.965 449.377 198.698 444.984 201.166C428.557 211.091 403.744 226.093 395.531 243.946C386.29 263.91 446.867 362.048 479.408 414.838C491.016 433.661 498.687 446.21 500.056 449.718C505.104 463.179 532.712 465.832 556.241 462.581C579.77 459.329 602.415 454.68 620.81 433.661C624.043 429.611 626.746 425.164 628.853 420.428C631.304 415.316 631.928 409.517 630.621 404C624.232 377.42 608.147 301.699 596.568 247.14C596.512 246.862 596.539 246.573 596.645 246.309C596.752 246.046 596.933 245.819 597.167 245.657C597.4 245.504 597.672 245.422 597.951 245.422C598.23 245.422 598.503 245.504 598.736 245.657C634.043 268.473 661.023 283.675 676.766 289.664C697.814 297.735 715.553 295.824 723.083 290.633C724.119 290.049 725.003 289.227 725.663 288.236C726.322 287.245 726.737 286.112 726.876 284.929C726.876 276.773 722.027 264.823 708.423 255.754C703.718 252.616 687.404 240.267 668.495 225.95C635.612 201.081 590.607 166.999 584.675 164.832C581.086 163.659 577.328 163.081 573.552 163.121V163.121Z" fill="#2E353A"/>
<path d="M408.165 225.437C408.165 225.437 397.755 236.845 393.705 242.121C371.973 270.042 302.812 359.509 302.042 366.725C301.272 373.94 304.552 378.789 321.464 385.291C338.376 391.794 451.515 278.427 451.515 278.427" fill="white"/>
<g style="mix-blend-mode:multiply" opacity="0.8">
<path d="M408.336 225.779L406.881 226.72C404.771 229.059 400.208 234.164 396.671 238.356L344.137 307.26C344.137 307.26 342.512 309.086 339.945 312.109C320.238 338.376 303.069 362.076 302.013 366.297C302.013 366.439 302.013 366.582 302.013 366.696C301.329 373.512 304.637 378.703 321.464 385.177C324.459 386.318 330.391 383.751 338.177 378.76C334.221 377.965 330.442 376.457 327.025 374.311C317.471 368.236 325.286 362.161 325.286 362.161C325.286 362.161 337.692 367.124 349.927 370.461C352.465 368.55 355.118 366.496 357.827 364.329C355.221 362.622 352.751 360.715 350.44 358.625C340.031 349.099 331.361 339.545 331.361 339.545L410.874 228.574L408.336 225.779Z" fill="#FF9F1C"/>
</g>
<path opacity="0.5" d="M408.336 225.779L406.881 226.72C404.771 229.059 400.208 234.164 396.671 238.356L344.137 307.26C344.137 307.26 342.512 309.086 339.945 312.109C320.238 338.376 303.069 362.076 302.013 366.297C302.013 366.439 302.013 366.582 302.013 366.696C301.329 373.512 304.637 378.703 321.464 385.177C324.459 386.318 330.391 383.751 338.177 378.76C334.221 377.965 330.442 376.457 327.025 374.311C317.471 368.236 325.286 362.161 325.286 362.161C325.286 362.161 337.692 367.124 349.927 370.461C352.465 368.55 355.118 366.496 357.827 364.329C355.221 362.622 352.751 360.715 350.44 358.625C340.031 349.099 331.361 339.545 331.361 339.545L410.874 228.574L408.336 225.779Z" fill="white"/>
<path d="M322.776 386.945C322.135 386.953 321.498 386.847 320.894 386.632C305.151 380.557 299.618 375.224 300.559 366.668C301.329 359.566 358.512 285.1 392.507 241.351C396.557 236.16 406.625 225.066 407.052 224.61C407.174 224.458 407.326 224.333 407.497 224.242C407.669 224.151 407.858 224.096 408.052 224.081C408.245 224.066 408.44 224.09 408.624 224.153C408.808 224.215 408.977 224.315 409.122 224.445C409.266 224.576 409.381 224.734 409.462 224.911C409.543 225.088 409.586 225.28 409.59 225.474C409.594 225.668 409.558 225.861 409.485 226.041C409.411 226.221 409.302 226.384 409.163 226.52C409.163 226.52 398.725 237.928 394.76 243.119C339.831 313.792 303.953 362.418 303.496 366.981C302.84 373.056 305.664 377.79 322.034 384.093C333.813 388.628 405.341 322.832 450.545 277.514C450.814 277.246 451.178 277.095 451.558 277.095C451.938 277.095 452.302 277.246 452.57 277.514C452.839 277.783 452.99 278.147 452.99 278.527C452.99 278.906 452.839 279.271 452.57 279.539C441.248 290.719 344.622 386.945 322.776 386.945Z" fill="#2E353A"/>
<path d="M637.095 220.246L597.965 246.599C603.669 245.8 630.706 236.217 630.706 236.217" fill="white"/>
<path d="M597.965 248.025C597.679 248.029 597.398 247.943 597.162 247.78C596.927 247.616 596.749 247.382 596.653 247.112C596.533 246.815 596.519 246.486 596.612 246.18C596.706 245.873 596.901 245.608 597.167 245.429L636.325 219.077C636.478 218.969 636.65 218.894 636.833 218.854C637.015 218.815 637.204 218.812 637.387 218.847C637.57 218.881 637.745 218.952 637.901 219.056C638.056 219.159 638.19 219.292 638.293 219.448C638.501 219.766 638.575 220.154 638.501 220.527C638.426 220.901 638.208 221.23 637.893 221.444L605.808 243.062C615.648 240.039 630.05 234.962 630.25 234.877C630.628 234.752 631.041 234.783 631.396 234.962C631.752 235.141 632.022 235.454 632.147 235.832C632.271 236.211 632.241 236.623 632.062 236.978C631.883 237.334 631.569 237.604 631.191 237.729C630.079 238.1 603.841 247.369 598.165 248.167L597.965 248.025Z" fill="#2E353A"/>
<path d="M635.498 236.845C635.166 236.838 634.847 236.719 634.593 236.506C634.339 236.293 634.165 236 634.1 235.675C634.034 235.305 634.116 234.923 634.33 234.613C634.544 234.303 634.871 234.091 635.241 234.021L644.025 232.424C644.399 232.357 644.785 232.439 645.099 232.652C645.413 232.865 645.632 233.193 645.708 233.565C645.745 233.752 645.744 233.946 645.704 234.133C645.665 234.32 645.589 234.497 645.48 234.654C645.371 234.811 645.231 234.944 645.069 235.046C644.908 235.148 644.727 235.217 644.539 235.248L635.754 236.845H635.498Z" fill="#2E353A"/>
<path d="M345.592 339.032C339.554 338.852 333.548 339.991 327.995 342.369Z" fill="white"/>
<path d="M327.995 343.88C327.617 343.952 327.226 343.871 326.907 343.654C326.589 343.438 326.37 343.103 326.298 342.725C326.226 342.347 326.308 341.956 326.524 341.637C326.741 341.319 327.075 341.1 327.453 341.028C333.211 338.555 339.442 337.377 345.706 337.577C345.894 337.592 346.076 337.643 346.244 337.728C346.411 337.814 346.561 337.931 346.682 338.074C346.804 338.218 346.897 338.383 346.954 338.562C347.012 338.741 347.034 338.93 347.018 339.117C346.982 339.493 346.801 339.84 346.513 340.085C346.226 340.33 345.855 340.453 345.478 340.429C339.673 340.261 333.902 341.361 328.566 343.652C328.395 343.77 328.2 343.848 327.995 343.88V343.88Z" fill="#2E353A"/>
<path d="M430.867 299.931C430.867 299.931 452.856 293.2 458.674 288.723Z" fill="white"/>
<path d="M430.867 301.357C430.489 301.41 430.105 301.31 429.8 301.08C429.495 300.85 429.294 300.509 429.241 300.131C429.188 299.752 429.288 299.369 429.518 299.064C429.748 298.759 430.089 298.558 430.468 298.505C430.667 298.505 452.257 291.831 457.818 287.553C458.117 287.323 458.495 287.221 458.869 287.269C459.244 287.317 459.583 287.512 459.815 287.81C460.037 288.112 460.135 288.488 460.087 288.86C460.039 289.232 459.85 289.571 459.558 289.806C453.569 294.398 432.207 300.958 431.295 301.214C431.163 301.291 431.018 301.339 430.867 301.357V301.357Z" fill="#2E353A"/>
<path d="M464.064 286.498C464.064 286.498 467.658 283.361 468.998 283.361Z" fill="white"/>
<path d="M464.064 287.924C463.86 287.922 463.658 287.878 463.472 287.795C463.285 287.711 463.118 287.59 462.98 287.439C462.717 287.168 462.57 286.805 462.57 286.427C462.57 286.049 462.717 285.686 462.98 285.414C464.593 283.751 466.622 282.549 468.855 281.935C469.234 281.935 469.596 282.085 469.864 282.353C470.131 282.62 470.281 282.983 470.281 283.361C470.274 283.737 470.122 284.095 469.856 284.361C469.59 284.627 469.231 284.78 468.855 284.787C467.386 285.527 466.04 286.489 464.863 287.639C464.633 287.816 464.354 287.916 464.064 287.924V287.924Z" fill="#2E353A"/>
<path d="M597.965 248.025C597.612 248.02 597.273 247.887 597.011 247.651C596.749 247.415 596.581 247.092 596.539 246.741L592.974 210.093C592.956 209.906 592.974 209.717 593.028 209.536C593.083 209.356 593.172 209.189 593.291 209.043C593.41 208.897 593.557 208.777 593.723 208.688C593.889 208.599 594.071 208.543 594.258 208.524C594.445 208.506 594.634 208.524 594.814 208.578C594.995 208.633 595.162 208.722 595.308 208.841C595.454 208.96 595.574 209.107 595.663 209.273C595.752 209.439 595.808 209.621 595.826 209.808L599.42 246.485C599.44 246.67 599.422 246.858 599.367 247.037C599.313 247.216 599.223 247.382 599.104 247.526C598.984 247.669 598.837 247.788 598.671 247.873C598.505 247.959 598.323 248.01 598.137 248.025H597.965Z" fill="#2E353A"/>
<path d="M301.956 367.096C301.956 367.096 296.908 386.404 329.279 394.418C344.651 398.211 446.382 422.938 446.382 422.938C446.382 422.938 455.479 403.43 450.289 403.43C445.098 403.43 351.296 341.057 351.296 341.057" fill="white"/>
<path d="M317.072 390.168L435.031 420.285L438.168 412.813C438.168 412.813 393.734 403.915 365.984 389.997C338.234 376.079 336.466 380.443 326.94 374.397C317.414 368.35 325.2 362.247 325.2 362.247C325.2 362.247 351.239 372.657 365.128 373.513C379.017 374.368 360.793 368.322 350.383 358.768C346.077 354.832 342.084 350.868 338.975 347.616L301.899 367.067C301.899 367.067 298.306 381.07 317.072 390.168Z" fill="#FF9F1C"/>
<path opacity="0.5" d="M317.072 390.168L435.031 420.285L438.168 412.813C438.168 412.813 393.734 403.915 365.984 389.997C338.234 376.079 336.466 380.443 326.94 374.397C317.414 368.35 325.2 362.247 325.2 362.247C325.2 362.247 351.239 372.657 365.128 373.513C379.017 374.368 360.793 368.322 350.383 358.768C346.077 354.832 342.084 350.868 338.975 347.616L301.899 367.067C301.899 367.067 298.306 381.07 317.072 390.168Z" fill="white"/>
<path d="M446.382 424.592H446.039C446.039 424.592 344.309 399.751 328.936 396.072C316.102 392.906 307.404 387.516 303.097 380.357C300.589 376.391 299.691 371.616 300.587 367.01C300.688 366.647 300.925 366.337 301.25 366.145C301.574 365.954 301.961 365.896 302.327 365.983C302.689 366.083 302.997 366.322 303.184 366.648C303.371 366.974 303.422 367.36 303.325 367.723V367.723C302.68 371.622 303.492 375.622 305.607 378.96C309.514 385.52 317.614 390.368 329.621 393.22C343.881 396.785 434.346 418.888 445.583 421.569C449.091 413.811 451.287 406.282 450.289 405.113C444.87 405.113 366.297 352.921 350.611 342.369C350.297 342.154 350.079 341.825 350.004 341.452C349.93 341.079 350.004 340.691 350.212 340.372C350.315 340.217 350.449 340.084 350.604 339.98C350.76 339.877 350.934 339.806 351.118 339.772C351.301 339.737 351.49 339.74 351.672 339.779C351.855 339.819 352.027 339.894 352.18 340.002C389.113 364.614 445.754 401.491 450.346 402.204C450.811 402.211 451.267 402.331 451.675 402.555C452.082 402.779 452.429 403.099 452.685 403.487C455.052 407.223 449.433 419.943 447.637 423.765C447.525 424.006 447.349 424.211 447.127 424.357C446.905 424.503 446.647 424.585 446.382 424.592V424.592Z" fill="#2E353A"/>
<path d="M450.289 403.516C450.289 403.516 483.686 419.145 486.281 423.48C488.876 427.815 494.837 450.345 494.837 457.304C494.837 464.263 493.982 464.235 489.647 464.235C485.311 464.235 474.018 447.75 471.422 444.271C468.827 440.791 462.866 440.791 454.938 435.715C452.729 434.313 450.83 432.474 449.358 430.311C447.887 428.148 446.874 425.707 446.382 423.137L450.289 403.516Z" fill="white"/>
<path d="M489.76 465.661C486.024 465.661 479.864 458.217 471.764 447.037C471.194 446.239 470.738 445.583 470.395 445.155C468.766 443.535 466.724 442.391 464.492 441.847C460.894 440.568 457.458 438.874 454.253 436.799C451.854 435.289 449.79 433.303 448.191 430.963C446.591 428.622 445.49 425.978 444.956 423.194C444.941 423.052 444.941 422.909 444.956 422.767L448.863 403.23C448.907 403.02 448.996 402.822 449.124 402.65C449.252 402.478 449.416 402.335 449.604 402.232C449.799 402.134 450.014 402.083 450.232 402.083C450.45 402.083 450.665 402.134 450.859 402.232C456.563 404.856 484.798 418.261 487.479 422.738C490.16 427.216 496.349 450.146 496.349 457.304C496.349 464.463 495.037 465.661 489.76 465.661ZM447.836 423.08C448.345 425.42 449.315 427.634 450.692 429.593C452.068 431.552 453.822 433.217 455.85 434.488C458.878 436.437 462.123 438.026 465.518 439.223C468.264 439.936 470.748 441.421 472.677 443.501C473.019 443.929 473.504 444.584 474.074 445.412C484.513 459.843 488.334 462.866 489.76 462.866C493.525 462.866 493.525 462.866 493.525 457.361C493.525 450.631 487.593 428.471 484.969 424.25C483.315 421.398 464.064 411.701 451.23 405.626L447.836 423.08Z" fill="#2E353A"/>
<path d="M436.029 421.112C435.888 421.139 435.742 421.139 435.601 421.112C435.421 421.058 435.254 420.967 435.11 420.846C434.966 420.725 434.847 420.576 434.762 420.408C434.677 420.241 434.626 420.057 434.614 419.87C434.601 419.682 434.626 419.493 434.688 419.316L439.879 403.202C439.932 403.018 440.021 402.846 440.142 402.697C440.262 402.547 440.412 402.424 440.581 402.334C440.75 402.244 440.936 402.189 441.127 402.173C441.318 402.156 441.51 402.178 441.693 402.238C441.875 402.297 442.043 402.393 442.188 402.519C442.332 402.645 442.45 402.799 442.534 402.971C442.617 403.144 442.665 403.332 442.675 403.523C442.684 403.715 442.655 403.906 442.589 404.086L437.398 420.2C437.288 420.472 437.099 420.705 436.855 420.868C436.61 421.031 436.322 421.116 436.029 421.112V421.112Z" fill="#2E353A"/>
<path d="M689.258 281.992C689.258 281.992 680.702 311.481 677.108 328.822C673.515 346.162 649.359 415.579 649.359 415.579L670.178 428.585C670.178 428.585 716.152 333.328 724.908 312.451C733.664 291.574 730.983 276.003 722.313 267.333" fill="white"/>
<path d="M670.178 430.096C669.915 430.09 669.658 430.011 669.436 429.868L648.617 416.863C648.34 416.693 648.13 416.433 648.021 416.127C647.913 415.821 647.911 415.487 648.018 415.18C648.246 414.496 672.317 345.677 675.711 328.651C679.105 311.624 687.832 281.992 687.832 281.678C687.938 281.3 688.19 280.979 688.532 280.787C688.874 280.594 689.279 280.546 689.657 280.651C690.035 280.757 690.356 281.009 690.549 281.351C690.741 281.694 690.79 282.098 690.684 282.477C690.684 282.762 681.985 312.109 678.563 329.192C675.312 345.477 654.349 405.883 651.127 415.066L669.636 426.617C675.34 414.61 715.582 331.046 723.567 311.881C731.268 293.371 730.441 277.657 721.286 268.331C721.021 268.066 720.872 267.707 720.872 267.333C720.872 266.958 721.021 266.599 721.286 266.334C721.551 266.07 721.91 265.921 722.284 265.921C722.658 265.921 723.018 266.07 723.282 266.334C733.321 276.345 734.377 293.371 726.134 312.993C717.578 333.613 671.946 428.328 671.461 429.298C671.377 429.478 671.254 429.638 671.101 429.766C670.949 429.894 670.77 429.987 670.577 430.039L670.178 430.096Z" fill="#2E353A"/>
<path d="M653.294 405.655C654.863 405.655 674.627 416.549 674.627 416.549Z" fill="#2E353A"/>
<path d="M516.512 248.994C511.721 248.196 486.139 231.426 468.57 217.85C451.002 204.275 441.419 201.879 441.419 201.879L429.441 209.865C427.628 204.028 428.202 197.711 431.038 192.297C435.829 183.512 452.599 174.728 469.369 168.34C486.139 161.951 505.304 156.504 517.311 156.504C529.318 156.504 532.484 161.295 532.484 167.684C532.484 174.072 532.484 194.036 528.491 209.209C524.498 224.381 516.512 248.994 516.512 248.994Z" fill="white"/>
<g style="mix-blend-mode:multiply">
<path d="M508.983 165.716C508.983 165.716 501.596 187.847 494.21 194.493C488.506 199.276 482.333 203.47 475.786 207.013C475.786 207.013 471.365 191.526 460.299 191.526C449.234 191.526 432.264 198.913 432.264 198.913C432.264 198.913 432.264 193.009 446.268 185.623L460.299 178.265L492.755 165.716H508.983Z" fill="#FF9F1C"/>
</g>
<path opacity="0.5" d="M508.983 165.716C508.983 165.716 501.596 187.847 494.21 194.493C488.506 199.276 482.333 203.47 475.786 207.013C475.786 207.013 471.365 191.526 460.299 191.526C449.234 191.526 432.264 198.913 432.264 198.913C432.264 198.913 432.264 193.009 446.268 185.623L460.299 178.265L492.755 165.716H508.983Z" fill="white"/>
<path d="M516.512 250.42H516.256C510.951 249.536 484.684 232.11 467.772 219.048C453.084 207.64 444.015 204.246 441.704 203.505L430.296 211.12C430.11 211.232 429.902 211.306 429.687 211.335C429.471 211.364 429.251 211.349 429.042 211.291C428.837 211.22 428.651 211.104 428.497 210.951C428.344 210.798 428.228 210.612 428.157 210.407C427.18 207.328 426.825 204.086 427.114 200.869C427.403 197.652 428.33 194.524 429.84 191.669C435.544 181.003 456.82 171.705 468.941 167.056C478.467 163.434 502.252 154.992 517.425 154.992C528.576 154.992 534.024 159.099 534.024 167.598C534.024 174.158 534.024 194.15 529.974 209.494C525.924 224.838 518.052 249.251 517.967 249.422C517.876 249.73 517.682 249.998 517.417 250.18C517.152 250.362 516.833 250.447 516.512 250.42V250.42ZM441.419 200.453H441.761C442.161 200.453 451.857 203.077 469.454 216.681C485.967 229.43 508.983 244.602 515.571 247.198C517.282 241.836 523.699 221.53 526.979 208.639C530.943 193.666 530.943 173.958 530.943 167.484C530.943 162.664 529.318 157.73 517.197 157.73C506.873 157.73 489.589 162.065 469.768 169.623C449.947 177.181 436.114 185.708 432.179 192.924C429.819 197.406 429.112 202.575 430.182 207.526L440.507 200.653C440.779 200.484 441.101 200.413 441.419 200.453Z" fill="#2E353A"/>
<path d="M445.412 147.634C454.768 157.952 461.335 170.488 464.492 184.054C469.683 206.613 502.309 233.137 510.124 233.137C517.938 233.137 517.396 194.464 514.801 183.199C512.206 171.933 501.796 141.559 501.796 141.559C501.796 141.559 460.271 121.595 445.412 147.634Z" fill="white"/>
<path d="M510.238 234.563C501.853 234.563 468.485 207.298 463.208 184.368C460.081 171.071 453.645 158.779 444.499 148.632C444.279 148.411 444.138 148.124 444.097 147.815C444.056 147.506 444.117 147.192 444.271 146.921C459.501 120.055 502.081 140.048 502.509 140.276C502.682 140.357 502.836 140.472 502.964 140.614C503.091 140.756 503.188 140.923 503.25 141.103C503.678 142.329 513.717 171.648 516.313 182.885C518.566 192.753 519.621 225.18 513.632 232.738C513.247 233.285 512.739 233.734 512.15 234.051C511.561 234.368 510.906 234.543 510.238 234.563ZM447.294 147.434C456.443 157.795 462.864 170.273 465.975 183.74C471.165 206.129 503.593 231.711 510.238 231.711C510.238 231.711 510.78 231.711 511.379 230.941C516.227 224.866 515.913 193.865 513.518 183.512C511.122 173.159 502.11 146.864 500.741 142.586C495.978 140.476 460.756 125.731 447.294 147.434Z" fill="#2E353A"/>
<g style="mix-blend-mode:multiply">
<path d="M508.983 165.716C508.983 165.716 501.596 187.847 494.21 194.493C488.506 199.276 482.333 203.47 475.786 207.013C475.786 207.013 471.365 191.526 460.299 191.526C449.234 191.526 432.264 198.913 432.264 198.913C432.264 198.913 432.264 193.009 446.268 185.623L460.299 178.265L492.755 165.716H508.983Z" fill="#FF9F1C"/>
</g>
<path opacity="0.5" d="M508.983 165.716C508.983 165.716 501.596 187.847 494.21 194.493C488.506 199.276 482.333 203.47 475.786 207.013C475.786 207.013 471.365 191.526 460.299 191.526C449.234 191.526 432.264 198.913 432.264 198.913C432.264 198.913 432.264 193.009 446.268 185.623L460.299 178.265L492.755 165.716H508.983Z" fill="white"/>
<path d="M445.412 147.634C454.768 157.952 461.335 170.488 464.492 184.054C469.682 206.613 502.309 233.137 510.124 233.137C517.938 233.137 517.396 194.464 514.801 183.199C512.206 171.933 501.796 141.559 501.796 141.559C501.796 141.559 460.271 121.595 445.412 147.634Z" fill="white"/>
<path d="M510.238 234.563C501.853 234.563 468.485 207.298 463.208 184.368C460.081 171.071 453.645 158.779 444.499 148.632C444.279 148.411 444.138 148.124 444.097 147.815C444.056 147.506 444.117 147.192 444.271 146.921C459.501 120.055 502.081 140.048 502.509 140.276C502.682 140.357 502.836 140.472 502.964 140.614C503.091 140.756 503.189 140.923 503.25 141.103C503.678 142.329 513.717 171.648 516.313 182.885C518.566 192.753 519.621 225.18 513.632 232.738C513.247 233.285 512.739 233.734 512.15 234.051C511.561 234.368 510.907 234.543 510.238 234.563ZM447.294 147.434C456.443 157.795 462.864 170.273 465.975 183.74C471.165 206.129 503.593 231.711 510.238 231.711C510.238 231.711 510.78 231.711 511.379 230.941C516.227 224.866 515.913 193.865 513.518 183.512C511.122 173.159 502.11 146.864 500.741 142.586C495.978 140.476 460.756 125.731 447.294 147.434Z" fill="#2E353A"/>
<path d="M418.004 105.824C424.123 122.464 431.691 138.535 440.621 153.852C453.797 175.498 479.237 187.762 493.354 182.115C507.472 176.468 517.083 158.244 513.318 130.009C512.491 123.791 507.072 121.253 505.333 115.749C499.087 95.7848 492.727 76.5338 490.531 69.2042C487.679 59.764 465.091 50.3524 441.562 56.9406C418.033 63.5287 414.24 83.2075 418.004 105.824Z" fill="white"/>
<path d="M496.178 88.5408C496.178 88.5408 487.622 94.9007 468.399 91.2217C449.177 87.5426 435.943 88.3697 436.685 93.4462C437.426 98.5228 438.909 105.225 438.909 105.225C438.909 105.225 415.837 85.261 436.742 79.9563C451.8 76.049 460.499 81.9812 464.178 82.8083C467.857 83.6354 496.178 88.5408 496.178 88.5408Z" fill="#FF9F1C"/>
<path opacity="0.5" d="M496.178 88.5408C496.178 88.5408 487.622 94.9007 468.399 91.2217C449.177 87.5426 435.943 88.3697 436.685 93.4462C437.426 98.5228 438.909 105.225 438.909 105.225C438.909 105.225 415.837 85.261 436.742 79.9563C451.8 76.049 460.499 81.9812 464.178 82.8083C467.857 83.6354 496.178 88.5408 496.178 88.5408Z" fill="white"/>
<path d="M485.482 185.024C470.167 185.024 450.232 172.504 439.394 154.679C430.388 139.274 422.754 123.107 416.578 106.366C416.562 106.29 416.562 106.213 416.578 106.137C411.872 78.0453 419.915 61.4751 441.134 55.543C465.747 48.6411 488.876 58.7943 491.871 68.7478C492.898 72.1987 494.723 78.2449 497.261 85.8598C500.113 94.4158 503.336 104.769 506.644 115.378C507.472 117.489 508.691 119.424 510.238 121.082C512.545 123.503 514.091 126.547 514.687 129.838C518.908 161.523 506.701 178.322 493.867 183.455C491.198 184.508 488.352 185.04 485.482 185.024V185.024ZM419.402 105.453C425.478 121.958 432.979 137.904 441.818 153.11C455.08 174.871 480.149 185.851 492.841 180.774C504.676 176.04 515.913 160.268 511.892 130.18C511.369 127.431 510.073 124.889 508.156 122.85C506.354 120.874 504.967 118.556 504.078 116.034C500.769 105.453 497.432 95.0717 494.694 86.5442C492.27 79.0149 490.331 72.9402 489.276 69.4322C486.88 61.5037 465.804 51.4931 442.047 58.0242C422.425 63.6712 415.038 79.129 419.402 105.453Z" fill="#2E353A"/>
<path d="M434.974 136.882C434.974 136.882 419.887 130.294 418.945 136.882C418.004 143.47 424.649 148.29 431.181 151.142C432.809 152.033 434.666 152.419 436.514 152.252C438.363 152.084 440.12 151.37 441.562 150.201" fill="white"/>
<path d="M435.943 153.652C434.114 153.629 432.308 153.231 430.639 152.482C421.313 148.49 416.664 142.928 417.548 136.825C417.623 136.127 417.868 135.459 418.261 134.877C418.653 134.295 419.182 133.819 419.801 133.488C424.336 130.95 434.403 135.228 435.544 135.741C435.865 135.91 436.11 136.196 436.228 136.539C436.346 136.882 436.329 137.258 436.179 137.589C436.03 137.919 435.761 138.181 435.425 138.32C435.09 138.459 434.714 138.465 434.375 138.337C430.61 136.682 423.68 134.6 421.17 135.969C420.942 136.094 420.749 136.275 420.609 136.494C420.47 136.713 420.388 136.965 420.371 137.224C419.459 143.584 427.102 147.862 431.779 149.859C433.152 150.622 434.718 150.966 436.284 150.849C437.85 150.733 439.348 150.16 440.592 149.203C440.867 148.971 441.218 148.851 441.577 148.867C441.936 148.884 442.276 149.035 442.528 149.291C442.78 149.547 442.926 149.888 442.938 150.247C442.949 150.606 442.824 150.956 442.589 151.228C440.759 152.846 438.385 153.712 435.943 153.652Z" fill="#2E353A"/>
<path d="M496.548 99.6349C496.548 99.6349 479.75 95.6421 486.937 118.03C488.363 122.451 498.145 127.613 498.145 127.613C498.145 127.613 497.347 134.8 493.354 135.599" fill="white"/>
<path d="M493.325 137.025C492.998 137.02 492.682 136.904 492.429 136.697C492.175 136.49 491.999 136.204 491.928 135.884C491.891 135.699 491.891 135.507 491.928 135.322C491.966 135.137 492.04 134.96 492.146 134.804C492.252 134.647 492.388 134.513 492.547 134.41C492.705 134.306 492.883 134.236 493.069 134.201C495.122 133.774 496.178 130.38 496.577 128.497C493.953 127.014 486.937 122.793 485.597 118.572C482.916 110.245 483.144 104.312 486.253 100.947C490.074 96.8117 496.577 98.3232 496.862 98.3802C497.228 98.4683 497.545 98.6977 497.742 99.0183C497.94 99.3389 498.003 99.7247 497.917 100.091C497.877 100.275 497.8 100.448 497.692 100.601C497.583 100.754 497.445 100.884 497.286 100.982C497.126 101.081 496.948 101.146 496.763 101.174C496.577 101.203 496.388 101.193 496.206 101.147C496.206 101.147 491.015 99.9774 488.334 102.886C485.654 105.795 485.996 110.53 488.334 117.688C489.247 120.54 495.265 124.562 498.83 126.444C499.077 126.585 499.279 126.795 499.411 127.048C499.542 127.301 499.598 127.586 499.571 127.87C499.571 128.726 498.516 136.141 493.639 137.11L493.325 137.025Z" fill="#2E353A"/>
<path d="M484.541 151.57C484.541 151.57 472.563 153.966 467.772 148.376Z" fill="white"/>
<path d="M478.809 153.652C476.606 153.827 474.391 153.542 472.305 152.815C470.218 152.088 468.305 150.936 466.688 149.431C466.566 149.289 466.474 149.124 466.416 148.946C466.358 148.767 466.335 148.58 466.35 148.393C466.364 148.206 466.416 148.024 466.501 147.857C466.585 147.69 466.702 147.542 466.845 147.42C466.987 147.298 467.152 147.206 467.33 147.148C467.508 147.09 467.696 147.068 467.883 147.082C468.069 147.097 468.251 147.148 468.418 147.233C468.585 147.318 468.734 147.435 468.855 147.577C473.048 152.482 484.171 150.429 484.285 150.429C484.467 150.388 484.655 150.384 484.839 150.418C485.022 150.452 485.197 150.524 485.352 150.628C485.507 150.732 485.639 150.867 485.74 151.024C485.841 151.181 485.908 151.357 485.939 151.541C485.976 151.725 485.977 151.914 485.942 152.098C485.906 152.282 485.835 152.457 485.731 152.613C485.628 152.769 485.495 152.904 485.34 153.009C485.184 153.113 485.01 153.187 484.827 153.224C482.837 153.539 480.823 153.683 478.809 153.652V153.652Z" fill="#2E353A"/>
<path d="M466.973 114.038C466.973 114.038 458.189 110.843 453.398 114.836C450.833 116.621 448.849 119.12 447.694 122.023" fill="white"/>
<path d="M447.808 123.421H447.465C447.284 123.374 447.113 123.292 446.963 123.18C446.813 123.067 446.686 122.926 446.591 122.764C446.496 122.602 446.433 122.424 446.407 122.238C446.381 122.052 446.392 121.863 446.439 121.681C447.631 118.502 449.734 115.744 452.485 113.752C457.847 109.303 467.087 112.583 467.458 112.726C467.636 112.786 467.801 112.882 467.941 113.008C468.081 113.133 468.195 113.286 468.275 113.456C468.355 113.627 468.399 113.811 468.406 114C468.413 114.188 468.381 114.375 468.314 114.551C468.185 114.906 467.92 115.196 467.578 115.357C467.236 115.517 466.844 115.535 466.488 115.407C466.488 115.407 458.417 112.555 454.31 115.949C452.05 117.588 450.284 119.818 449.205 122.394C449.113 122.693 448.928 122.954 448.676 123.138C448.424 123.323 448.12 123.422 447.808 123.421V123.421Z" fill="#2E353A"/>
<path d="M466.745 127.699C467.886 130.351 467.658 132.975 466.232 133.574C464.806 134.173 462.752 132.547 461.611 129.895C460.47 127.242 460.727 124.647 462.153 124.02C463.579 123.392 465.633 125.132 466.745 127.699Z" fill="#2E353A"/>
<path d="M495.464 113.724C496.605 116.348 496.349 118.971 494.951 119.599C493.554 120.226 491.443 118.544 490.331 115.92C489.219 113.296 489.418 110.644 490.844 110.045C492.27 109.446 494.324 111.1 495.464 113.724Z" fill="#2E353A"/>
<path d="M430.781 140.675C430.781 140.675 440.307 133.745 438.567 127.67C436.827 121.595 433.376 121.595 436.856 118.144C440.335 114.694 442.902 112.925 442.047 107.735C441.191 102.544 427.302 93.8454 431.637 88.6548C435.972 83.4642 434.232 77.2468 469.796 86.031C505.361 94.8151 527.92 80.8403 517.51 67.8352C507.101 54.8301 498.431 53.0903 498.431 53.0903C498.431 53.0903 518.395 44.5344 501.91 35.7217C485.425 26.909 448.121 27.1657 427.302 43.5361C406.482 59.9066 410.817 73.7959 410.817 73.7959C410.817 73.7959 399.552 75.5356 398.668 92.9043C397.783 110.273 430.781 140.675 430.781 140.675Z" fill="#2E353A"/>
<path d="M487.536 82.5801C479.955 82.2618 472.491 80.6009 465.49 77.6747C460.004 75.3351 454.159 73.9463 448.207 73.5678C434.432 73.5678 431.58 81.3823 431.466 81.7245C431.427 81.8463 431.364 81.959 431.281 82.0557C431.198 82.1525 431.096 82.2312 430.981 82.2872C430.866 82.3433 430.741 82.3754 430.614 82.3816C430.486 82.3878 430.359 82.368 430.239 82.3234C430.117 82.2846 430.004 82.222 429.906 82.1392C429.809 82.0564 429.728 81.9551 429.67 81.841C429.612 81.727 429.576 81.6026 429.566 81.4749C429.557 81.3472 429.572 81.2188 429.612 81.0971C429.754 80.7263 432.949 71.5999 448.207 71.5999C454.388 71.9655 460.458 73.4034 466.146 75.8494C475.016 79.0151 484.228 82.2949 495.807 79.7281C502.081 78.3306 505.76 76.0776 506.673 73.083C507.871 69.2328 504.163 65.2114 504.135 65.1544C503.953 64.9726 503.852 64.7265 503.852 64.4699C503.852 64.2133 503.953 63.9672 504.135 63.7854C504.325 63.609 504.574 63.511 504.833 63.511C505.093 63.511 505.342 63.609 505.532 63.7854C505.703 63.9851 510.038 68.6909 508.527 73.6248C507.357 77.361 503.222 80.0418 496.206 81.6104C493.359 82.2401 490.452 82.5652 487.536 82.5801V82.5801Z" fill="white"/>
<path d="M423.908 80.1843C423.648 80.1624 423.407 80.0398 423.237 79.8426C423.066 79.6454 422.979 79.3893 422.995 79.129C422.995 78.9294 424.678 60.1062 441.362 55.8852C451.201 53.404 462.581 55.2578 471.736 56.7408C477.44 57.682 482.545 58.5091 484.684 57.682C484.919 57.6317 485.164 57.6677 485.374 57.7835C485.585 57.8992 485.746 58.087 485.83 58.3123C485.913 58.5376 485.912 58.7853 485.827 59.01C485.742 59.2348 485.58 59.4214 485.368 59.5358C482.745 60.5055 477.754 59.7069 471.422 58.6802C462.438 57.1971 451.259 55.4004 441.847 57.7675C426.503 61.6748 424.963 79.1005 424.935 79.2716C424.927 79.399 424.895 79.5238 424.839 79.6387C424.784 79.7535 424.706 79.8563 424.611 79.9411C424.515 80.0259 424.404 80.091 424.284 80.1328C424.163 80.1745 424.035 80.192 423.908 80.1843V80.1843Z" fill="white"/>
<path d="M412.871 109.617C412.677 109.614 412.489 109.554 412.329 109.446C409.768 107.299 407.783 104.547 406.553 101.44C405.323 98.3324 404.887 94.9675 405.284 91.6494C406.083 79.1006 415.723 78.958 415.837 78.958C416.069 78.9977 416.28 79.1182 416.432 79.2983C416.583 79.4784 416.667 79.7064 416.667 79.942C416.667 80.1775 416.583 80.4055 416.432 80.5856C416.28 80.7657 416.069 80.8862 415.837 80.9259C415.495 80.9259 407.908 81.097 407.281 91.7635C406.895 94.7478 407.258 97.7811 408.339 100.59C409.42 103.398 411.183 105.893 413.47 107.849C413.575 107.92 413.664 108.012 413.733 108.119C413.802 108.225 413.849 108.345 413.87 108.47C413.891 108.596 413.887 108.724 413.857 108.847C413.828 108.971 413.773 109.087 413.698 109.189C413.611 109.328 413.488 109.441 413.343 109.517C413.197 109.592 413.034 109.627 412.871 109.617Z" fill="white"/>
<path d="M418.774 101.517C418.588 101.517 418.405 101.464 418.248 101.362C418.091 101.261 417.967 101.117 417.89 100.947C417.187 99.6457 416.769 98.2092 416.666 96.7335C416.562 95.2579 416.776 93.7773 417.291 92.3908C418.549 89.6724 420.792 87.5321 423.566 86.4016C423.683 86.3512 423.81 86.3253 423.938 86.3254C424.066 86.3256 424.192 86.3519 424.31 86.4026C424.427 86.4533 424.533 86.5274 424.621 86.6204C424.709 86.7134 424.777 86.8234 424.821 86.9435C424.914 87.1818 424.91 87.4476 424.808 87.6827C424.707 87.9178 424.516 88.1032 424.279 88.1984C422.008 89.1602 420.164 90.9134 419.088 93.1323C418.684 94.2713 418.526 95.4828 418.625 96.6872C418.723 97.8915 419.075 99.0614 419.658 100.12C419.766 100.358 419.775 100.629 419.684 100.875C419.593 101.12 419.41 101.32 419.174 101.432C419.048 101.487 418.912 101.517 418.774 101.517Z" fill="white"/>
<path d="M420.97 116.975C420.813 116.972 420.658 116.931 420.52 116.857C420.381 116.783 420.262 116.677 420.172 116.547L416.493 111.414C416.341 111.202 416.28 110.939 416.323 110.682C416.366 110.425 416.509 110.196 416.721 110.045C416.933 109.894 417.196 109.833 417.453 109.875C417.709 109.918 417.939 110.061 418.09 110.273L421.769 115.435C421.914 115.644 421.972 115.901 421.929 116.152C421.886 116.403 421.747 116.627 421.541 116.776C421.38 116.907 421.178 116.978 420.97 116.975V116.975Z" fill="white"/>
</svg>
