<svg width="874" height="874" viewBox="0 0 874 874" fill="none" xmlns="http://www.w3.org/2000/svg">
<path d="M194.605 712.31L223.639 713.149L252.673 712.31C253.914 731.905 250.086 751.885 244.807 761.639C243.561 764.151 241.546 766.202 239.056 767.494C230.491 772.424 216.665 772.424 208.152 767.494C205.621 766.183 203.598 764.068 202.401 761.481C197.157 751.64 193.364 731.818 194.605 712.31Z" fill="white"/>
<path d="M203.188 700.424C191.808 706.979 191.756 717.624 203.048 724.196C214.34 730.769 232.764 730.769 244.091 724.196C255.418 717.624 255.523 706.979 244.231 700.424C232.938 693.869 214.55 693.851 203.188 700.424Z" fill="#EBEBEB"/>
<path d="M207.68 703.028C198.8 708.15 198.765 716.453 207.575 721.574C216.385 726.696 230.719 726.696 239.598 721.574C248.478 716.453 248.513 708.15 239.703 703.028C230.893 697.906 216.542 697.906 207.68 703.028Z" fill="#E0E0E0"/>
<g opacity="0.15">
<path d="M207.68 703.028C198.8 708.15 198.765 716.453 207.575 721.574C216.385 726.696 230.719 726.696 239.598 721.574C248.478 716.453 248.513 708.15 239.703 703.028C230.893 697.906 216.542 697.906 207.68 703.028Z" fill="black"/>
</g>
<path d="M175.919 588.447C241.329 609.86 241.923 653.63 227.17 684.779C223.447 691.089 212.207 694.48 202.401 655.727L219.584 657.93L199.569 647.774L194.325 632.234L211.019 633.475L189.833 624.56C185.939 612.249 181.293 600.188 175.919 588.447V588.447Z" fill="#FF9F1C"/>
<path opacity="0.2" d="M175.919 588.447C241.329 609.86 241.923 653.63 227.17 684.779C223.447 691.089 212.207 694.48 202.401 655.727L219.584 657.93L199.569 647.774L194.325 632.234L211.019 633.475L189.833 624.56C185.939 612.249 181.293 600.188 175.919 588.447V588.447Z" fill="black"/>
<path d="M194.413 599.389C228.918 625.609 232.03 655.587 222.276 686.912C225.719 659.328 229.46 631.43 194.413 599.389Z" fill="white"/>
<path d="M286.672 632.898C222.188 641.97 214.375 682.629 222.922 714.11C225.335 720.596 235.263 725.63 250.89 691.159L234.529 690.355L254.858 684.22L262.287 670.62L246.555 668.995L267.724 664.24C273.385 653.41 279.713 642.943 286.672 632.898V632.898Z" fill="#FF9F1C"/>
<path opacity="0.2" d="M286.672 632.898C222.188 641.97 214.375 682.629 222.922 714.11C225.335 720.596 235.263 725.63 250.89 691.159L234.529 690.355L254.858 684.22L262.287 670.62L246.555 668.995L267.724 664.24C273.385 653.41 279.713 642.943 286.672 632.898V632.898Z" fill="white"/>
<path d="M267.654 640.013C231.19 658.664 223.29 686.108 227.17 716.925C228.534 690.635 229.705 664.03 267.654 640.013Z" fill="white"/>
<path d="M157.04 648.123C216.175 649.102 227.782 684.831 223.587 714.198C222.136 720.316 213.763 725.962 195.881 696.63L210.529 694.078L191.528 690.827L183.313 679.395L197.297 676.161L177.649 674.239C171.323 665.118 164.44 656.397 157.04 648.123V648.123Z" fill="#FF9F1C"/>
<path d="M175.01 652.406C209.97 665.149 220.143 688.992 220.108 717.187C215.93 693.659 211.91 669.816 175.01 652.406Z" fill="white"/>
<path d="M711.733 138.179L711.611 181.914L706.314 184.991L706.454 135.138L711.733 138.179Z" fill="#F0F0F0"/>
<path d="M768.84 214.952L768.823 221.087L706.314 184.991L711.611 181.914L768.84 214.952Z" fill="#F5F5F5"/>
<path d="M699.882 188.662L775.203 232.152L775.378 167.563L700.074 124.108L699.882 188.662ZM706.314 184.991L706.454 135.138L711.698 138.179L768.963 171.304L768.84 215.004V221.139L706.314 184.991Z" fill="#E0E0E0"/>
<path d="M700.074 124.091L705.37 120.997L780.692 164.487L775.378 167.563L700.074 124.091Z" fill="#F5F5F5"/>
<path d="M780.692 164.487L780.499 229.058L775.203 232.152L775.378 167.563L780.692 164.487Z" fill="#F0F0F0"/>
<path d="M711.768 236.33L711.646 280.065L706.349 283.159L706.489 233.288L711.768 236.33Z" fill="#F0F0F0"/>
<path d="M768.875 313.102L768.858 319.237L706.349 283.159L711.646 280.065L768.875 313.102Z" fill="#F5F5F5"/>
<path d="M699.917 286.812L775.238 330.372L775.43 265.801L700.109 222.311L699.917 286.812ZM706.349 283.158L706.489 233.288L711.733 236.33L768.963 269.367L768.84 313.067V319.202L706.349 283.158Z" fill="#E0E0E0"/>
<path d="M700.109 222.241L705.405 219.164L780.727 262.637L775.43 265.731L700.109 222.241Z" fill="#F5F5F5"/>
<path d="M780.727 262.637L780.534 327.208L775.238 330.302L775.43 265.731L780.727 262.637Z" fill="#F0F0F0"/>
<path d="M599.686 183.033V172.405L600.158 172.685L601.05 173.209C608.898 177.946 616.782 185.445 624.106 193.434C625.312 194.762 626.518 196.126 627.707 197.472C633.877 204.464 639.943 212.05 646.148 219.059V236.225L638.667 231.907C628.917 213.274 615.685 196.683 599.686 183.033V183.033Z" fill="#EBEBEB"/>
<path d="M599.564 209.358V195.164C606.1 202.048 611.504 209.925 615.576 218.5L599.564 209.358Z" fill="#EBEBEB"/>
<path d="M615.576 218.5C611.537 209.906 606.163 202.006 599.651 195.094V182.963C615.651 196.635 628.877 213.25 638.614 231.907L615.576 218.5Z" fill="#FAFAFA"/>
<path d="M631.22 168.402L630.137 168.018C628.126 167.301 626.099 166.462 624.071 165.518L623.319 165.151L621.257 164.155C620.068 163.543 618.897 162.914 617.761 162.249C618.949 162.914 620.12 163.543 621.257 164.155L620.837 163.945C619.788 163.403 618.74 162.844 617.708 162.197L617.044 161.865L616.502 161.55C610.845 158.19 605.487 154.347 600.49 150.066L599.791 149.471V131.52C611.188 137.358 622.393 139.158 631.43 136.344C637.631 134.354 642.934 130.245 646.41 124.737L646.323 171.304C641.178 171.046 636.095 170.069 631.22 168.402V168.402Z" fill="#FAFAFA"/>
<path d="M624.141 193.434C616.799 185.393 608.933 177.946 601.085 173.209L600.193 172.685L599.721 172.405V162.127C614.922 171.072 629.005 181.792 641.673 194.063C643.194 195.514 644.697 196.982 646.218 198.398V219.059C639.995 212.067 633.982 204.551 627.777 197.472C626.553 196.126 625.347 194.762 624.141 193.434Z" fill="#FAFAFA"/>
<path d="M599.739 162.127V149.471L600.438 150.066C605.435 154.347 610.792 158.19 616.45 161.55L616.992 161.865L617.673 162.249C618.705 162.844 619.753 163.403 620.802 163.997L621.222 164.207L621.519 164.347L621.222 164.207L623.284 165.203L624.036 165.571C626.064 166.514 628.091 167.319 630.102 168.07L628.965 167.651L630.102 168.07L631.185 168.455C636.056 170.145 641.14 171.146 646.288 171.426L646.201 198.45C644.68 197.035 643.177 195.566 641.656 194.115C629.001 181.829 614.93 171.09 599.739 162.127V162.127Z" fill="#EBEBEB"/>
<path d="M599.879 117.011V103.744C607.063 101.996 612.657 96.7518 615.611 88.9732L631.517 98.1502C628.731 104.095 624.228 109.068 618.589 112.43C612.95 115.792 606.433 117.387 599.879 117.011V117.011Z" fill="#FAFAFA"/>
<path d="M631.465 136.344C622.428 139.158 611.223 137.358 599.826 131.52V117.011C606.383 117.391 612.904 115.797 618.547 112.435C624.189 109.073 628.695 104.098 631.482 98.1502L646.445 106.89V124.825C642.954 130.299 637.653 134.376 631.465 136.344V136.344Z" fill="#EBEBEB"/>
<path d="M596.977 210.861L648.753 240.752L649.137 105.317L597.362 75.4262L596.977 210.861ZM638.649 231.837L615.576 218.5L599.564 209.358V195.164V183.033V172.405V162.127V149.471V131.52V117.011V103.744V79.936L615.209 88.9732L631.115 98.1502L646.078 106.89V124.825L646.323 171.304L646.236 198.328V218.989V236.155L638.649 231.837Z" fill="white"/>
<path d="M599.914 103.744V79.9361L615.558 88.9732C612.691 96.8217 607.098 102.048 599.914 103.744Z" fill="#EBEBEB"/>
<path d="M596.977 210.861L648.753 240.752L648.735 244.335L593.866 212.662L596.977 210.861Z" fill="#CACACA"/>
<path d="M597.362 75.4262L596.977 210.861L593.866 212.662L594.268 73.6432L597.362 75.4262Z" fill="#F0F0F0"/>
<path d="M585.58 217.434L657.073 258.704L657.51 100.493L585.947 59.2222L585.58 217.434ZM593.953 212.662L594.32 73.6432L597.414 75.3912L649.19 105.282L648.805 240.717V244.318L593.953 212.662Z" fill="#E0E0E0"/>
<path d="M585.947 59.2222L591.838 56.0409L663.419 97.3636L657.51 100.545L585.947 59.2222Z" fill="#F5F5F5"/>
<path d="M663.418 97.3636L662.964 255.593L657.073 258.756L657.51 100.545L663.418 97.3636Z" fill="#F0F0F0"/>
<path d="M729.912 154.785L714.303 167.074L714.285 179.083L766.183 209.043L766.218 197.035L756.325 177.405L747.445 184.292L750.574 194.045L746.029 185.393L729.912 154.785Z" fill="#E0E0E0"/>
<path d="M746.973 160.816C744.526 159.418 742.533 160.536 742.533 163.351C742.61 164.882 743.05 166.372 743.816 167.7C744.581 169.028 745.651 170.156 746.938 170.989C749.385 172.405 751.36 171.269 751.378 168.455C751.291 166.926 750.847 165.439 750.082 164.112C749.317 162.786 748.252 161.657 746.973 160.816V160.816Z" fill="#E0E0E0"/>
<path d="M729.947 252.936L714.355 265.224L714.32 277.233L766.218 307.194L766.253 295.202L756.36 275.555L747.48 282.442L750.626 292.196L746.064 283.543L729.947 252.936Z" fill="#E0E0E0"/>
<path d="M747.008 258.984C744.561 257.585 742.568 258.721 742.568 261.518C742.645 263.049 743.085 264.54 743.85 265.868C744.616 267.196 745.686 268.323 746.973 269.157C749.42 270.573 751.413 269.437 751.413 266.622C751.33 265.093 750.888 263.604 750.123 262.277C749.357 260.95 748.29 259.822 747.008 258.984V258.984Z" fill="#E0E0E0"/>
<path d="M82.7678 324.446L82.6979 301.268L70.6192 294.381L70.6716 317.035V317.542L82.7678 324.446Z" fill="#FF9F1C"/>
<path d="M83.5369 592.904L82.7678 324.446L70.6716 317.454L71.4408 585.58C71.3669 586.427 71.5094 587.278 71.8549 588.055C72.2004 588.832 72.7376 589.508 73.416 590.02V590.02L85.3374 597.309C84.7009 596.777 84.2041 596.098 83.8903 595.33C83.5765 594.562 83.4552 593.73 83.5369 592.904V592.904Z" fill="#FF9F1C"/>
<path opacity="0.2" d="M83.5369 592.904L82.7678 324.446L70.6716 317.454L71.4408 585.58C71.3669 586.427 71.5094 587.278 71.8549 588.055C72.2004 588.832 72.7376 589.508 73.416 590.02V590.02L85.3374 597.309C84.7009 596.777 84.2041 596.098 83.8903 595.33C83.5765 594.562 83.4552 593.73 83.5369 592.904V592.904Z" fill="white"/>
<path d="M90.7037 596.995C90.2666 597.256 89.8039 597.473 89.3228 597.641C89.8025 597.47 90.2648 597.253 90.7037 596.995V596.995Z" fill="#455A64"/>
<path d="M82.7503 301.233V287.878C82.8783 285.399 83.5912 282.985 84.8307 280.834C86.0703 278.683 87.8012 276.856 89.8822 275.502L494.369 41.952C495.084 41.4358 495.922 41.1158 496.799 41.0238C497.676 40.9319 498.562 41.071 499.369 41.4276L487.43 34.086C486.603 33.6601 485.672 33.4753 484.745 33.5525C483.818 33.6298 482.931 33.9661 482.186 34.523L77.751 268.073C75.6701 269.427 73.9391 271.254 72.6996 273.405C71.4601 275.556 70.7472 277.97 70.6192 280.449V293.804V294.328L82.6979 301.215L82.7503 301.233Z" fill="#FF9F1C"/>
<path opacity="0.3" d="M82.7503 301.233V287.878C82.8783 285.399 83.5912 282.985 84.8307 280.834C86.0703 278.683 87.8012 276.856 89.8822 275.502L494.369 41.952C495.084 41.4358 495.922 41.1158 496.799 41.0238C497.676 40.9319 498.562 41.071 499.369 41.4276L487.43 34.086C486.603 33.6601 485.672 33.4753 484.745 33.5525C483.818 33.6298 482.931 33.9661 482.186 34.523L77.751 268.073C75.6701 269.427 73.9391 271.254 72.6996 273.405C71.4601 275.556 70.7472 277.97 70.6192 280.449V293.804V294.328L82.6979 301.215L82.7503 301.233Z" fill="white"/>
<path opacity="0.2" d="M82.7678 324.446L82.6979 301.268L70.6192 294.381L70.6716 317.035V317.542L82.7678 324.446Z" fill="black"/>
<path opacity="0.2" d="M82.7678 324.446L82.6979 301.268L70.6192 294.381L70.6716 317.035V317.542L82.7678 324.446Z" fill="white"/>
<path d="M494.369 41.952C498.302 39.6796 501.536 41.515 501.536 46.0598L501.676 59.432L82.7503 301.233V287.878C82.8783 285.399 83.5912 282.985 84.8307 280.834C86.0703 278.683 87.8012 276.856 89.8822 275.502L494.369 41.952Z" fill="#FF9F1C"/>
<path d="M467.24 64.0467C469.355 62.8231 471.086 63.802 471.086 66.2317C471.019 67.5561 470.639 68.8458 469.977 69.9946C469.314 71.1433 468.388 72.1183 467.275 72.8391C465.16 74.0627 463.43 73.0839 463.43 70.6541C463.496 69.3297 463.876 68.0401 464.539 66.8913C465.201 65.7426 466.127 64.7676 467.24 64.0467V64.0467Z" fill="white"/>
<path d="M478.952 57.2994C481.067 56.0758 482.78 57.0547 482.798 59.4844C482.722 60.8107 482.334 62.1003 481.666 63.2484C480.997 64.3965 480.068 65.3707 478.952 66.0919C476.837 67.3155 475.124 66.3366 475.106 63.9069C475.182 62.5806 475.57 61.291 476.238 60.1429C476.907 58.9948 477.836 58.0206 478.952 57.2994V57.2994Z" fill="white"/>
<path d="M490.611 50.5522C492.726 49.3286 494.439 50.3074 494.439 52.7372C494.384 54.076 494.009 55.3821 493.346 56.5467C492.683 57.7112 491.751 58.7005 490.629 59.432C488.514 60.6556 486.801 59.6767 486.783 57.2295C486.846 55.8928 487.226 54.5902 487.892 53.4292C488.558 52.2683 489.49 51.2821 490.611 50.5522V50.5522Z" fill="white"/>
<path d="M166.986 239.354C168.56 238.445 170.01 238.602 170.762 239.773L174.573 245.611C175.324 246.783 176.775 246.957 178.348 246.048L501.536 59.432V82.6454L82.7678 324.481V301.268L95.1786 294.101C96.9381 292.968 98.2721 291.284 98.9718 289.311L102.712 279.103C103.405 277.137 104.734 275.457 106.488 274.331L166.986 239.354Z" fill="#E0E0E0"/>
<path d="M501.676 82.628L502.428 351.086C502.297 353.562 501.583 355.972 500.343 358.12C499.104 360.268 497.374 362.092 495.296 363.444L90.7037 596.994C86.7532 599.284 83.5369 597.431 83.5369 592.904L82.7678 324.446L501.676 82.628Z" fill="#FF9F1C"/>
<g opacity="0.4">
<path d="M501.676 82.628L502.428 351.086C502.297 353.562 501.583 355.972 500.343 358.12C499.104 360.268 497.374 362.092 495.296 363.444L90.7037 596.994C86.7532 599.284 83.5369 597.431 83.5369 592.904L82.7678 324.446L501.676 82.628Z" fill="white"/>
</g>
<path d="M485.035 73.7132C487.849 72.0875 490.122 73.381 490.139 76.6148C490.038 78.3669 489.526 80.0706 488.646 81.5886C487.765 83.1067 486.54 84.3968 485.07 85.3548L130.541 290.168C127.726 291.794 125.436 290.483 125.419 287.249C125.524 285.496 126.039 283.791 126.922 282.273C127.806 280.755 129.033 279.466 130.506 278.509L485.035 73.7132Z" fill="white"/>
<path d="M89.4626 303.33C89.541 303.281 89.632 303.254 89.7248 303.254C89.8177 303.254 89.9086 303.281 89.987 303.33C90.2667 303.505 90.2318 304.047 89.987 304.519L87.7496 308.172L93.6229 304.781C94.0249 304.554 94.3396 304.781 94.3396 305.183C94.3313 305.433 94.2616 305.677 94.1366 305.894C94.0116 306.11 93.8351 306.292 93.6229 306.424L87.7671 309.816L90.0045 310.882C90.3017 311.022 90.3192 311.529 90.0045 312.018C89.8808 312.257 89.6932 312.456 89.4626 312.595C89.3864 312.632 89.3027 312.651 89.2179 312.651C89.1331 312.651 89.0495 312.632 88.9732 312.595L85.4772 310.847L85.3199 310.707V310.41V310.043L85.4597 309.746L88.9557 303.872C89.0774 303.653 89.2515 303.466 89.4626 303.33V303.33Z" fill="#E0E0E0"/>
<path d="M102.171 296.006C102.246 295.965 102.33 295.943 102.415 295.943C102.501 295.943 102.585 295.965 102.66 296.006L106.261 297.754L106.401 297.912V298.209V298.558V298.646L106.278 298.925L102.678 304.816C102.561 305.02 102.392 305.189 102.188 305.306C102.112 305.352 102.024 305.376 101.935 305.376C101.845 305.376 101.758 305.352 101.681 305.306C101.401 305.131 101.419 304.606 101.681 304.117L103.901 300.481L98.0278 303.872C97.6433 304.082 97.3286 303.872 97.3286 303.453C97.3379 303.205 97.4062 302.963 97.5279 302.748C97.6495 302.532 97.8209 302.348 98.0278 302.212L103.901 298.838L101.664 297.772C101.367 297.614 101.349 297.108 101.664 296.618C101.768 296.368 101.945 296.155 102.171 296.006V296.006Z" fill="#E0E0E0"/>
<path d="M114.232 289.032C114.587 288.8 114.984 288.64 115.401 288.562C115.818 288.484 116.247 288.489 116.662 288.577L117.203 287.878C117.304 287.73 117.435 287.605 117.588 287.511C117.713 287.471 117.847 287.471 117.973 287.511C118.217 287.511 118.34 287.808 118.287 288.158L117.99 290.36C117.957 290.635 117.848 290.896 117.675 291.112C117.574 291.255 117.443 291.374 117.291 291.462H117.116L115.368 291.916C115.309 291.935 115.246 291.94 115.185 291.931C115.124 291.921 115.066 291.898 115.015 291.863C114.964 291.827 114.922 291.78 114.892 291.726C114.863 291.671 114.846 291.611 114.844 291.549C114.814 291.188 114.927 290.831 115.158 290.553L115.333 290.325C114.944 290.345 114.566 290.459 114.232 290.657C113.485 291.148 112.863 291.807 112.417 292.581C111.971 293.355 111.712 294.223 111.662 295.115C111.662 296.758 112.833 297.405 114.249 296.583C115.297 295.914 116.096 294.919 116.522 293.751C116.63 293.427 116.846 293.15 117.133 292.965C117.237 292.897 117.36 292.866 117.483 292.877C117.833 292.877 117.955 293.314 117.763 293.839C117.115 295.652 115.886 297.201 114.267 298.244C112.064 299.502 110.246 298.489 110.246 295.936C110.327 294.555 110.729 293.211 111.421 292.012C112.113 290.813 113.075 289.792 114.232 289.032Z" fill="#E0E0E0"/>
<g opacity="0.3">
<path d="M89.4626 303.33C89.541 303.281 89.632 303.254 89.7248 303.254C89.8177 303.254 89.9086 303.281 89.987 303.33C90.2667 303.505 90.2318 304.047 89.987 304.519L87.7496 308.172L93.6229 304.781C94.0249 304.554 94.3396 304.781 94.3396 305.183C94.3313 305.433 94.2616 305.677 94.1366 305.894C94.0116 306.11 93.8351 306.292 93.6229 306.424L87.7671 309.816L90.0045 310.882C90.3017 311.022 90.3192 311.529 90.0045 312.018C89.8808 312.257 89.6932 312.456 89.4626 312.595C89.3864 312.632 89.3027 312.651 89.2179 312.651C89.1331 312.651 89.0495 312.632 88.9732 312.595L85.4772 310.847L85.3199 310.707V310.41V310.043L85.4597 309.746L88.9557 303.872C89.0774 303.653 89.2515 303.466 89.4626 303.33V303.33Z" fill="black"/>
</g>
<g opacity="0.3">
<path d="M102.171 296.006C102.246 295.965 102.33 295.943 102.415 295.943C102.501 295.943 102.585 295.965 102.66 296.006L106.261 297.754L106.401 297.912V298.209V298.558V298.646L106.278 298.925L102.678 304.816C102.561 305.02 102.392 305.189 102.188 305.306C102.112 305.352 102.024 305.376 101.935 305.376C101.845 305.376 101.758 305.352 101.681 305.306C101.401 305.131 101.419 304.606 101.681 304.117L103.901 300.481L98.0278 303.872C97.6433 304.082 97.3286 303.872 97.3286 303.453C97.3379 303.205 97.4062 302.963 97.5279 302.748C97.6495 302.532 97.8209 302.348 98.0278 302.212L103.901 298.838L101.664 297.772C101.367 297.614 101.349 297.108 101.664 296.618C101.768 296.368 101.945 296.155 102.171 296.006V296.006Z" fill="black"/>
</g>
<g opacity="0.3">
<path d="M114.232 289.032C114.587 288.8 114.984 288.64 115.401 288.562C115.818 288.484 116.247 288.489 116.662 288.577L117.203 287.878C117.304 287.73 117.435 287.605 117.588 287.511C117.713 287.471 117.847 287.471 117.973 287.511C118.217 287.511 118.34 287.808 118.287 288.158L117.99 290.36C117.957 290.635 117.848 290.896 117.675 291.112C117.574 291.255 117.443 291.374 117.291 291.462H117.116L115.368 291.916C115.309 291.935 115.246 291.94 115.185 291.931C115.124 291.921 115.066 291.898 115.015 291.863C114.964 291.827 114.922 291.78 114.892 291.726C114.863 291.671 114.846 291.611 114.844 291.549C114.814 291.188 114.927 290.831 115.158 290.553L115.333 290.325C114.944 290.345 114.566 290.459 114.232 290.657C113.485 291.148 112.863 291.807 112.417 292.581C111.971 293.355 111.712 294.223 111.662 295.115C111.662 296.758 112.833 297.405 114.249 296.583C115.297 295.914 116.096 294.919 116.522 293.751C116.63 293.427 116.846 293.15 117.133 292.965C117.237 292.897 117.36 292.866 117.483 292.877C117.833 292.877 117.955 293.314 117.763 293.839C117.115 295.652 115.886 297.201 114.267 298.244C112.064 299.502 110.246 298.489 110.246 295.936C110.327 294.555 110.729 293.211 111.421 292.012C112.113 290.813 113.075 289.792 114.232 289.032Z" fill="black"/>
</g>
<path d="M335.336 299.782L335.721 436.685L203.502 513.02L203.118 376.1L335.336 299.782Z" fill="#FF9F1C"/>
<path d="M484.773 113.568L484.983 190.724L306.25 293.909L306.022 216.769L484.773 113.568Z" fill="#FF9F1C"/>
<g opacity="0.5">
<path d="M335.336 299.782L335.721 436.685L203.502 513.02L203.118 376.1L335.336 299.782Z" fill="white"/>
</g>
<g opacity="0.5">
<path d="M484.773 113.568L484.983 190.724L306.25 293.909L306.022 216.769L484.773 113.568Z" fill="white"/>
</g>
<path d="M190.217 383.546L190.619 520.467L106.768 568.869L106.383 431.966L190.217 383.546Z" fill="#FF9F1C"/>
<path d="M483.654 214.13L484.056 351.051L348.621 429.239L348.237 292.336L483.654 214.13Z" fill="#FF9F1C"/>
<g opacity="0.3">
<path d="M190.217 383.546L190.619 520.467L106.768 568.869L106.383 431.966L190.217 383.546Z" fill="white"/>
</g>
<g opacity="0.3">
<path d="M483.654 214.13L484.056 351.051L348.621 429.239L348.237 292.336L483.654 214.13Z" fill="white"/>
</g>
<path d="M146.605 307.368C168.909 294.503 187.036 304.834 187.036 330.372C187.036 355.91 169.102 387.182 146.832 400.047C124.562 412.913 106.418 402.582 106.348 376.974C106.278 351.365 124.318 320.234 146.605 307.368Z" fill="#FF9F1C"/>
<path d="M167.021 331.263C169.208 329.691 170.729 327.359 171.285 324.723C171.842 322.087 171.393 319.339 170.028 317.017C171.254 316.476 172.259 315.533 172.877 314.343C173.135 313.768 173.214 313.129 173.105 312.509C172.995 311.889 172.702 311.316 172.264 310.864C171.825 310.412 171.261 310.102 170.644 309.974C170.027 309.847 169.386 309.907 168.804 310.148C169.126 309.219 169.128 308.209 168.812 307.278C168.495 306.348 167.877 305.549 167.056 305.009C166.211 304.524 165.222 304.353 164.262 304.526C163.303 304.698 162.436 305.203 161.812 305.952C161.832 305.346 161.656 304.75 161.309 304.252C160.963 303.755 160.465 303.382 159.89 303.191C158.73 302.893 157.505 302.972 156.394 303.418C155.24 303.82 154.156 304.379 152.898 304.746C150.898 305.255 148.843 305.519 146.78 305.533C144.709 305.553 142.677 306.094 140.871 307.106C139.876 307.708 139.11 308.624 138.692 309.709C138.274 310.795 138.229 311.988 138.564 313.102C138.265 312.726 137.892 312.415 137.468 312.19C137.044 311.964 136.578 311.828 136.099 311.791C135.628 311.777 135.159 311.866 134.725 312.05C134.29 312.234 133.901 312.509 133.582 312.857C134.876 313.661 136.117 314.605 137.41 315.322C136.675 315.116 135.892 315.156 135.182 315.437C134.472 315.718 133.873 316.224 133.477 316.877C132.875 318.17 132.639 319.603 132.796 321.02C132.965 326.414 133.919 331.755 135.627 336.875C136.525 339.85 138.46 342.406 141.081 344.076L167.021 331.263Z" fill="#37474F"/>
<path d="M162.826 351.505L168.927 356.749L172.161 375.261C174.781 371.288 177.117 367.135 179.153 362.832C176.373 355.753 174.153 351.505 162.826 351.505Z" fill="#EBEBEB"/>
<path d="M146.832 400.117C157.32 394.069 166.829 383.983 173.996 372.324C173.402 362.308 171.916 351.505 162.791 351.505L135.697 351.698L130.156 352.292L127.604 405.623C134.408 405.663 141.08 403.752 146.832 400.117V400.117Z" fill="#FF9F1C"/>
<g opacity="0.4">
<path d="M146.832 400.117C157.32 394.069 166.829 383.983 173.996 372.324C173.402 362.308 171.916 351.505 162.791 351.505L135.697 351.698L130.156 352.292L127.604 405.623C134.408 405.663 141.08 403.752 146.832 400.117V400.117Z" fill="white"/>
</g>
<path d="M158.404 355.106C160.938 363.182 159.348 374.334 158.404 379.491C151.989 370.751 145.975 361.801 144.088 358.34L153.037 353.987L158.404 355.106Z" fill="#EBEBEB"/>
<path d="M154.663 362.518L156.866 361.993C157.944 364.794 158.843 367.661 159.557 370.576C159.331 373.548 158.946 376.507 158.404 379.438C157.145 377.69 155.904 375.942 154.698 374.282C155.077 370.369 155.065 366.428 154.663 362.518Z" fill="#455A64"/>
<path opacity="0.2" d="M154.698 362.99C154.698 362.832 154.698 362.675 154.698 362.518L156.9 361.993C156.9 361.993 156.9 362.116 157.023 362.325C156.671 362.647 156.244 362.875 155.782 362.99C155.423 363.055 155.056 363.055 154.698 362.99Z" fill="black"/>
<path d="M153.474 356.732L151.726 355.613L147.671 357.816C149.056 358.889 150.716 359.55 152.461 359.721L153.474 356.732Z" fill="#455A64"/>
<path d="M156.149 356.295L156.691 355.106L158.736 356.4C158.514 357.173 158.048 357.854 157.407 358.34L156.149 356.295Z" fill="#455A64"/>
<path opacity="0.2" d="M153.474 356.732L151.726 355.613L147.671 357.816C149.056 358.889 150.716 359.55 152.461 359.721L153.474 356.732Z" fill="black"/>
<path opacity="0.2" d="M156.149 356.295L156.691 355.106L158.736 356.4C158.514 357.173 158.048 357.854 157.407 358.34L156.149 356.295Z" fill="black"/>
<path d="M152.461 359.721C152.629 358.675 152.971 357.664 153.474 356.732L156.149 356.295C156.644 356.927 157.066 357.613 157.407 358.34C157.459 359.581 157.275 360.821 156.866 361.993C156.187 362.35 155.43 362.531 154.663 362.518C153.649 361.845 152.877 360.864 152.461 359.721V359.721Z" fill="#455A64"/>
<path d="M154.418 355.788C150.153 355.788 147.549 359.109 143.668 360.263L135.732 351.698L138.809 347.118C139.422 346.205 140.22 345.43 141.151 344.845V346.506C141.159 346.989 141.292 347.462 141.537 347.879C141.782 348.296 142.131 348.642 142.549 348.883L154.418 355.788Z" fill="#E0E0E0"/>
<path d="M154.418 355.788C156.778 355.054 160.309 358.008 160.309 358.008C159.068 351.173 155.345 348.464 154.418 348.464V355.788Z" fill="#E0E0E0"/>
<path d="M130.191 352.292L126.52 352.869C124.354 353.227 122.346 354.234 120.764 355.757C119.182 357.28 118.099 359.248 117.658 361.399C115.602 371.665 114.798 382.142 115.263 392.601L132.044 384.857C133.809 371.747 137.253 360.91 130.191 352.292Z" fill="#EBEBEB"/>
<path d="M131.869 390.695V389.227C131.887 388.966 132.007 388.721 132.201 388.545C132.305 388.45 132.388 388.333 132.445 388.204C132.503 388.075 132.532 387.935 132.533 387.794V385.364C132.533 385.207 132.502 385.052 132.441 384.908C132.38 384.763 132.291 384.633 132.178 384.523C132.066 384.414 131.932 384.329 131.786 384.272C131.64 384.215 131.484 384.188 131.327 384.193C123.741 384.28 116.347 387.899 114.337 392.146C113.88 393.477 113.88 394.923 114.337 396.254C113.026 398.002 113.655 398.859 114.337 400.1C115.03 400.725 115.76 401.308 116.522 401.848C121.503 393.982 131.869 390.695 131.869 390.695Z" fill="#E0E0E0"/>
<path opacity="0.2" d="M124.108 389C120.376 390.626 117.082 393.112 114.494 396.254C114.355 395.803 114.256 395.341 114.197 394.873C116.711 391.815 120.218 389.737 124.108 389Z" fill="black"/>
<path opacity="0.2" d="M132.551 388.056C132.503 388.231 132.406 388.389 132.271 388.51C132.076 388.686 131.957 388.931 131.939 389.192V389.315C126.642 390.134 121.744 392.62 117.955 396.411C121.434 391.36 129.142 388.755 132.551 388.056Z" fill="black"/>
<path d="M146.832 400.117C153.318 396.251 159.148 391.377 164.102 385.679C154.383 385.679 140.801 386.273 131.904 389.35V390.695C131.904 390.695 121.538 393.982 116.627 401.9C124.003 407.284 134.823 407.074 146.832 400.117Z" fill="#FFA8A7"/>
<path opacity="0.2" d="M132.603 390.73L132.778 389.07L131.939 389.35V390.695C129.494 391.528 127.148 392.63 124.947 393.982C124.244 394.915 123.706 395.961 123.356 397.076C125.384 394.209 127.604 393.055 131.939 391.937C135.872 392.548 142.724 395.433 149.699 398.352C150.375 397.921 151.039 397.466 151.691 396.988C143.336 394.069 134.788 390.888 132.603 390.73Z" fill="black"/>
<path d="M146.045 345.16H145.923C145.048 344.689 144.284 344.037 143.681 343.247C143.079 342.457 142.651 341.548 142.427 340.58C142.2 339.601 142.008 338.623 141.85 337.626C141.693 336.63 141.046 337.626 141.046 337.626C141.046 337.626 141.046 339.811 141.151 342.398C141.151 343.779 141.151 345.247 141.256 346.593C141.262 347.077 141.394 347.551 141.639 347.968C141.885 348.385 142.234 348.73 142.654 348.971L154.488 355.875V347.467C151.546 347.282 148.673 346.497 146.045 345.16V345.16Z" fill="#FFA8A7"/>
<path d="M143.161 343.657V343.639L143.179 343.657H143.161Z" fill="#FFA8A7"/>
<path opacity="0.2" d="M144.35 344.985C143.66 344.083 143.166 343.047 142.899 341.944C143.546 343.288 144.605 344.391 145.923 345.09H146.045C148.658 346.387 151.506 347.142 154.418 347.31V349.6C152.727 349.455 151.06 349.103 149.454 348.551C147.452 347.865 145.683 346.629 144.35 344.985V344.985Z" fill="black"/>
<path d="M167.808 318.241C168.774 325.57 168.293 333.017 166.392 340.161C166.027 341.74 165.439 343.258 164.644 344.671C163.863 346.084 162.633 347.197 161.148 347.835C159.217 348.342 157.188 348.342 155.257 347.835C151.645 347.406 148.139 346.328 144.909 344.653C143.313 343.782 141.983 342.495 141.06 340.928C140.136 339.362 139.654 337.574 139.665 335.756C138.784 336.302 137.778 336.617 136.743 336.672C135.707 336.727 134.674 336.52 133.739 336.07C132.817 335.571 132.035 334.849 131.464 333.969C130.893 333.09 130.552 332.082 130.471 331.036C130.278 330.219 130.355 329.361 130.692 328.591C131.028 327.821 131.605 327.181 132.336 326.767C133.067 326.354 133.912 326.188 134.746 326.296C135.579 326.404 136.354 326.779 136.956 327.365C137.896 328.177 138.71 329.126 139.368 330.18C139.676 330.69 140.086 331.131 140.574 331.473C140.827 331.661 141.133 331.762 141.448 331.762C141.763 331.762 142.069 331.661 142.322 331.473C142.521 331.233 142.666 330.952 142.748 330.65C142.829 330.349 142.845 330.033 142.794 329.725L142.357 325.128C142.339 324.77 142.425 324.414 142.605 324.104C142.785 323.793 143.051 323.542 143.371 323.38C144.324 322.872 145.057 322.032 145.434 321.02C145.766 320.134 145.96 319.203 146.01 318.258C146.025 318.081 146.081 317.91 146.174 317.758C146.267 317.606 146.394 317.478 146.546 317.385C146.697 317.291 146.868 317.235 147.045 317.219C147.223 317.204 147.401 317.231 147.566 317.297C154.059 319.668 161.122 319.998 167.808 318.241V318.241Z" fill="#FFA8A7"/>
<path d="M157.652 329.376L161.795 336.315L156.866 337.242L157.652 329.376Z" fill="#F28F8F"/>
<path d="M152.076 339.636L155.817 341.384C155.496 341.808 155.046 342.115 154.535 342.26C154.024 342.405 153.48 342.38 152.985 342.188C152.571 341.925 152.256 341.531 152.092 341.069C151.927 340.606 151.921 340.102 152.076 339.636V339.636Z" fill="#F28F8F"/>
<path opacity="0.3" d="M152.076 339.636L155.817 341.384C155.496 341.808 155.046 342.115 154.535 342.26C154.024 342.405 153.48 342.38 152.985 342.188C152.571 341.925 152.256 341.531 152.092 341.069C151.927 340.606 151.921 340.102 152.076 339.636V339.636Z" fill="black"/>
<path d="M154.331 342.381C153.897 342.474 153.446 342.432 153.037 342.258C152.693 342.065 152.413 341.775 152.233 341.423C152.053 341.072 151.98 340.676 152.024 340.283C152.565 340.278 153.091 340.464 153.509 340.808C153.977 341.205 154.272 341.769 154.331 342.381V342.381Z" fill="#F28F8F"/>
<path d="M150.538 329.638C150.508 329.917 150.561 330.199 150.692 330.448C150.823 330.696 151.025 330.901 151.272 331.034C151.519 331.168 151.8 331.225 152.08 331.199C152.359 331.172 152.625 331.063 152.842 330.885C153.06 330.707 153.219 330.469 153.301 330.2C153.382 329.931 153.382 329.644 153.3 329.375C153.217 329.106 153.057 328.868 152.839 328.691C152.621 328.514 152.356 328.405 152.076 328.379C151.706 328.345 151.337 328.458 151.049 328.693C150.761 328.929 150.578 329.268 150.538 329.638V329.638Z" fill="#263238"/>
<path d="M162.389 330.372C162.359 330.651 162.413 330.933 162.544 331.182C162.674 331.431 162.876 331.635 163.123 331.768C163.37 331.902 163.651 331.959 163.931 331.933C164.211 331.906 164.476 331.797 164.694 331.619C164.911 331.441 165.071 331.203 165.152 330.934C165.233 330.665 165.233 330.378 165.151 330.109C165.069 329.841 164.909 329.602 164.691 329.425C164.473 329.248 164.207 329.139 163.927 329.113C163.557 329.079 163.188 329.192 162.9 329.427C162.613 329.663 162.429 330.002 162.389 330.372V330.372Z" fill="#263238"/>
<path d="M164.312 324.918L167.214 327.383C167.391 327.014 167.45 326.598 167.381 326.194C167.312 325.79 167.119 325.417 166.829 325.128C166.472 324.86 166.046 324.698 165.601 324.661C165.156 324.624 164.709 324.713 164.312 324.918V324.918Z" fill="#263238"/>
<path d="M152.303 323.537L148.965 325.285C148.864 324.889 148.888 324.47 149.036 324.088C149.183 323.706 149.445 323.379 149.786 323.153C150.2 322.976 150.655 322.918 151.1 322.986C151.544 323.054 151.961 323.245 152.303 323.537V323.537Z" fill="#263238"/>
<g opacity="0.5">
<path d="M251.887 296.793L251.904 300.708L202.611 329.026V325.111L251.887 296.793Z" fill="white"/>
<path d="M261.116 315.514L261.134 319.43L202.681 353.044V349.128L261.116 315.514Z" fill="white"/>
<path d="M269.839 302.491L269.856 306.389L202.663 345.055L202.646 341.14L269.839 302.491Z" fill="white"/>
<path d="M283.648 270.468L283.665 274.366L202.593 321.038L202.576 317.14L283.648 270.468Z" fill="white"/>
<path d="M293.402 256.764L293.419 260.679L202.576 312.997L202.558 309.081L293.402 256.764Z" fill="white"/>
<path d="M249.335 267.217L249.37 275.048L202.541 302.089L202.523 294.241L249.335 267.217Z" fill="white"/>
</g>
<path d="M370.261 193.172L370.296 202.314L319.657 231.627L319.622 222.485L370.261 193.172Z" fill="#FF9F1C"/>
<path d="M467.8 151.989L467.817 157.565L319.692 242.78L319.674 237.204L467.8 151.989Z" fill="#FF9F1C"/>
<g opacity="0.3">
<path d="M370.261 193.171L370.296 202.314L319.657 231.627L319.622 222.485L370.261 193.171Z" fill="white"/>
<path d="M467.8 151.989L467.817 157.565L319.692 242.78L319.674 237.204L467.8 151.989Z" fill="white"/>
<path d="M456.927 191.371L456.945 196.965L319.779 276.289L319.762 270.713L456.927 191.371Z" fill="white"/>
<path d="M467.87 174.328L467.887 179.922L319.744 265.137L319.727 259.543L467.87 174.328Z" fill="white"/>
<path d="M434.221 182.456L434.238 188.032L319.709 253.949V248.373L434.221 182.456Z" fill="white"/>
</g>
<g opacity="0.5">
<path d="M148.458 420.901L148.475 429.256L116.172 447.907L116.155 439.552L148.458 420.901Z" fill="white"/>
<path d="M180.621 415.727L180.638 419.66L116.19 456.857V452.924L180.621 415.727Z" fill="white"/>
<path d="M180.638 423.593L180.656 427.526L116.225 464.723L116.207 460.79L180.638 423.593Z" fill="white"/>
<path d="M161.97 453.221L161.987 461.577L116.294 487.972L116.259 479.599L161.97 453.221Z" fill="white"/>
<path d="M148.44 450.058L148.458 453.991L116.242 472.589L116.225 468.656L148.44 450.058Z" fill="white"/>
<path d="M133.844 538.716L133.862 542.649L116.469 552.683L116.452 548.767L133.844 538.716Z" fill="white"/>
<path d="M180.866 503.704L180.883 507.637L116.452 544.834L116.434 540.901L180.866 503.704Z" fill="white"/>
<path d="M180.848 495.838L180.866 499.771L116.434 536.968L116.417 533.035L180.848 495.838Z" fill="white"/>
<path d="M144.367 503.511L144.402 511.849L116.399 528.018L116.382 519.663L144.367 503.511Z" fill="white"/>
<path d="M169.311 478.113L169.329 482.046L116.364 512.636L116.347 508.703L169.311 478.113Z" fill="white"/>
<path d="M180.761 463.64V467.573L116.329 504.77V500.837L180.761 463.64Z" fill="white"/>
<path d="M180.726 455.791L180.743 459.724L116.312 496.921L116.294 492.988L180.726 455.791Z" fill="white"/>
</g>
<path d="M287.826 368.863L261.553 418.751L254.124 432.875L259.246 416.968L244.772 405.728L228.638 437.752L228.708 457.312L313.312 408.473L313.259 388.895L287.826 368.863Z" fill="#FF9F1C"/>
<path d="M260.067 395.31C262.168 393.942 263.915 392.096 265.166 389.924C266.418 387.752 267.138 385.315 267.269 382.812C267.269 378.232 264.018 376.397 260.032 378.687C257.937 380.052 256.192 381.892 254.941 384.057C253.69 386.223 252.967 388.653 252.831 391.15C252.848 395.747 256.099 397.6 260.067 395.31Z" fill="#FF9F1C"/>
<g opacity="0.3">
<path d="M287.826 368.863L261.553 418.751L254.124 432.875L259.246 416.968L244.772 405.728L228.638 437.752L228.708 457.312L313.312 408.473L313.259 388.895L287.826 368.863Z" fill="white"/>
<path d="M260.067 395.31C262.168 393.942 263.915 392.096 265.166 389.924C266.418 387.752 267.138 385.315 267.269 382.812C267.269 378.232 264.018 376.397 260.032 378.687C257.937 380.052 256.192 381.892 254.941 384.057C253.69 386.223 252.967 388.653 252.831 391.15C252.848 395.747 256.099 397.6 260.067 395.31Z" fill="white"/>
</g>
<path d="M437.559 284.05L411.304 333.92L403.875 348.044L408.997 332.137L394.506 320.898L378.39 352.921L378.442 372.499L463.063 323.642L462.993 304.082L437.559 284.05Z" fill="#FF9F1C"/>
<path d="M409.819 310.48C411.913 309.119 413.655 307.282 414.904 305.119C416.152 302.956 416.872 300.528 417.003 298.034C417.003 293.454 413.752 291.601 409.766 293.909C407.666 295.264 405.919 297.099 404.67 299.263C403.421 301.428 402.705 303.858 402.582 306.354C402.582 310.934 405.833 312.787 409.819 310.48Z" fill="#FF9F1C"/>
<g opacity="0.5">
<path d="M437.559 284.05L411.304 333.92L403.875 348.044L408.997 332.137L394.506 320.898L378.39 352.921L378.442 372.499L463.063 323.642L462.993 304.082L437.559 284.05Z" fill="white"/>
<path d="M409.819 310.48C411.913 309.119 413.655 307.282 414.904 305.119C416.152 302.956 416.872 300.528 417.003 298.034C417.003 293.454 413.752 291.601 409.766 293.909C407.666 295.263 405.919 297.099 404.67 299.263C403.421 301.428 402.705 303.858 402.582 306.354C402.582 310.934 405.833 312.787 409.819 310.48Z" fill="white"/>
</g>
<path d="M456.927 191.371L456.945 196.965L319.779 276.289L319.762 270.713L456.927 191.371Z" fill="#FF9F1C"/>
<path d="M467.87 174.328L467.887 179.922L319.744 265.137L319.727 259.543L467.87 174.328Z" fill="#FF9F1C"/>
<path d="M434.221 182.456L434.238 188.032L319.709 253.949V248.373L434.221 182.456Z" fill="#FF9F1C"/>
<path d="M575.197 653.752L579.777 656.671H579.882C580.714 657.036 581.627 657.177 582.531 657.082C583.435 656.987 584.299 656.659 585.038 656.129C587.166 654.744 588.937 652.875 590.206 650.676C591.476 648.477 592.209 646.009 592.345 643.474C592.433 642.589 592.289 641.697 591.927 640.885C591.565 640.072 590.998 639.368 590.282 638.842V638.842L588.936 637.985L632.794 620.173C632.84 620.702 633.015 621.212 633.305 621.657C633.594 622.102 633.989 622.469 634.454 622.725L630.504 657.213V661.898C628.73 663.327 627.275 665.113 626.233 667.139C625.192 669.165 624.586 671.387 624.456 673.662C624.358 674.589 624.52 675.525 624.925 676.364C625.329 677.204 625.96 677.915 626.745 678.416V678.416L631.343 681.335H631.43C632.261 681.702 633.174 681.847 634.078 681.755C634.982 681.663 635.846 681.338 636.587 680.811C638.717 679.429 640.49 677.561 641.761 675.361C643.031 673.161 643.761 670.692 643.893 668.156C643.971 667.274 643.825 666.386 643.467 665.576C643.109 664.766 642.552 664.06 641.848 663.523V663.523L637.198 660.587C636.469 660.147 635.616 659.956 634.769 660.045L639.541 624.036C640.627 624.024 641.706 623.847 642.74 623.512V623.512L684.272 645.956L681.895 647.459C681.179 647.986 680.612 648.69 680.25 649.502C679.888 650.314 679.744 651.207 679.832 652.091C679.968 654.627 680.701 657.095 681.971 659.294C683.24 661.493 685.011 663.361 687.139 664.747C687.887 665.292 688.767 665.63 689.688 665.725C690.609 665.82 691.539 665.67 692.383 665.289V665.289H692.488L697.067 662.37C697.856 661.871 698.489 661.161 698.894 660.32C699.299 659.48 699.459 658.542 699.357 657.615C699.232 655.36 698.639 653.156 697.616 651.143C696.593 649.129 695.162 647.351 693.414 645.921V638.684L654.731 615.698L675.13 610.559C673.788 612.747 673.041 615.248 672.963 617.813C672.859 618.739 673.017 619.675 673.419 620.515C673.82 621.356 674.45 622.067 675.235 622.568V622.568L679.815 625.487H679.902C680.744 625.879 681.676 626.035 682.599 625.94C683.522 625.844 684.402 625.5 685.146 624.945C687.273 623.562 689.043 621.697 690.312 619.501C691.582 617.305 692.315 614.84 692.453 612.307C692.529 611.423 692.379 610.535 692.019 609.725C691.658 608.915 691.098 608.209 690.39 607.675V607.675L685.338 604.808C684.812 604.509 684.229 604.324 683.626 604.267C683.023 604.21 682.416 604.281 681.842 604.476V603.305L679.36 602.466L646.148 604.214V598.358C646.502 598.216 646.846 598.052 647.18 597.868C648.079 597.467 648.856 596.836 649.433 596.038C650.01 595.24 650.367 594.303 650.466 593.324V554.938H628.336V593.254C628.422 594.231 628.766 595.167 629.335 595.966C629.903 596.765 630.675 597.398 631.57 597.799C631.921 597.994 632.283 598.169 632.654 598.323V603.235L608.706 597.991L607.57 598.463V602.868L602.92 605.822C602.216 606.358 601.659 607.065 601.301 607.875C600.944 608.685 600.797 609.572 600.875 610.454C601.035 613.873 602.299 617.148 604.476 619.788L581.35 630.276V635.748C581.019 635.884 580.698 636.041 580.388 636.22C578.261 637.601 576.49 639.467 575.22 641.663C573.951 643.859 573.218 646.324 573.082 648.858C572.934 649.79 573.055 650.745 573.429 651.612C573.804 652.478 574.417 653.22 575.197 653.752V653.752ZM589.076 628.965L605.839 621.501L583.115 631.587L589.076 628.965ZM618.792 610.122L622.183 611.87L619.841 612.919C619.521 611.931 619.117 610.972 618.635 610.052L618.792 610.122ZM632.776 609.51L620.155 615.121L632.776 609.51Z" fill="#E0E0E0"/>
<path d="M686.422 614.037L690.093 607.762L685.338 604.808C684.505 604.4 683.577 604.227 682.653 604.307C681.729 604.387 680.845 604.718 680.094 605.263C677.967 606.643 676.197 608.508 674.93 610.705C673.663 612.902 672.935 615.368 672.805 617.901C672.702 618.826 672.86 619.762 673.261 620.603C673.663 621.443 674.292 622.154 675.078 622.655V622.655L679.762 625.627L683.625 619.002C684.825 617.513 685.77 615.835 686.422 614.037V614.037Z" fill="#37474F"/>
<path d="M684.796 608.304C688.834 605.962 692.138 607.832 692.156 612.482C692.018 615.015 691.285 617.479 690.015 619.675C688.746 621.872 686.975 623.737 684.849 625.12C680.811 627.462 677.507 625.592 677.49 620.942C677.627 618.409 678.361 615.944 679.63 613.748C680.9 611.552 682.67 609.687 684.796 608.304V608.304Z" fill="#455A64"/>
<path d="M606.416 612.254L602.745 605.962L607.517 602.938C608.348 602.524 609.276 602.345 610.201 602.422C611.125 602.499 612.011 602.829 612.761 603.375C614.885 604.761 616.653 606.627 617.922 608.822C619.191 611.018 619.927 613.481 620.068 616.013C620.165 616.942 620.002 617.88 619.598 618.723C619.194 619.565 618.564 620.279 617.778 620.785V620.785L613.093 623.774L609.23 617.149C608.037 615.678 607.087 614.026 606.416 612.254Z" fill="#37474F"/>
<path d="M608.042 606.416C604.004 604.091 600.7 605.944 600.7 610.594C600.833 613.128 601.562 615.596 602.829 617.795C604.096 619.994 605.864 621.863 607.989 623.249C612.045 625.574 615.331 623.704 615.348 619.054C615.212 616.521 614.48 614.056 613.21 611.859C611.94 609.663 610.169 607.798 608.042 606.416V606.416Z" fill="#455A64"/>
<path d="M632.654 596.68H646.253V620.103C646.185 620.7 645.964 621.269 645.612 621.756C645.26 622.243 644.789 622.631 644.243 622.882C642.754 623.641 641.107 624.036 639.436 624.036C637.765 624.036 636.118 623.641 634.629 622.882C634.09 622.626 633.625 622.236 633.279 621.75C632.934 621.263 632.718 620.696 632.654 620.103V596.68Z" fill="#EBEBEB"/>
<path d="M681.86 603.235V608.828L646.253 617.796V605.979L681.86 603.235Z" fill="#E0E0E0"/>
<path d="M681.86 603.235L679.378 602.396L646.253 604.144V605.979L681.86 603.235Z" fill="#F5F5F5"/>
<path d="M685.443 653.857L681.772 647.564L686.527 644.54C687.356 644.122 688.285 643.942 689.211 644.019C690.136 644.096 691.022 644.428 691.771 644.977C693.901 646.356 695.675 648.22 696.945 650.417C698.215 652.614 698.946 655.081 699.078 657.615C699.179 658.543 699.019 659.48 698.614 660.321C698.209 661.161 697.576 661.871 696.788 662.37V662.37L692.208 665.394L688.345 658.769C687.113 657.303 686.132 655.643 685.443 653.857Z" fill="#37474F"/>
<path d="M687.069 648.019C683.014 645.676 679.727 647.547 679.71 652.196C679.846 654.732 680.579 657.2 681.848 659.399C683.118 661.598 684.889 663.466 687.016 664.852C691.054 667.177 694.358 665.306 694.358 660.657C694.225 658.125 693.496 655.66 692.229 653.463C690.962 651.267 689.194 649.401 687.069 648.019V648.019Z" fill="#455A64"/>
<path d="M638.02 669.816L641.691 663.523L636.919 660.499C636.088 660.085 635.16 659.907 634.236 659.984C633.311 660.061 632.425 660.39 631.675 660.936C629.546 662.317 627.775 664.182 626.505 666.378C625.235 668.575 624.503 671.041 624.368 673.574C624.27 674.501 624.433 675.437 624.837 676.277C625.242 677.117 625.872 677.827 626.658 678.329V678.329L631.343 681.318L635.206 674.693C636.403 673.231 637.353 671.584 638.02 669.816Z" fill="#37474F"/>
<path d="M636.394 663.978C640.432 661.636 643.718 663.506 643.736 668.156C643.604 670.692 642.873 673.161 641.603 675.361C640.333 677.561 638.56 679.429 636.429 680.811C632.391 683.136 629.105 681.266 629.088 676.616C629.218 674.081 629.949 671.614 631.219 669.417C632.489 667.22 634.263 665.356 636.394 663.978V663.978Z" fill="#455A64"/>
<path d="M586.594 645.152L590.265 638.859L585.58 635.835C584.751 635.417 583.822 635.237 582.896 635.314C581.971 635.391 581.085 635.723 580.336 636.272C578.209 637.654 576.438 639.519 575.168 641.715C573.898 643.912 573.165 646.377 573.029 648.91C572.928 649.837 573.088 650.775 573.493 651.615C573.898 652.456 574.531 653.166 575.319 653.665V653.665L580.004 656.654L583.867 650.029C585.034 648.561 585.955 646.914 586.594 645.152V645.152Z" fill="#37474F"/>
<path d="M584.968 639.314C589.024 636.971 592.31 638.842 592.327 643.491C592.191 646.027 591.459 648.495 590.189 650.694C588.919 652.893 587.149 654.761 585.021 656.147C580.983 658.472 577.679 656.601 577.679 651.952C577.809 649.419 578.537 646.953 579.804 644.756C581.071 642.559 582.841 640.694 584.968 639.314Z" fill="#455A64"/>
<path d="M690.425 640.24V649.295L642.74 623.529V611.048L690.425 640.24Z" fill="#E0E0E0"/>
<path d="M693.187 638.702L645.466 610.349L642.74 611.048L690.425 640.24L693.187 638.702Z" fill="#F5F5F5"/>
<path d="M693.187 647.739L690.425 649.295V640.24L693.187 638.702V647.739Z" fill="#F0F0F0"/>
<path d="M639.541 611.048L633.72 657.143V665.394L639.541 624.036V611.048Z" fill="#E0E0E0"/>
<path d="M633.72 657.143H630.364V665.376H633.72V657.143Z" fill="#F0F0F0"/>
<path d="M630.364 657.143L635.643 611.048H639.541L633.72 657.143H630.364Z" fill="#F5F5F5"/>
<path d="M583.08 631.587V640.24L632.671 620.103V609.51L583.08 631.587Z" fill="#E0E0E0"/>
<path d="M581.175 638.964L583.08 640.24V631.587L581.175 630.346V638.964Z" fill="#F0F0F0"/>
<path d="M588.989 628.965L583.08 631.587L581.175 630.346L632.671 607.15V609.51L588.989 628.965Z" fill="#F5F5F5"/>
<path d="M607.57 598.533V604.196L622.026 611.94L632.671 607.15V604.826L607.57 598.533Z" fill="#E0E0E0"/>
<path d="M607.57 598.533L608.706 598.061L632.671 603.235V604.825L607.57 598.533Z" fill="#F5F5F5"/>
<path d="M628.336 554.938H650.571V593.254C650.471 594.234 650.115 595.17 649.538 595.968C648.961 596.766 648.184 597.397 647.284 597.799C644.849 599.043 642.153 599.692 639.418 599.692C636.684 599.692 633.988 599.043 631.552 597.799C630.657 597.398 629.886 596.765 629.317 595.966C628.749 595.167 628.404 594.231 628.319 593.254L628.336 554.938Z" fill="#E0E0E0"/>
<path d="M540.761 493.338C541.995 495.201 543.64 496.755 545.568 497.883L636.167 546.005C639.168 547.598 642.509 548.447 645.906 548.481C649.304 548.514 652.66 547.731 655.692 546.198L719.162 514.052C723.18 512.016 726.724 509.16 729.567 505.667C732.41 502.174 734.487 498.122 735.663 493.775L766.306 380.627C766.813 380.784 767.32 380.959 767.844 381.099C769.13 381.519 770.476 381.726 771.829 381.711H772.022L735.663 515.975C734.487 520.322 732.41 524.373 729.567 527.866C726.724 531.359 723.18 534.216 719.162 536.251L655.692 568.397C652.66 569.931 649.304 570.714 645.906 570.68C642.509 570.647 639.168 569.798 636.167 568.205L545.568 520.082C536.531 514.908 535.675 501.064 540.761 493.338Z" fill="#FF9F1C"/>
<path opacity="0.3" d="M540.761 493.338C541.995 495.201 543.64 496.755 545.568 497.883L636.167 546.005C639.168 547.598 642.509 548.447 645.906 548.481C649.304 548.514 652.66 547.731 655.692 546.198L719.162 514.052C723.18 512.016 726.724 509.16 729.567 505.667C732.41 502.174 734.487 498.122 735.663 493.775L766.306 380.627C766.813 380.784 767.32 380.959 767.844 381.099C769.13 381.519 770.476 381.726 771.829 381.711H772.022L735.663 515.975C734.487 520.322 732.41 524.373 729.567 527.866C726.724 531.359 723.18 534.216 719.162 536.251L655.692 568.397C652.66 569.931 649.304 570.714 645.906 570.68C642.509 570.647 639.168 569.798 636.167 568.205L545.568 520.082C536.531 514.908 535.675 501.064 540.761 493.338Z" fill="black"/>
<path d="M544.991 489.248L610.646 455.564L697.102 500.05C694.288 500.732 691.421 501.291 688.59 501.798C681.161 503.284 673.574 504.927 667.124 508.913C660.674 512.898 655.448 519.68 655.395 527.267L657.702 545.096L655.692 546.128C652.66 547.661 649.304 548.444 645.906 548.411C642.508 548.377 639.168 547.528 636.167 545.935L545.568 497.813C543.64 496.685 541.995 495.131 540.761 493.268C541.826 491.606 543.278 490.227 544.991 489.248V489.248Z" fill="#FF9F1C"/>
<path opacity="0.2" d="M544.991 489.248L610.646 455.564L697.102 500.05C694.288 500.732 691.421 501.291 688.59 501.798C681.161 503.284 673.574 504.927 667.124 508.913C660.674 512.898 655.448 519.68 655.395 527.267L657.702 545.096L655.692 546.128C652.66 547.661 649.304 548.444 645.906 548.411C642.508 548.377 639.168 547.528 636.167 545.935L545.568 497.813C543.64 496.685 541.995 495.131 540.761 493.268C541.826 491.606 543.278 490.227 544.991 489.248V489.248Z" fill="black"/>
<path d="M554.536 432.927C554.536 432.927 607.238 448.432 621.187 434.675C638.527 417.65 631.273 374.736 629.193 357.955C627.113 341.175 629.193 329.533 633.842 324.621C638.492 319.709 645.222 312.49 667.054 321.527C644.977 332.889 642.128 386.902 649.102 408.595C631.797 426.407 632.986 454.043 632.654 466.821C632.654 466.821 587.625 477.816 564.115 490.733L554.536 432.927Z" fill="#FF9F1C"/>
<path opacity="0.1" d="M554.536 432.927C554.536 432.927 607.238 448.432 621.187 434.675C638.527 417.65 631.273 374.736 629.193 357.955C627.113 341.175 629.193 329.533 633.842 324.621C638.492 319.709 645.222 312.49 667.054 321.527C644.977 332.889 642.128 386.902 649.102 408.595C631.797 426.407 632.986 454.043 632.654 466.821C632.654 466.821 587.625 477.816 564.115 490.733L554.536 432.927Z" fill="white"/>
<path d="M564.097 490.803L553.312 484.983C553.312 455.267 548.924 458.256 540.761 446.631C532.598 435.007 545.114 427.771 554.535 432.927C563.957 438.084 567.768 453.641 564.097 490.803Z" fill="#FF9F1C"/>
<path opacity="0.2" d="M564.097 490.803L553.312 484.983C553.312 455.267 548.924 458.256 540.761 446.631C532.598 435.007 545.114 427.771 554.535 432.927C563.957 438.084 567.768 453.641 564.097 490.803Z" fill="white"/>
<path d="M667.037 321.632C667.037 321.632 726.067 347.205 754.821 361.416L752.724 371.904L658.559 329.166C660.773 326.041 663.673 323.464 667.037 321.632V321.632Z" fill="#FF9F1C"/>
<path opacity="0.1" d="M667.037 321.632C667.037 321.632 726.067 347.205 754.821 361.416L752.724 371.904L658.559 329.166C660.773 326.041 663.673 323.464 667.037 321.632V321.632Z" fill="white"/>
<path d="M649.085 408.665C643.142 390.154 644.348 348.097 658.559 329.113L752.724 371.852L731.206 479.721L697.102 500.05L632.636 466.838C632.968 454.078 631.78 426.512 649.085 408.665Z" fill="#FF9F1C"/>
<path opacity="0.1" d="M649.085 408.665C643.142 390.154 644.348 348.097 658.559 329.113L752.724 371.852L731.206 479.721L697.102 500.05L632.636 466.838C632.968 454.078 631.78 426.512 649.085 408.665Z" fill="black"/>
<path d="M707.363 430.288C705.773 429.379 704.462 430.113 704.462 432.036C704.516 433.035 704.805 434.007 705.306 434.873C705.807 435.738 706.506 436.473 707.346 437.018C708.936 437.944 710.247 437.21 710.247 435.374C710.206 434.358 709.922 433.367 709.42 432.482C708.919 431.598 708.214 430.845 707.363 430.288V430.288Z" fill="#FF9F1C"/>
<path d="M692.802 421.722C691.194 420.814 689.901 421.548 689.883 423.47C689.939 424.471 690.229 425.445 690.729 426.314C691.23 427.182 691.929 427.921 692.767 428.47C694.376 429.379 695.669 428.645 695.669 426.809C695.633 425.794 695.354 424.802 694.856 423.916C694.357 423.031 693.653 422.279 692.802 421.722V421.722Z" fill="#FF9F1C"/>
<path d="M678.224 413.175C676.633 412.248 675.322 412.983 675.322 414.818C675.378 415.819 675.668 416.793 676.169 417.661C676.67 418.53 677.368 419.268 678.206 419.817C679.797 420.744 681.108 419.992 681.108 418.157C681.054 417.158 680.765 416.186 680.263 415.32C679.762 414.454 679.063 413.719 678.224 413.175Z" fill="#FF9F1C"/>
<path d="M663.646 404.61C662.055 403.683 660.761 404.417 660.744 406.253C660.799 407.254 661.089 408.228 661.59 409.096C662.091 409.964 662.789 410.703 663.628 411.252C665.236 412.178 666.53 411.427 666.53 409.504C666.468 408.519 666.175 407.562 665.673 406.712C665.172 405.861 664.478 405.141 663.646 404.61V404.61Z" fill="#FF9F1C"/>
<g opacity="0.2">
<path d="M707.363 430.288C705.772 429.379 704.461 430.113 704.461 432.036C704.515 433.035 704.805 434.007 705.306 434.873C705.807 435.738 706.506 436.473 707.346 437.018C708.936 437.944 710.247 437.21 710.247 435.374C710.205 434.358 709.922 433.367 709.42 432.482C708.919 431.598 708.214 430.845 707.363 430.288V430.288Z" fill="white"/>
<path d="M692.802 421.722C691.194 420.814 689.901 421.548 689.883 423.47C689.939 424.471 690.229 425.445 690.729 426.314C691.23 427.182 691.929 427.921 692.767 428.47C694.376 429.379 695.669 428.645 695.669 426.809C695.633 425.794 695.354 424.802 694.856 423.916C694.357 423.031 693.653 422.279 692.802 421.722V421.722Z" fill="white"/>
<path d="M678.224 413.175C676.633 412.248 675.322 412.983 675.322 414.818C675.378 415.819 675.668 416.793 676.169 417.661C676.67 418.53 677.368 419.268 678.207 419.817C679.797 420.744 681.108 419.992 681.108 418.157C681.054 417.158 680.765 416.186 680.264 415.32C679.762 414.454 679.063 413.719 678.224 413.175Z" fill="white"/>
<path d="M663.646 404.61C662.055 403.683 660.761 404.417 660.744 406.253C660.799 407.254 661.089 408.228 661.59 409.096C662.091 409.964 662.789 410.703 663.628 411.252C665.236 412.178 666.53 411.427 666.53 409.504C666.468 408.519 666.175 407.562 665.673 406.712C665.172 405.861 664.478 405.141 663.646 404.61V404.61Z" fill="white"/>
</g>
<path d="M667.124 508.983C673.574 504.997 681.108 503.354 688.59 501.868C691.421 501.291 694.288 500.732 697.102 500.12C701.684 499.11 706.11 497.493 710.265 495.313C720.753 489.562 727.657 478.812 731.014 467.345C734.37 455.878 734.51 443.817 733.741 431.931C732.971 420.044 731.556 408.193 731.993 396.307C732.202 389.315 733.251 381.99 737.918 376.886C742.585 371.782 750.539 369.999 757.601 370.961C759.922 371.286 762.209 371.818 764.435 372.551L767.564 376.222L766.376 380.644L735.733 493.793C733.602 501.64 728.573 508.387 721.662 512.671C720.875 513.16 720.071 513.632 719.232 514.069L657.772 545.184L655.465 527.354C655.5 519.75 660.744 512.951 667.124 508.983Z" fill="#FF9F1C"/>
<path opacity="0.3" d="M667.124 508.983C673.574 504.997 681.108 503.354 688.59 501.868C691.421 501.291 694.288 500.732 697.102 500.12C701.684 499.11 706.11 497.493 710.265 495.313C720.753 489.562 727.657 478.812 731.014 467.345C734.37 455.878 734.51 443.817 733.741 431.931C732.971 420.044 731.556 408.193 731.993 396.307C732.202 389.315 733.251 381.99 737.918 376.886C742.585 371.782 750.539 369.999 757.601 370.961C759.922 371.286 762.209 371.818 764.435 372.551L767.564 376.222L766.376 380.644L735.733 493.793C733.602 501.64 728.573 508.387 721.662 512.671C720.875 513.16 720.071 513.632 719.232 514.069L657.772 545.184L655.465 527.354C655.5 519.75 660.744 512.951 667.124 508.983Z" fill="black"/>
<path d="M667.037 496.817C689.516 490.419 711.611 489.58 719.739 473.428C727.867 457.277 728.479 434.972 724.389 396.254C723.877 391.259 724 386.22 724.756 381.256C727.151 366.748 735.873 360.56 745.907 360.403C755.834 360.263 765.443 363.899 772.791 370.576C774.223 371.765 775.365 373.266 776.129 374.963C776.493 375.818 776.623 376.754 776.506 377.675C776.39 378.597 776.03 379.471 775.465 380.207C774.544 381.157 773.291 381.714 771.969 381.763H771.777C770.424 381.778 769.078 381.572 767.792 381.151C767.267 381.012 766.76 380.837 766.253 380.679C763.491 379.823 760.8 378.792 757.985 378.092C754.686 377.131 751.181 377.131 747.882 378.092C746.303 378.704 744.892 379.68 743.762 380.941C742.632 382.201 741.815 383.711 741.379 385.347C731.905 416.304 743.914 449.568 733.251 475.141C724.511 498.39 694.393 508.039 673.137 514.943C675.184 514.12 676.988 512.791 678.381 511.08C679.437 509.437 679.927 507.494 679.776 505.547C679.624 503.599 678.84 501.755 677.542 500.295C676.212 498.897 674.557 497.848 672.725 497.241C670.893 496.634 668.939 496.489 667.037 496.817V496.817Z" fill="#FF9F1C"/>
<path opacity="0.1" d="M667.037 496.817C689.516 490.419 711.611 489.58 719.739 473.428C727.867 457.277 728.479 434.972 724.389 396.254C723.877 391.259 724 386.22 724.756 381.256C727.151 366.748 735.873 360.56 745.907 360.403C755.834 360.263 765.443 363.899 772.791 370.576C774.223 371.765 775.365 373.266 776.129 374.963C776.493 375.818 776.623 376.754 776.506 377.675C776.39 378.597 776.03 379.471 775.465 380.207C774.544 381.157 773.291 381.714 771.969 381.763H771.777C770.424 381.778 769.078 381.572 767.792 381.151C767.267 381.012 766.76 380.837 766.253 380.679C763.491 379.823 760.8 378.792 757.985 378.092C754.686 377.131 751.181 377.131 747.882 378.092C746.303 378.704 744.892 379.68 743.762 380.941C742.632 382.201 741.815 383.711 741.379 385.347C731.905 416.304 743.914 449.568 733.251 475.141C724.511 498.39 694.393 508.039 673.137 514.943C675.184 514.12 676.988 512.791 678.381 511.08C679.437 509.437 679.927 507.494 679.776 505.547C679.624 503.599 678.84 501.755 677.542 500.295C676.212 498.897 674.557 497.848 672.725 497.241C670.893 496.634 668.939 496.489 667.037 496.817V496.817Z" fill="white"/>
<path d="M651.445 512.723C652.762 509.058 654.708 505.651 657.196 502.655C659.718 499.648 663.189 497.589 667.037 496.817C668.959 496.47 670.938 496.608 672.794 497.218C674.649 497.828 676.324 498.892 677.665 500.313C678.962 501.772 679.747 503.617 679.898 505.564C680.05 507.511 679.56 509.455 678.504 511.098C677.111 512.808 675.306 514.137 673.26 514.961C671.567 515.679 669.916 516.49 668.313 517.39C664.124 520.237 661.107 524.502 659.818 529.399C658.578 534.257 657.921 539.244 657.86 544.257L657.772 545.219L647.284 539.38C646.782 530.301 648.199 521.218 651.445 512.723V512.723Z" fill="#FF9F1C"/>
<path opacity="0.2" d="M651.445 512.723C652.762 509.058 654.708 505.651 657.196 502.655C659.718 499.648 663.189 497.589 667.037 496.817C668.959 496.47 670.938 496.608 672.794 497.218C674.649 497.828 676.324 498.892 677.665 500.313C678.962 501.772 679.747 503.617 679.898 505.564C680.05 507.511 679.56 509.455 678.504 511.098C677.111 512.808 675.306 514.137 673.26 514.961C671.567 515.679 669.916 516.49 668.313 517.39C664.124 520.237 661.107 524.502 659.818 529.399C658.578 534.257 657.921 539.244 657.86 544.257L657.772 545.219L647.284 539.38C646.782 530.301 648.199 521.218 651.445 512.723V512.723Z" fill="white"/>
<path opacity="0.1" d="M776.112 374.894C775.343 373.223 774.208 371.747 772.791 370.576C767.676 365.947 761.418 362.767 754.664 361.364C725.857 347.083 667.037 321.632 667.037 321.632C666.266 322.028 665.524 322.477 664.817 322.978C665.524 322.477 666.266 322.028 667.037 321.632C645.222 312.595 638.492 319.884 633.825 324.726C629.158 329.568 627.112 341.262 629.175 358.06C631.238 374.859 638.509 417.754 621.169 434.78C607.185 448.467 554.518 433.032 554.518 433.032C545.096 427.875 532.563 435.112 540.744 446.736C548.924 458.361 553.294 455.476 553.294 485.087L544.974 489.353C543.252 490.352 541.8 491.756 540.744 493.443C535.657 501.169 536.514 515.013 545.551 520.17L636.15 568.292C639.151 569.885 642.491 570.734 645.889 570.768C649.286 570.801 652.643 570.018 655.675 568.485L719.145 536.339C723.162 534.303 726.707 531.447 729.55 527.954C732.392 524.461 734.469 520.409 735.646 516.062L772.004 381.798C773.326 381.749 774.579 381.192 775.5 380.242C776.076 379.489 776.437 378.594 776.545 377.652C776.653 376.711 776.503 375.757 776.112 374.894V374.894ZM733.373 499.736C733.146 500.19 732.884 500.627 732.639 501.064C732.901 500.627 733.164 500.19 733.391 499.736H733.373ZM731.835 502.445C731.52 502.935 731.188 503.407 730.856 503.878C731.206 503.424 731.538 502.935 731.853 502.445H731.835ZM662.265 325.006C661.688 325.53 661.129 326.089 660.517 326.666C661.129 326.089 661.688 325.53 662.265 325.006ZM664.31 323.258C663.751 323.677 663.209 324.097 662.667 324.569C663.209 324.149 663.751 323.73 664.24 323.38L664.31 323.258ZM658.559 329.061C658.139 329.62 657.72 330.232 657.318 330.809C658.223 329.406 659.24 328.079 660.359 326.841C659.748 327.61 659.136 328.344 658.559 329.113V329.061ZM650.256 346.961C648.742 352.27 647.631 357.687 646.935 363.164C647.631 357.687 648.742 352.27 650.256 346.961V346.961ZM657.248 331.001C656.846 331.631 656.461 332.26 656.077 332.924C656.444 332.26 656.828 331.631 657.248 331.001ZM656.059 332.942C653.577 337.354 651.634 342.049 650.273 346.926C651.626 342.049 653.562 337.353 656.042 332.942H656.059ZM646.882 363.479C646.777 364.318 646.69 365.14 646.585 365.961C646.76 365.14 646.76 364.318 646.865 363.479H646.882ZM646.533 366.503C646.445 367.29 646.375 368.094 646.305 368.898C646.358 368.094 646.428 367.29 646.515 366.503H646.533ZM646.253 369.44C646.253 370.261 646.113 371.083 646.061 371.887C646.096 371.083 646.166 370.261 646.236 369.44H646.253ZM646.061 372.027C645.886 374.579 645.781 377.114 645.764 379.613C645.764 377.114 645.868 374.579 646.043 372.027H646.061ZM648.508 406.69C648.508 406.462 648.386 406.218 648.333 405.99C648.386 406.218 648.508 406.462 648.508 406.69ZM647.984 404.54C647.984 404.26 647.844 403.963 647.791 403.666C647.844 403.963 647.914 404.26 647.984 404.54ZM647.494 402.25C647.494 401.935 647.372 401.62 647.319 401.288C647.372 401.62 647.424 401.935 647.494 402.25ZM647.057 399.803L646.9 398.806L647.057 399.803ZM646.69 397.181C646.69 396.866 646.69 396.551 646.55 396.219C646.603 396.551 646.638 396.796 646.76 397.181H646.69ZM646.288 393.842C646.288 393.457 646.288 393.073 646.201 392.688C646.236 393.073 646.253 393.457 646.288 393.842ZM646.043 390.888C646.043 390.451 646.043 389.979 646.043 389.524C645.991 389.979 646.008 390.451 646.043 390.888V390.888ZM645.886 388.091C645.886 387.584 645.886 387.077 645.886 386.553C645.834 387.077 645.851 387.584 645.886 388.056V388.091ZM645.781 385.224C645.781 384.682 645.781 384.14 645.781 383.581C645.746 384.14 645.764 384.682 645.781 385.224V385.224ZM683.101 492.936L632.636 466.891L683.101 492.936ZM723.672 511.185C722.99 511.692 722.274 512.199 721.539 512.653C722.326 512.164 723.043 511.692 723.672 511.185ZM724.161 510.835C724.773 510.364 725.35 509.874 725.909 509.367C725.42 509.874 724.826 510.416 724.214 510.835H724.161ZM726.591 508.773C727.098 508.283 727.587 507.794 728.059 507.287C727.64 507.794 727.168 508.283 726.644 508.773H726.591ZM730.087 504.962C729.685 505.469 729.283 505.959 728.864 506.448C729.283 505.959 729.685 505.469 730.087 504.962V504.962ZM734.195 497.97C734.352 497.603 734.527 497.236 734.667 496.869C734.527 497.201 734.352 497.568 734.16 497.935L734.195 497.97Z" fill="black"/>
<path d="M618.04 548.68C628.491 544.114 637.108 536.174 642.512 526.131C647.844 516.167 650.501 507.392 648.473 496.257L567.086 464.234C564.552 488.461 542.299 504.316 542.299 504.316L618.04 548.68Z" fill="#37474F"/>
<path d="M529.242 644.208C529.242 650.763 529.469 660.359 529.469 660.359L533.839 660.604C535.921 660.715 537.923 661.437 539.596 662.681C541.269 663.925 542.538 665.635 543.243 667.596L543.348 667.876C543.713 668.876 544.448 669.697 545.401 670.172C546.353 670.647 547.452 670.738 548.47 670.428V670.428C549.013 670.257 549.515 669.976 549.944 669.603C550.374 669.23 550.723 668.773 550.97 668.26L553.067 646.76L529.242 644.208Z" fill="#FFA8A7"/>
<path d="M523.037 709.688C511.535 714.6 493.95 715.561 486.643 703.832V706.996C493.95 718.725 511.535 717.764 523.037 712.869C534.538 707.975 532.004 699.934 542.265 695.634C546.031 694.264 549.459 692.1 552.316 689.289C552.316 688.362 552.508 687.174 552.665 685.793C549.622 688.605 546.1 690.849 542.265 692.418C532.004 696.735 534.521 704.741 523.037 709.688Z" fill="#FAFAFA"/>
<path d="M552.7 675.375C552.232 673.138 552.232 670.829 552.7 668.592C552.833 668.083 552.856 667.551 552.765 667.032C552.675 666.513 552.474 666.02 552.176 665.586L551.249 664.677L550.9 668.173C550.551 668.913 549.99 669.532 549.289 669.953C548.587 670.373 547.777 670.575 546.96 670.534C546.143 670.493 545.357 670.21 544.702 669.721C544.046 669.232 543.551 668.56 543.278 667.788L543.173 667.509C542.468 665.547 541.199 663.838 539.526 662.594C537.853 661.35 535.851 660.628 533.769 660.517L529.312 660.272C528.651 660.23 527.994 660.396 527.432 660.747C526.871 661.099 526.434 661.617 526.183 662.23C521.586 673.295 510.066 685.583 501.187 691.194C494.649 691.054 486.573 696.438 486.573 703.046V703.71C493.88 715.439 511.465 714.477 522.967 709.566C534.468 704.654 531.934 696.648 542.195 692.33C546.03 690.762 549.552 688.518 552.595 685.705C553.117 682.284 553.152 678.806 552.7 675.375V675.375Z" fill="#FF9F1C"/>
<path opacity="0.2" d="M552.7 675.375C552.232 673.138 552.232 670.829 552.7 668.592C552.833 668.083 552.856 667.551 552.765 667.032C552.675 666.513 552.474 666.02 552.176 665.586L551.249 664.677L550.9 668.173C550.551 668.913 549.99 669.532 549.289 669.953C548.587 670.373 547.777 670.575 546.96 670.534C546.143 670.493 545.357 670.21 544.702 669.721C544.046 669.232 543.551 668.56 543.278 667.788L543.173 667.509C542.468 665.547 541.199 663.838 539.526 662.594C537.853 661.35 535.851 660.628 533.769 660.517L529.312 660.272C528.651 660.23 527.994 660.396 527.432 660.747C526.871 661.099 526.434 661.617 526.183 662.23C521.586 673.295 510.066 685.583 501.187 691.194C494.649 691.054 486.573 696.438 486.573 703.046V703.71C493.88 715.439 511.465 714.477 522.967 709.566C534.468 704.654 531.934 696.648 542.195 692.33C546.03 690.762 549.552 688.518 552.595 685.705C553.117 682.284 553.152 678.806 552.7 675.375V675.375Z" fill="black"/>
<path opacity="0.25" d="M552.7 675.375C552.232 673.138 552.232 670.829 552.7 668.592C552.833 668.083 552.856 667.551 552.765 667.032C552.675 666.513 552.474 666.02 552.176 665.586L551.249 664.677L550.9 668.173C550.551 668.913 549.99 669.532 549.289 669.953C548.587 670.373 547.777 670.575 546.96 670.534C546.143 670.493 545.357 670.21 544.702 669.721C544.046 669.232 543.551 668.56 543.278 667.788L543.173 667.509C542.468 665.547 541.199 663.838 539.526 662.594C537.853 661.35 535.851 660.628 533.769 660.517L529.312 660.272C528.651 660.23 527.994 660.396 527.432 660.747C526.871 661.099 526.434 661.617 526.183 662.23C521.586 673.295 510.066 685.583 501.187 691.194C494.649 691.054 486.573 696.438 486.573 703.046V703.71C493.88 715.439 511.465 714.477 522.967 709.566C534.468 704.654 531.934 696.648 542.195 692.33C546.03 690.762 549.552 688.518 552.595 685.705C553.117 682.284 553.152 678.806 552.7 675.375V675.375Z" fill="white"/>
<path d="M530.466 684.447C530.722 684.704 531.064 684.858 531.427 684.878C531.79 684.898 532.147 684.782 532.429 684.554C532.712 684.326 532.9 684.001 532.957 683.642C533.014 683.283 532.936 682.916 532.738 682.612C531.019 680.313 528.734 678.498 526.106 677.343C523.478 676.188 520.596 675.733 517.74 676.022C517.111 676.791 516.499 677.542 515.852 678.276C518.614 677.949 521.414 678.345 523.976 679.427C526.538 680.509 528.774 682.239 530.466 684.447Z" fill="white"/>
<path d="M534.993 679.378C535.249 679.635 535.592 679.789 535.954 679.809C536.317 679.828 536.674 679.713 536.957 679.485C537.239 679.256 537.427 678.931 537.484 678.573C537.541 678.214 537.463 677.847 537.265 677.542C535.45 675.176 533.059 673.314 530.321 672.133C527.582 670.952 524.587 670.492 521.621 670.795C521.061 671.617 520.484 672.421 519.873 673.242C525.501 672.84 530.518 673.906 534.993 679.378Z" fill="white"/>
<path d="M525.763 689.394C525.882 689.542 526.029 689.665 526.196 689.756C526.364 689.846 526.547 689.902 526.737 689.92C526.926 689.938 527.117 689.918 527.298 689.86C527.479 689.803 527.647 689.71 527.791 689.586C528.09 689.352 528.283 689.008 528.329 688.631C528.375 688.255 528.27 687.875 528.036 687.576C526.355 685.331 524.134 683.546 521.579 682.388C519.025 681.23 516.219 680.736 513.423 680.951C512.671 681.737 511.919 682.489 511.168 683.223C513.926 682.909 516.718 683.312 519.275 684.393C521.832 685.474 524.067 687.196 525.763 689.394V689.394Z" fill="white"/>
<path d="M501.256 691.282C494.719 691.142 486.643 696.526 486.643 703.133V703.797C493.845 715.352 511.01 714.582 522.495 709.863C521.621 694.078 506.466 691.229 501.256 691.282Z" fill="white"/>
<path d="M520.904 694.131C521.155 694.369 521.482 694.51 521.828 694.528C522.173 694.546 522.514 694.44 522.788 694.229C523.063 694.018 523.252 693.716 523.324 693.378C523.395 693.039 523.343 692.686 523.176 692.383C521.498 690.13 519.275 688.34 516.716 687.182C514.157 686.023 511.346 685.533 508.546 685.758C507.619 686.579 506.71 687.349 505.801 688.065C511.412 687.611 516.429 688.712 520.904 694.131Z" fill="white"/>
<path d="M563.415 604.196C562.506 618.722 558.801 629.245 555.951 649.032C555.951 649.032 538.576 654.276 527.739 646.655L527.302 616.17L563.415 604.196Z" fill="#37474F"/>
<path d="M467.625 622.026C466.174 628.371 463.272 636.831 463.272 636.831L467.66 637.076C469.74 637.191 471.741 637.916 473.413 639.159C475.085 640.402 476.355 642.109 477.064 644.068L477.152 644.348C477.513 645.35 478.248 646.173 479.202 646.645C480.157 647.118 481.257 647.203 482.273 646.882V646.882C482.819 646.717 483.323 646.439 483.754 646.065C484.185 645.692 484.532 645.232 484.773 644.715L491.38 627.392L467.625 622.026Z" fill="#FFA8A7"/>
<path d="M456.84 686.142C445.338 691.037 427.753 691.998 420.446 680.269V683.468C427.753 695.197 445.338 694.236 456.84 689.324C468.342 684.412 465.807 676.406 476.068 672.089C479.837 670.724 483.266 668.559 486.119 665.743C486.119 664.817 486.311 663.646 486.468 662.247C483.423 665.061 479.901 667.31 476.068 668.89C465.807 673.207 468.324 681.231 456.84 686.142Z" fill="#FAFAFA"/>
<path d="M486.521 651.847C486.046 649.617 486.046 647.312 486.521 645.082C486.654 644.572 486.676 644.04 486.586 643.521C486.495 643.003 486.294 642.51 485.996 642.075L485.822 641.831L484.72 644.715C484.479 645.231 484.132 645.692 483.702 646.065C483.271 646.438 482.766 646.717 482.221 646.882C481.205 647.203 480.105 647.118 479.15 646.645C478.195 646.173 477.46 645.35 477.099 644.348L477.012 644.068C476.302 642.109 475.032 640.402 473.36 639.159C471.688 637.916 469.688 637.191 467.607 637.076L463.15 636.831C462.486 636.795 461.826 636.965 461.263 637.319C460.699 637.672 460.259 638.192 460.004 638.807C455.424 649.854 443.887 662.142 435.007 667.771C428.487 667.614 420.394 673.015 420.394 679.622V680.269C427.701 691.998 445.286 691.037 456.787 686.142C468.289 681.248 465.755 673.207 476.015 668.907C479.849 667.327 483.37 665.078 486.416 662.265C486.938 658.814 486.974 655.307 486.521 651.847V651.847Z" fill="#FF9F1C"/>
<path opacity="0.2" d="M486.521 651.847C486.046 649.617 486.046 647.312 486.521 645.082C486.654 644.572 486.676 644.04 486.586 643.521C486.495 643.003 486.294 642.51 485.996 642.075L485.822 641.831L484.72 644.715C484.479 645.231 484.132 645.692 483.702 646.065C483.271 646.438 482.766 646.717 482.221 646.882C481.205 647.203 480.105 647.118 479.15 646.645C478.195 646.173 477.46 645.35 477.099 644.348L477.012 644.068C476.302 642.109 475.032 640.402 473.36 639.159C471.688 637.916 469.688 637.191 467.607 637.076L463.15 636.831C462.486 636.795 461.826 636.965 461.263 637.319C460.699 637.672 460.259 638.192 460.004 638.807C455.424 649.854 443.887 662.142 435.007 667.771C428.487 667.614 420.394 673.015 420.394 679.622V680.269C427.701 691.998 445.286 691.037 456.787 686.142C468.289 681.248 465.755 673.207 476.015 668.907C479.849 667.327 483.37 665.078 486.416 662.265C486.938 658.814 486.974 655.307 486.521 651.847V651.847Z" fill="black"/>
<path opacity="0.25" d="M486.521 651.847C486.046 649.617 486.046 647.312 486.521 645.082C486.654 644.572 486.676 644.04 486.586 643.521C486.495 643.003 486.294 642.51 485.996 642.075L485.822 641.831L484.72 644.715C484.479 645.231 484.132 645.692 483.702 646.065C483.271 646.438 482.766 646.717 482.221 646.882C481.205 647.203 480.105 647.118 479.15 646.645C478.195 646.173 477.46 645.35 477.099 644.348L477.012 644.068C476.302 642.109 475.032 640.402 473.36 639.159C471.688 637.916 469.688 637.191 467.607 637.076L463.15 636.831C462.486 636.795 461.826 636.965 461.263 637.319C460.699 637.672 460.259 638.192 460.004 638.807C455.424 649.854 443.887 662.142 435.007 667.771C428.487 667.614 420.394 673.015 420.394 679.622V680.269C427.701 691.998 445.286 691.037 456.787 686.142C468.289 681.248 465.755 673.207 476.015 668.907C479.849 667.327 483.37 665.078 486.416 662.265C486.938 658.814 486.974 655.307 486.521 651.847V651.847Z" fill="white"/>
<path d="M464.269 660.919C464.52 661.157 464.847 661.298 465.193 661.316C465.538 661.334 465.879 661.228 466.153 661.017C466.427 660.806 466.617 660.504 466.688 660.166C466.759 659.827 466.707 659.474 466.541 659.171C464.822 656.872 462.537 655.057 459.909 653.903C457.281 652.748 454.399 652.292 451.543 652.581C450.932 653.332 450.302 654.084 449.656 654.818C452.411 654.486 455.205 654.874 457.766 655.943C460.327 657.012 462.567 658.726 464.269 660.919V660.919Z" fill="white"/>
<path d="M468.796 655.85C469.047 656.139 469.399 656.32 469.78 656.356C470.161 656.392 470.541 656.279 470.841 656.042C471.137 655.805 471.327 655.46 471.37 655.084C471.413 654.707 471.304 654.329 471.069 654.032C469.255 651.663 466.865 649.797 464.127 648.613C461.388 647.429 458.392 646.966 455.424 647.267C454.865 648.089 454.288 648.91 453.676 649.714C459.304 649.33 464.321 650.378 468.796 655.85Z" fill="white"/>
<path d="M459.567 665.883C459.823 666.141 460.165 666.294 460.528 666.314C460.891 666.334 461.248 666.218 461.531 665.99C461.813 665.762 462.001 665.437 462.058 665.078C462.115 664.719 462.037 664.352 461.839 664.048C460.16 661.801 457.94 660.016 455.384 658.861C452.828 657.705 450.022 657.216 447.226 657.44C446.492 658.209 445.74 658.979 444.988 659.713C447.745 659.391 450.537 659.791 453.092 660.873C455.648 661.954 457.879 663.681 459.567 665.883V665.883Z" fill="white"/>
<path d="M435.06 667.736C428.54 667.579 420.446 672.98 420.446 679.587V680.234C427.648 691.788 444.814 691.019 456.315 686.3C455.424 670.55 440.269 667.736 435.06 667.736Z" fill="white"/>
<path d="M454.725 670.62C454.846 670.765 454.995 670.885 455.162 670.973C455.33 671.06 455.514 671.114 455.702 671.13C455.891 671.146 456.08 671.125 456.261 671.068C456.441 671.01 456.608 670.917 456.752 670.795C456.901 670.679 457.025 670.535 457.117 670.37C457.209 670.206 457.267 670.025 457.288 669.838C457.31 669.65 457.293 669.461 457.24 669.28C457.187 669.099 457.099 668.931 456.98 668.785C455.301 666.534 453.077 664.747 450.518 663.591C447.959 662.435 445.148 661.949 442.349 662.177C441.422 662.981 440.513 663.751 439.605 664.485C445.216 664.083 450.232 665.149 454.725 670.62Z" fill="white"/>
<path d="M507.812 587.905C504.455 602.064 499.071 611.8 492.884 630.818C492.884 630.818 474.862 632.986 465.475 623.704L473.568 573.991L507.812 587.905Z" fill="#37474F"/>
<path d="M289.364 485.682V635.625L294.66 632.549V482.605L289.364 485.682Z" fill="#455A64"/>
<path d="M289.364 485.682V635.625L284.067 632.549V482.605L289.364 485.682Z" fill="#37474F"/>
<path d="M294.66 525.659L418.768 454.008V448.31L294.66 519.96V525.659Z" fill="#455A64"/>
<path d="M294.66 513.947L413.454 445.251L418.768 448.31L294.66 519.96V513.947Z" fill="#37474F"/>
<path d="M663.908 552.648V702.591L669.222 699.532V549.589L663.908 552.648Z" fill="#455A64"/>
<path d="M663.908 552.648V702.591L658.611 699.532V549.589L663.908 552.648Z" fill="#37474F"/>
<path d="M534.521 627.392V777.336L539.817 774.259V624.316L534.521 627.392Z" fill="#455A64"/>
<path d="M534.521 627.392V777.336L529.207 774.259V624.316L534.521 627.392Z" fill="#37474F"/>
<path d="M539.817 667.369L663.908 595.718V590.037L539.817 661.67V667.369Z" fill="#455A64"/>
<path d="M539.817 655.657L658.611 586.961L663.908 590.037L539.817 661.67V655.657Z" fill="#37474F"/>
<g opacity="0.2">
<path d="M663.908 552.648V702.591L669.222 699.532V549.589L663.908 552.648Z" fill="white"/>
<path d="M663.908 552.648V702.591L658.611 699.532V549.589L663.908 552.648Z" fill="white"/>
<path d="M534.521 627.392V777.336L539.817 774.259V624.316L534.521 627.392Z" fill="white"/>
<path d="M534.521 627.392V777.336L529.207 774.259V624.316L534.521 627.392Z" fill="white"/>
<path d="M539.817 667.369L663.908 595.718V590.037L539.817 661.67V667.369Z" fill="white"/>
<path d="M539.817 655.657L658.611 586.961L663.908 590.037L539.817 661.67V655.657Z" fill="white"/>
</g>
<g opacity="0.2">
<path d="M289.364 485.682V635.625L294.66 632.549V482.605L289.364 485.682Z" fill="white"/>
<path d="M289.364 485.682V635.625L284.067 632.549V482.605L289.364 485.682Z" fill="white"/>
<path d="M294.66 525.659L418.768 454.008V448.31L294.66 519.96V525.659Z" fill="white"/>
<path d="M294.66 513.947L413.454 445.251L418.768 448.31L294.66 519.96V513.947Z" fill="white"/>
</g>
<path d="M534.521 612.901L284.05 468.551L418.751 390.748L669.222 535.115L534.521 612.901Z" fill="#455A64"/>
<path d="M534.521 627.392L284.05 482.605V468.551L534.521 612.901V627.392Z" fill="#455A64"/>
<path d="M534.521 612.901L669.222 535.098V549.589L534.521 627.392V612.901Z" fill="#455A64"/>
<path opacity="0.3" d="M534.521 612.901L284.05 468.551L418.751 390.748L669.222 535.115L534.521 612.901Z" fill="white"/>
<path opacity="0.1" d="M534.521 612.901L669.222 535.098V549.589L534.521 627.392V612.901Z" fill="white"/>
<path opacity="0.2" d="M534.521 627.392L284.05 482.605V468.551L534.521 612.901V627.392Z" fill="white"/>
<path d="M431.319 425.114L411.234 469.023L358.812 460.895L378.879 416.985L431.319 425.114Z" fill="#E6E6E6"/>
<path d="M451.001 433.609L405.606 470.632L361.364 452.4L406.742 415.377L451.001 433.609Z" fill="#F0F0F0"/>
<path d="M460.301 421.251L487.482 448.467L419.59 471.156L392.374 443.922L460.301 421.251Z" fill="white"/>
<path d="M419.852 495.418L474.809 463.465C476.559 462.577 478.493 462.115 480.455 462.115C482.417 462.115 484.352 462.577 486.101 463.465L576.84 515.817C577.457 516.1 577.993 516.533 578.399 517.077C578.805 517.62 579.069 518.257 579.165 518.929V522.425C579.191 522.669 579.191 522.915 579.165 523.159C579.165 523.159 579.165 523.159 579.165 523.159C579.065 523.429 578.936 523.686 578.78 523.928V523.928C578.588 524.213 578.359 524.472 578.099 524.697V524.697C577.785 524.974 577.445 525.219 577.085 525.431L521.865 557.612C521.364 557.888 520.837 558.117 520.292 558.294L519.68 558.486L518.876 558.678L517.897 558.853H517.67C517.233 558.853 516.779 558.853 516.324 558.853H516.115C515.66 558.853 515.223 558.853 514.786 558.853H514.594C514.157 558.853 513.72 558.731 513.3 558.643H513.073C512.7 558.548 512.332 558.431 511.972 558.294H511.762C511.349 558.126 510.946 557.933 510.556 557.717L419.887 505.172C419.518 504.964 419.173 504.718 418.856 504.438C418.751 504.35 418.681 504.246 418.594 504.158C418.422 503.997 418.264 503.821 418.122 503.634C418.05 503.531 417.991 503.419 417.947 503.302C417.84 503.134 417.747 502.959 417.667 502.777C417.659 502.655 417.659 502.532 417.667 502.41C417.65 502.236 417.65 502.06 417.667 501.886V498.669C417.717 497.984 417.945 497.324 418.328 496.754C418.711 496.184 419.237 495.723 419.852 495.418V495.418Z" fill="#E0E0E0"/>
<path opacity="0.3" d="M579.095 518.929C579.127 519.263 579.097 519.601 579.008 519.925C579.008 519.925 579.008 519.925 579.008 519.925C578.908 520.195 578.779 520.453 578.623 520.694V520.782C578.425 521.057 578.197 521.31 577.941 521.533V521.533C577.627 521.81 577.288 522.056 576.927 522.267L521.97 554.203C521.469 554.48 520.942 554.708 520.397 554.885L519.785 555.077L518.981 555.27C518.658 555.346 518.332 555.405 518.002 555.444H517.775C517.338 555.444 516.884 555.444 516.429 555.444H516.219C515.765 555.444 515.328 555.444 514.891 555.444H514.699C514.262 555.444 513.825 555.305 513.405 555.217H513.178C512.804 555.122 512.437 555.005 512.077 554.868H511.867C511.453 554.7 511.051 554.507 510.661 554.291L419.992 501.938C419.623 501.731 419.278 501.484 418.961 501.204C418.864 501.119 418.777 501.026 418.698 500.924C418.523 500.767 418.365 500.591 418.226 500.4C418.155 500.297 418.096 500.185 418.052 500.068C417.945 499.901 417.852 499.725 417.772 499.543C417.764 499.421 417.764 499.299 417.772 499.176C417.755 499.002 417.755 498.826 417.772 498.652V501.868C417.755 502.043 417.755 502.218 417.772 502.393C417.764 502.515 417.764 502.638 417.772 502.76C417.852 502.942 417.945 503.117 418.052 503.284C418.096 503.402 418.155 503.513 418.226 503.616C418.369 503.804 418.527 503.979 418.698 504.141C418.786 504.228 418.856 504.333 418.961 504.42C419.278 504.701 419.623 504.947 419.992 505.154L510.556 557.612C510.946 557.829 511.349 558.021 511.762 558.189H511.972C512.332 558.326 512.7 558.443 513.073 558.538H513.3C513.72 558.538 514.157 558.696 514.594 558.748H514.786C515.223 558.748 515.66 558.748 516.115 558.748H516.324C516.779 558.748 517.233 558.748 517.67 558.748H517.897L518.876 558.573L519.68 558.381L520.292 558.189C520.837 558.012 521.364 557.783 521.865 557.507L576.84 525.589C577.201 525.377 577.54 525.131 577.854 524.854V524.854C578.114 524.629 578.343 524.371 578.536 524.085V524.085C578.691 523.844 578.82 523.586 578.92 523.316C578.92 523.316 578.92 523.316 578.92 523.316C578.946 523.072 578.946 522.826 578.92 522.582V519.086L579.095 518.929Z" fill="black"/>
<path d="M425.218 498.669L513.318 549.536C513.428 549.601 513.545 549.654 513.667 549.694H513.86C514.08 549.783 514.308 549.853 514.541 549.903L515.031 549.991H515.363C515.59 549.991 515.852 549.991 516.219 549.991C516.522 550.014 516.826 550.014 517.128 549.991L517.705 549.903L518.422 549.711C518.633 549.642 518.838 549.554 519.034 549.449L547.439 533.14L456.438 480.525L425.218 498.669Z" fill="#E0E0E0"/>
<path d="M509.035 484.685L492.447 494.439C492.212 494.6 492.021 494.815 491.888 495.066C491.756 495.318 491.686 495.597 491.686 495.881C491.686 496.165 491.756 496.445 491.888 496.696C492.021 496.948 492.212 497.163 492.447 497.323L517.233 511.64C517.652 511.884 518.129 512.012 518.614 512.012C519.099 512.012 519.576 511.884 519.995 511.64L536.566 501.903C536.804 501.743 536.999 501.527 537.134 501.274C537.269 501.021 537.339 500.739 537.339 500.452C537.339 500.166 537.269 499.883 537.134 499.63C536.999 499.377 536.804 499.161 536.566 499.002L511.779 484.685C511.362 484.445 510.889 484.318 510.407 484.318C509.926 484.318 509.452 484.445 509.035 484.685V484.685Z" fill="#E0E0E0"/>
<path opacity="0.2" d="M425.218 498.669L513.318 549.536C513.428 549.601 513.545 549.654 513.667 549.694H513.86C514.08 549.783 514.308 549.853 514.541 549.903L515.031 549.991H515.363C515.59 549.991 515.852 549.991 516.219 549.991C516.522 550.014 516.826 550.014 517.128 549.991L517.705 549.903L518.422 549.711C518.633 549.642 518.838 549.554 519.034 549.449L547.439 533.14L456.438 480.525L425.218 498.669Z" fill="black"/>
<path opacity="0.2" d="M509.035 484.685L492.447 494.439C492.212 494.6 492.021 494.815 491.888 495.066C491.756 495.318 491.686 495.597 491.686 495.881C491.686 496.165 491.756 496.445 491.888 496.696C492.021 496.948 492.212 497.163 492.447 497.323L517.233 511.64C517.652 511.884 518.129 512.012 518.614 512.012C519.099 512.012 519.576 511.884 519.995 511.64L536.566 501.903C536.804 501.743 536.999 501.527 537.134 501.274C537.269 501.021 537.339 500.739 537.339 500.452C537.339 500.166 537.269 499.883 537.134 499.63C536.999 499.377 536.804 499.161 536.566 499.002L511.779 484.685C511.362 484.445 510.889 484.318 510.407 484.318C509.926 484.318 509.452 484.445 509.035 484.685V484.685Z" fill="black"/>
<path d="M552.718 407.931L541.635 435.899L497.935 453.921C495.286 455.009 492.416 455.452 489.562 455.214L472.729 453.833C470.755 453.68 468.782 454.144 467.083 455.162L457.452 461C456.48 461.588 455.612 462.332 454.882 463.203L450.162 468.796C449.842 469.167 449.603 469.601 449.461 470.07C449.319 470.539 449.277 471.032 449.338 471.518C449.399 472.005 449.561 472.473 449.815 472.892C450.068 473.311 450.407 473.673 450.809 473.953L453.781 476.085C455.344 477.212 457.187 477.886 459.108 478.034C461.029 478.182 462.954 477.798 464.671 476.924L472.117 473.166L487.517 474.914V478.952L483.322 482.448C482.826 482.871 482.43 483.398 482.162 483.991C481.893 484.585 481.759 485.23 481.769 485.881C481.779 486.533 481.933 487.174 482.22 487.759C482.506 488.344 482.918 488.858 483.427 489.265C483.427 489.265 493.723 486.224 503.039 471.278L557.769 459.724C560.844 459.073 563.7 457.643 566.064 455.571C568.427 453.499 570.217 450.854 571.264 447.89L581.752 418.174L552.718 407.931Z" fill="#FFA8A7"/>
<path d="M582.853 360.508C575.407 359.668 570.897 359.983 563.835 371.852C555.27 386.238 547.072 413.804 547.072 413.804C563.52 421.845 582.853 423.156 582.853 423.156C587.031 412.633 582.853 360.508 582.853 360.508Z" fill="#FF9F1C"/>
<g opacity="0.3">
<path d="M582.853 360.508C575.407 359.668 570.897 359.983 563.835 371.852C555.27 386.238 547.072 413.804 547.072 413.804C563.52 421.845 582.853 423.156 582.853 423.156C587.031 412.633 582.853 360.508 582.853 360.508Z" fill="white"/>
</g>
<path d="M642.914 373.583C619.509 362.605 601.976 361.347 582.853 360.508C554.221 378.931 564.936 394.279 565.373 418.891C565.793 439.622 569.656 453.449 560.671 472.572L616.153 504.56C632.252 504.368 645.169 500.575 650.413 497.236C657.772 429.134 655.622 378.827 642.914 373.583Z" fill="#FF9F1C"/>
<path opacity="0.5" d="M642.914 373.583C619.509 362.605 601.976 361.347 582.853 360.508C554.221 378.931 564.936 394.279 565.373 418.891C565.793 439.622 569.656 453.449 560.671 472.572L616.153 504.56C632.252 504.368 645.169 500.575 650.413 497.236C657.772 429.134 655.622 378.827 642.914 373.583Z" fill="white"/>
<path d="M619.753 437.664L612.761 468.604L564.604 488.461C561.689 489.658 558.533 490.149 555.392 489.894L536.846 488.374C534.67 488.189 532.492 488.697 530.623 489.825L519.995 496.257C518.924 496.906 517.968 497.727 517.163 498.687L511.919 504.84C511.573 505.251 511.316 505.73 511.164 506.246C511.011 506.762 510.967 507.304 511.035 507.837C511.102 508.371 511.279 508.885 511.555 509.346C511.83 509.808 512.198 510.208 512.636 510.521L515.905 512.863C517.627 514.1 519.656 514.84 521.771 515.004C523.885 515.167 526.004 514.747 527.896 513.79L536.112 509.647L549.589 512.094C555.687 513.19 561.977 512.153 567.401 509.157L570.233 507.584L629 495.173C632.768 494.378 636.229 492.519 638.974 489.818C641.719 487.117 643.632 483.686 644.488 479.931L652.406 445.74L619.753 437.664Z" fill="#FFA8A7"/>
<path d="M642.914 373.583C670.882 384.071 664.555 408.962 654.206 448.397C637.548 453.012 617.813 438.503 617.813 438.503C623.284 407.284 625.364 373.093 642.914 373.583Z" fill="#FF9F1C"/>
<path opacity="0.3" d="M642.914 373.583C670.882 384.071 664.555 408.962 654.206 448.397C637.548 453.012 617.813 438.503 617.813 438.503C623.284 407.284 625.364 373.093 642.914 373.583Z" fill="white"/>
<path d="M405.047 431.389L407.214 430.305C407.604 430.141 408.026 430.07 408.447 430.098C408.869 430.125 409.279 430.25 409.644 430.462L500.942 483.549C502.359 484.371 503.575 485.499 504.5 486.851C505.426 488.203 506.038 489.744 506.291 491.363L515.66 551.057C515.753 551.64 515.652 552.237 515.375 552.757C515.097 553.278 514.657 553.693 514.122 553.941V553.941L512.007 554.973C511.624 555.121 511.213 555.181 510.805 555.148C510.396 555.115 510 554.989 509.647 554.78L418.419 501.676C417.002 500.853 415.787 499.725 414.862 498.374C413.936 497.022 413.324 495.481 413.07 493.862L403.683 434.168C403.599 433.621 403.685 433.062 403.929 432.565C404.173 432.068 404.563 431.657 405.047 431.389V431.389Z" fill="#E0E0E0"/>
<path d="M454.847 485.944C457.16 487.391 459.156 489.293 460.712 491.535C462.269 493.776 463.354 496.311 463.902 498.984C464.496 503.651 461.42 505.382 456.997 502.83C454.686 501.376 452.692 499.47 451.136 497.226C449.58 494.982 448.494 492.446 447.942 489.772C447.348 485.192 450.442 483.462 454.847 485.944Z" fill="white"/>
<path opacity="0.3" d="M513.912 551.966L504.525 492.289C504.272 490.668 503.661 489.124 502.735 487.77C501.81 486.415 500.594 485.284 499.176 484.458L407.878 431.389C407.462 431.145 406.989 431.016 406.506 431.016C406.024 431.016 405.55 431.145 405.134 431.389V431.389L407.301 430.305C407.691 430.141 408.113 430.07 408.535 430.098C408.957 430.125 409.366 430.25 409.731 430.462L501.029 483.549C502.447 484.371 503.662 485.499 504.588 486.851C505.513 488.203 506.125 489.744 506.378 491.363L515.66 551.057C515.753 551.64 515.652 552.237 515.375 552.757C515.097 553.278 514.657 553.694 514.122 553.941V553.941L512.007 554.973C512.63 554.78 513.164 554.371 513.513 553.82C513.862 553.269 514.004 552.612 513.912 551.966V551.966Z" fill="black"/>
<path d="M566.352 331.089C562.199 328.106 559.311 323.677 558.257 318.673C557.202 313.67 558.057 308.453 560.653 304.047C558.325 303.018 556.419 301.223 555.252 298.96C554.763 297.869 554.613 296.656 554.822 295.479C555.031 294.302 555.59 293.215 556.425 292.359C557.26 291.503 558.333 290.918 559.505 290.68C560.677 290.442 561.893 290.562 562.996 291.025C562.385 289.255 562.383 287.332 562.992 285.561C563.6 283.79 564.783 282.274 566.352 281.253C567.937 280.368 569.78 280.059 571.567 280.377C573.354 280.696 574.976 281.623 576.158 283.001C576.13 281.852 576.469 280.724 577.126 279.781C577.783 278.838 578.724 278.129 579.812 277.757C582.072 277.168 584.462 277.321 586.629 278.194C588.814 278.946 590.876 279.942 593.079 280.729C596.877 281.672 600.772 282.171 604.686 282.215C608.611 282.248 612.464 283.27 615.89 285.186C619.159 287.319 622.061 292.283 620.295 296.548C620.854 295.834 621.557 295.246 622.358 294.822C623.159 294.397 624.04 294.146 624.945 294.084C625.839 294.06 626.728 294.228 627.551 294.578C628.375 294.928 629.113 295.451 629.717 296.111C627.27 297.632 624.91 299.258 622.48 300.761C624.927 299.66 628.598 301.39 629.927 303.732C631.065 306.188 631.518 308.906 631.238 311.598C630.904 321.856 629.067 332.01 625.784 341.734C624.123 346.751 621.711 352.065 617.044 354.39L566.352 331.089Z" fill="#37474F"/>
<path d="M592.222 355.246L593.306 367.237C593.353 368.166 593.115 369.087 592.624 369.877C591.963 371.132 591.709 372.562 591.897 373.968C592.084 375.375 592.705 376.688 593.673 377.725C595.226 378.873 597.109 379.486 599.04 379.473C602.681 379.671 606.322 379.098 609.726 377.79C613.13 376.483 616.22 374.471 618.792 371.887C619.315 371.342 619.724 370.698 619.994 369.992C620.264 369.287 620.39 368.534 620.365 367.779L619.579 337.364L592.222 355.246Z" fill="#FFA8A7"/>
<path opacity="0.3" d="M617.236 338.937L592.222 355.246L593.184 365.874C598.987 364.51 604.843 362.832 609.44 359.092C612.344 356.67 614.583 353.549 615.947 350.023C617.311 346.497 617.754 342.682 617.236 338.937V338.937Z" fill="black"/>
<path d="M564.971 306.372C563.141 320.282 564.056 334.416 567.663 347.974C568.353 350.966 569.466 353.844 570.967 356.522C572.477 359.219 574.855 361.325 577.714 362.5C581.21 363.829 585.16 363.182 588.866 362.5C595.666 361.312 602.623 360.053 608.514 356.47C614.405 352.886 619.089 346.454 618.512 339.584C620.189 340.625 622.099 341.227 624.069 341.337C626.039 341.447 628.005 341.061 629.787 340.213C631.529 339.256 633.007 337.881 634.087 336.213C635.167 334.544 635.815 332.633 635.975 330.652C636.237 326.806 634.017 322.523 630.241 321.772C629.073 321.602 627.882 321.684 626.749 322.013C625.615 322.341 624.565 322.909 623.669 323.677C621.892 325.23 620.35 327.032 619.089 329.026C618.505 329.993 617.725 330.827 616.799 331.473C616.337 331.793 615.788 331.965 615.226 331.965C614.664 331.965 614.115 331.793 613.653 331.473C613.248 330.997 612.957 330.434 612.803 329.828C612.648 329.222 612.634 328.589 612.761 327.977L613.146 319.237C613.167 318.571 612.997 317.913 612.657 317.34C612.316 316.767 611.819 316.303 611.223 316.003C609.426 315.023 608.042 313.429 607.325 311.511C606.687 309.831 606.315 308.062 606.224 306.267C606.198 305.931 606.094 305.606 605.92 305.317C605.745 305.029 605.505 304.786 605.22 304.607C604.934 304.428 604.61 304.319 604.274 304.289C603.939 304.258 603.601 304.307 603.287 304.432C591.593 309.256 577.032 309.396 564.971 306.372Z" fill="#FFA8A7"/>
<path d="M584.129 327.488L576.298 340.668L585.632 342.416L584.129 327.488Z" fill="#F28F8F"/>
<path d="M594.635 346.961L587.538 350.457C588.146 351.263 589.001 351.849 589.972 352.127C590.944 352.404 591.979 352.358 592.922 351.995C593.74 351.478 594.356 350.697 594.668 349.78C594.98 348.864 594.968 347.869 594.635 346.961V346.961Z" fill="#F28F8F"/>
<path opacity="0.3" d="M594.635 346.961L587.538 350.457C588.146 351.263 589.001 351.849 589.972 352.127C590.944 352.404 591.979 352.358 592.922 351.995C593.74 351.478 594.356 350.697 594.668 349.78C594.98 348.864 594.968 347.869 594.635 346.961V346.961Z" fill="black"/>
<path d="M590.457 352.17C591.283 352.343 592.142 352.264 592.922 351.942C593.569 351.573 594.093 351.022 594.429 350.356C594.765 349.691 594.897 348.942 594.809 348.202C593.713 348.176 592.649 348.575 591.838 349.314C591.028 350.053 590.533 351.075 590.457 352.17V352.17Z" fill="#F28F8F"/>
<path d="M597.641 328.012C597.69 328.538 597.582 329.066 597.332 329.531C597.081 329.995 596.699 330.375 596.232 330.623C595.766 330.87 595.237 330.974 594.712 330.921C594.187 330.869 593.689 330.662 593.281 330.327C592.873 329.992 592.573 329.544 592.42 329.039C592.266 328.534 592.265 327.994 592.417 327.489C592.57 326.984 592.868 326.535 593.275 326.198C593.682 325.862 594.179 325.654 594.705 325.6C595.414 325.532 596.121 325.747 596.671 326.199C597.222 326.652 597.57 327.303 597.641 328.012Z" fill="#263238"/>
<path d="M575.092 329.393C575.144 329.919 575.04 330.449 574.792 330.915C574.543 331.382 574.162 331.764 573.697 332.014C573.231 332.265 572.702 332.371 572.176 332.321C571.65 332.27 571.15 332.065 570.741 331.731C570.331 331.397 570.03 330.949 569.874 330.444C569.719 329.939 569.717 329.399 569.868 328.893C570.02 328.386 570.318 327.936 570.725 327.599C571.132 327.262 571.63 327.053 572.155 326.998C572.506 326.962 572.859 326.995 573.197 327.096C573.534 327.197 573.848 327.363 574.121 327.586C574.394 327.808 574.62 328.083 574.787 328.393C574.953 328.703 575.057 329.043 575.092 329.393V329.393Z" fill="#263238"/>
<path d="M571.491 319.045L565.985 323.73C565.655 323.023 565.548 322.233 565.68 321.465C565.811 320.696 566.173 319.986 566.719 319.43C567.4 318.928 568.207 318.626 569.05 318.558C569.893 318.49 570.739 318.659 571.491 319.045V319.045Z" fill="#263238"/>
<path d="M594.32 316.388L600.648 319.884C600.832 319.126 600.78 318.329 600.499 317.601C600.217 316.873 599.721 316.249 599.075 315.811C598.307 315.455 597.455 315.321 596.615 315.422C595.775 315.524 594.98 315.859 594.32 316.388V316.388Z" fill="#263238"/>
</svg>
