<svg xmlns="http://www.w3.org/2000/svg" viewBox="0 0 584.19 585.31"><defs><style>.cls-1{fill:#010b14;}</style></defs><title>Ativo 1</title><g id="Camada_2" data-name="Camada 2"><g id="Camada_1-2" data-name="Camada 1"><path class="cls-1" d="M136.84,307.14c2.46,22.29,8,42.29,18.71,60.4C188.19,423,237,451,301.26,448c51.67-2.38,92.08-27.1,121.25-69.87,1.15-1.69,2.05-4.48,1.48-6.26-14.22-44.84-41.41-78.17-86.17-95.35-18.47-7.08-37.61-10-57.34-6.06-10.76,2.13-15.32,4.51-26.36,13.63,5.24-13.95,13.17-25.23,22.64-35.61,16.14-17.7,37.14-24.64,60.05-26.93,34.57-3.45,67.2,4.61,98.54,18.33,21.62,9.46,38.51,25.51,54,42.79,35.35,39.5,54.3,85.87,57.41,138.91a43.24,43.24,0,0,1-7.46,28c-47.91,72.48-114.26,117.5-200,131.58-77.27,12.68-148.84-3.92-213.63-48.26a22.52,22.52,0,0,1-7.66-9.28Q71.91,414.49,133,312.89C134,311.34,135,309.88,136.84,307.14Z"/><path class="cls-1" d="M584.19,287.77c-39-66.94-93.6-113.41-165.93-138.22C363.77,130.86,308,128,252.37,142,119.93,175.12,34,286.36,24.8,408.62,11.65,395.62-2.57,318.25.4,273.11A286.05,286.05,0,0,1,41.76,141.54C113.83,22.94,254.16-26.63,381.06,14,515.76,57,584.56,180.66,584.19,287.77Z"/></g></g></svg>